<?xml version="1.0" encoding="UTF-8"?>
<svg width="48px" height="48px" viewBox="0 0 48 48" version="1.1" xmlns="http://www.w3.org/2000/svg" xmlns:xlink="http://www.w3.org/1999/xlink">
    <!-- Generator: Sketch 59 (86127) - https://sketch.com -->
    <title>Group</title>
    <desc>Created with Sketch.</desc>
    <g id="Design" stroke="none" stroke-width="1" fill="none" fill-rule="evenodd">
        <g id="ourstory-mobile" transform="translate(-259.000000, -2928.000000)">
            <g id="Group" transform="translate(259.000000, 2928.000000)">
                <circle id="Oval" fill="#000000" cx="24" cy="24" r="15"></circle>
                <path d="M21.2505675,32 L18.1820885,28.8970801 L13.8666667,24.5321033 L16.8174845,21.5468232 L21.1344545,25.9093399 C21.1985931,25.9741984 21.3023207,25.9741984 21.3666805,25.9093399 L30.1136371,17.0666667 L33.0666667,20.0497102 L21.2505675,32 Z M47.8433362,24.3824996 C48.0522213,24.1720782 48.0522213,23.8286898 47.8433362,23.6182683 L45.3127996,21.0666618 C45.1039145,20.8562404 45.043136,20.4680907 45.1761027,20.203912 L46.7947422,16.9955888 C46.9283672,16.7307518 46.8215111,16.4036003 46.5584301,16.2686585 L43.3632792,14.624124 C43.0999787,14.488524 42.9213733,14.1381142 42.9665732,13.84585 L43.5151158,10.2941384 C43.5603157,10.0012159 43.3577938,9.72321392 43.0655303,9.67560031 L39.518215,9.09919044 C39.2259515,9.05179625 38.9481696,8.77357481 38.9009949,8.48196891 L38.3243669,4.93464557 C38.2776311,4.64260083 37.9991909,4.44095611 37.7064886,4.48571729 L34.1550044,5.03360288 C33.8620827,5.07836406 33.5121125,4.8999776 33.3765128,4.63689597 L31.7326403,1.44173779 C31.5970406,1.17843674 31.2696704,1.07179982 31.0052729,1.20520568 L27.7967375,2.82384886 C27.5319012,2.9570353 27.1444107,2.89559839 26.9339898,2.68715173 L24.3826085,0.156170433 C24.1719681,-0.0520568109 23.8285804,-0.0520568109 23.6181595,0.156170433 L21.0665588,2.68715173 C20.8561378,2.89559839 20.4682085,2.95747414 20.203811,2.82384886 L16.9957145,1.20520568 C16.7308781,1.07179982 16.4035079,1.17843674 16.268347,1.44173779 L14.6240358,4.63689597 C14.488436,4.8999776 14.138027,5.07836406 13.8455441,5.03360288 L10.2942794,4.48571729 C10.0013576,4.44051728 9.72291742,4.64260083 9.67552334,4.93464557 L9.09911479,8.48196891 C9.05194013,8.77357481 8.77349991,9.05179625 8.48167525,9.09919044 L4.93457944,9.67560031 C4.64275478,9.72321392 4.44089111,10.0018742 4.48565218,10.2941384 L5.03353652,13.84585 C5.07807818,14.138553 4.90013096,14.4889628 4.63683052,14.624124 L1.44167964,16.2686585 C1.17837919,16.4042585 1.07174251,16.7314101 1.20536749,16.9955888 L2.82400697,20.203912 C2.95675427,20.4680907 2.89553692,20.8562404 2.68731015,21.0666618 L0.156334638,23.6182683 C-0.0521115461,23.8286898 -0.0521115461,24.1720782 0.156334638,24.3824996 L2.68731015,26.9338868 C2.89553692,27.1443082 2.95741252,27.5326772 2.82400697,27.7968559 L1.20536749,31.005618 C1.07174251,31.270455 1.17837919,31.5971677 1.44167964,31.7327677 L4.63683052,33.3768633 C4.90013096,33.5124634 5.07807818,33.8619955 5.03353652,34.1549179 L4.48565218,37.7066296 C4.44045227,37.9993326 4.64275478,38.2773346 4.93457944,38.3245094 L8.48167525,38.9009193 C8.77349991,38.9478746 9.05194013,39.2260961 9.09911479,39.5185796 L9.67552334,43.0656836 C9.72291742,43.3579477 10.0020159,43.5604701 10.2942794,43.5152701 L13.8455441,42.9667262 C14.1384659,42.9215262 14.4888749,43.1001321 14.6240358,43.3632137 L16.268347,46.5585913 C16.4039468,46.8218924 16.7315364,46.9283099 16.9957145,46.794904 L20.203811,45.1762609 C20.4682085,45.0432938 20.8561378,45.1042919 21.0665588,45.312958 L23.6181595,47.8435004 C23.8285804,48.0521665 24.1719681,48.0521665 24.3826085,47.8435004 L26.9339898,45.312958 C27.1444107,45.1042919 27.53234,45.0432938 27.7967375,45.1762609 L31.0054923,46.794904 C31.2701092,46.9289681 31.5970406,46.8218924 31.7322015,46.5585913 L33.3765128,43.3632137 C33.5121125,43.1001321 33.8620827,42.9215262 34.1550044,42.9667262 L37.7064886,43.5152701 C37.9991909,43.5604701 38.2769729,43.3579477 38.3243669,43.0656836 L38.9009949,39.5185796 C38.9477307,39.2260961 39.2259515,38.9483135 39.518215,38.9009193 L43.0655303,38.3245094 C43.3577938,38.277554 43.5603157,37.9993326 43.5151158,37.7066296 L42.9665732,34.1549179 C42.9213733,33.8619955 43.0999787,33.5124634 43.3632792,33.3768633 L46.5584301,31.7327677 C46.8215111,31.5971677 46.9277089,31.2697967 46.7947422,31.005618 L45.1761027,27.7968559 C45.043136,27.532019 45.1039145,27.1443082 45.3127996,26.9338868 L47.8433362,24.3824996 Z" id="icon" fill="#FF4C00"></path>
            </g>
        </g>
    </g>
</svg>