<svg xmlns="http://www.w3.org/2000/svg" width="451" height="290" viewBox="0 0 451 290">
    <g fill="none" fill-rule="evenodd">
        <path fill="#FF4A00" d="M188.795 206.595l-2.346 52.696-29.009 22.137a1.285 1.285 0 0 0-.182.17l-27.658.002 40.665-27.264a1.28 1.28 0 0 0 .555-.881l.012-.136 1.734-46.675v-.049h16.229zm72.81 0l16.23.001v.048l1.733 46.675c.013.365.182.704.458.936l.108.081L320.8 281.6l-27.657-.001a1.279 1.279 0 0 0-.078-.08l-.105-.09-29.009-22.138-2.347-52.696zm-52.766 0h15.042l.001 75.004H186.75l15.896-12.219c.222-.17.386-.442.462-.72l.03-.139.006-.043.005-.042 5.69-61.841zm32.72 0l5.692 61.84c.002.022.008.064.014.099l.007.044c.046.273.18.523.378.713l.104.09 15.895 12.218h-37.212v-75.003h15.122zm17.487 0l2.376 53.344c.002.035.01.102.019.16l.01.071c.047.274.181.524.381.715l.105.09 27.026 20.624h-21.151a1.27 1.27 0 0 0-.065-.068l-.112-.097-17.887-13.749-5.622-61.09h14.92zm-52.773 0l-5.621 61.091-17.887 13.748c-.064.05-.123.105-.176.164h-21.153l27.027-20.623c.22-.17.39-.46.467-.74l.031-.139.01-.079.008-.078 2.373-53.344h14.921zm18.887-33.376l6.98 7.573h-13.96l6.98-7.573zm0-43.77l6.98 7.573h-13.96l6.98-7.573zm0-54.249l6.98 7.573h-13.96l6.98-7.573z"></path>
        <path fill="#000" d="M225.116 6.4l58.252 63.088.042-.01L400.2 42.383c.384-.089.781.003 1.086.245.304.243.483.613.483 1.003v2.858c2.852-.12 5.522.086 7.93.35a7.348 7.348 0 0 1 5.414 3.338c10.087-.615 10.534-.629 17.08-.671h.047c3.661 0 6.65 2.763 6.813 6.31a6.546 6.546 0 0 1-1.238 4.158c1.489.095 2.899.693 4.024 1.72a6.577 6.577 0 0 1 2.154 4.583 6.628 6.628 0 0 1-3.24 6l.169.147a6.572 6.572 0 0 1 2.153 4.583 6.577 6.577 0 0 1-1.724 4.76 6.566 6.566 0 0 1-4.578 2.157l-5.925.273a6.568 6.568 0 0 1 1.579 3.988c.148 3.223-2.165 5.857-6.036 6.876-2.764.728-8.07 1.718-16.473 1.718-2.448 0-5.16-.085-8.148-.284l-.001 6.655a1.28 1.28 0 0 1-1.274 1.282l-84.477.415 8.045 8.712 15.508-3.596a1.28 1.28 0 0 1 1.57 1.249v2.428c2.619-.3 5.024-.124 7.078.1 1.573.173 2.918 1.001 3.772 2.203 6.49-.395 6.834-.404 11.133-.431h.034c2.664 0 4.838 2.016 4.958 4.605.04.882-.16 1.72-.543 2.452a4.833 4.833 0 0 1 3.827 4.5 4.835 4.835 0 0 1-1.903 4.067 4.78 4.78 0 0 1 1.293 3.066 4.835 4.835 0 0 1-4.599 5.048l-3.15.145c.401.673.633 1.437.67 2.24.107 2.356-1.553 4.274-4.333 5.006-.922.242-2.264.528-4.07.755l55.218 59.803H39.705l55.279-59.869a30.501 30.501 0 0 1-3.573-.69c-2.78-.73-4.44-2.65-4.332-5.006a4.795 4.795 0 0 1 .669-2.24l-3.15-.144A4.834 4.834 0 0 1 80 134.204a4.788 4.788 0 0 1 1.295-3.065 4.827 4.827 0 0 1-1.905-4.069 4.818 4.818 0 0 1 3.825-4.504 4.78 4.78 0 0 1-.54-2.448c.118-2.59 2.293-4.606 4.957-4.606l.034.001c4.299.027 4.642.036 11.131.432a5.317 5.317 0 0 1 3.773-2.204c1.999-.218 4.266-.377 6.706-.138v-2.39a1.282 1.282 0 0 1 1.57-1.25l15.354 3.562 8.014-8.68-83.969-.412a1.281 1.281 0 0 1-1.275-1.282l-.001-6.935c-3.122.216-5.947.307-8.487.307-8.403 0-13.71-.99-16.473-1.718-3.87-1.019-6.184-3.654-6.036-6.877a6.568 6.568 0 0 1 1.579-3.987l-5.925-.273A6.566 6.566 0 0 1 9.05 81.51a6.577 6.577 0 0 1-1.724-4.76 6.572 6.572 0 0 1 2.153-4.583l.169-.147a6.628 6.628 0 0 1-3.24-6 6.577 6.577 0 0 1 2.154-4.583 6.567 6.567 0 0 1 4.024-1.72 6.546 6.546 0 0 1-1.238-4.158c.163-3.547 3.152-6.31 6.813-6.31h.047c6.546.042 6.993.055 17.08.67a7.348 7.348 0 0 1 5.415-3.337c2.502-.275 5.288-.487 8.268-.335v-2.616a1.282 1.282 0 0 1 1.57-1.248L166.952 69.39l37.303-40.4c.426-.496.87-.978 1.334-1.443L225.116 6.4zm-115.84 141.106l.2-.015a84.503 84.503 0 0 1-7 .306c-1.598 0-3.03-.054-4.304-.142L45.56 204.637h70.063l-.02-.019 18.599-20.143c-.949.045-1.816.065-2.612.065-3.54 0-5.668-.4-7.307-.83-2.248-.592-3.59-2.16-3.501-4.095.022-.483.13-.95.316-1.382l-1.886-.086a3.925 3.925 0 0 1-2.738-1.29 3.934 3.934 0 0 1-1.03-2.845 3.92 3.92 0 0 1 .842-2.26 3.953 3.953 0 0 1-.015-5.86 3.92 3.92 0 0 1 1.47-.848 3.92 3.92 0 0 1-.28-1.655c.096-2.121 1.874-3.773 4.052-3.773h.028c3.222.02 3.514.028 8.239.316a4.327 4.327 0 0 1 2.963-1.649c.858-.094 1.84-.184 2.917-.197l.002-.637a1.281 1.281 0 0 1 1.57-1.249l19.006 4.409 8.199-8.88-53.886-.267a1.28 1.28 0 0 1-1.275-1.281v-2.675zm205.478 39.364v.579a1.28 1.28 0 0 1-1.273 1.28l-41.096.203 14.502 15.705h44.271l-16.404-17.767zm26.385-39.391l.001 2.702a1.28 1.28 0 0 1-1.273 1.28l-54.077.266 8.234 8.918 19.161-4.445a1.28 1.28 0 0 1 1.57 1.249l.001.634c1.22-.006 2.328.094 3.29.2a4.32 4.32 0 0 1 2.962 1.649c4.726-.288 5.018-.295 8.24-.316h.027c2.178 0 3.957 1.651 4.055 3.773a3.945 3.945 0 0 1-.281 1.657 3.9 3.9 0 0 1 1.469.847 3.955 3.955 0 0 1-.01 5.855 3.962 3.962 0 0 1-2.93 6.4l-1.888.085c.184.426.295.891.318 1.381.089 1.935-1.253 3.504-3.502 4.095-1.582.416-3.985.896-7.954.896-.76 0-1.576-.018-2.455-.056l18.531 20.07-.021.018h70.066l-52.584-56.948a63.75 63.75 0 0 1-3.775.108c-2.053 0-4.381-.088-7-.306a5.81 5.81 0 0 0-.175-.012zM135.66 186.672l-16.589 17.965h44.27l14.503-15.706-40.909-.201a1.28 1.28 0 0 1-1.274-1.281l-.001-.777zm75.428-29.969l-29.298 31.734c-.05.066-.107.128-.17.184l-14.791 16.016H283.4l-40.137-43.47c-.05.275-.149.54-.296.785a2.429 2.429 0 0 1-1.804 1.148c-.998.113-1.92-.018-2.664-.158.478.927.873 2.079.972 2.913.419 3.536.025 6.135-3.256 7.324-1.689.612-3.815.808-5.964.808-1.611 0-3.234-.11-4.696-.238-8.294-.72-14.447-6.768-14.63-14.378-.021-.915.035-1.805.164-2.668zm101.105 2.359l-55.501 12.874 13.336 14.444 42.165-.207v-27.111zm-173.971 0v27.111l41.978.206 13.369-14.478-55.347-12.84zm191.052 3.117h-.01c-2.979.02-3.402.027-7.357.266l-.003-.051a3.586 3.586 0 0 1-.945 2.594 3.575 3.575 0 0 1-2.498 1.171l-3.708.207v15.54c4.576.306 8.217.083 11.101-.677.386-.1 1.64-.509 1.594-1.497-.035-.768-.694-1.381-1.455-1.328l-4.506.312c-.692.059-1.317-.483-1.365-1.19a1.28 1.28 0 0 1 1.188-1.366l4.535-.315c.111-.005.221-.006.33-.003.057-.012.117-.019.178-.022l5.107-.234a1.395 1.395 0 0 0 1.327-1.457c-.035-.76-.655-1.372-1.433-1.33l-1.923.089-.367.017h-.006l-.509.023-6.522.407a1.28 1.28 0 0 1-.16-2.558l5.425-.339a1.29 1.29 0 0 1 .215-.028l2.799-.129.907-.042h.018l.688-.032a1.396 1.396 0 0 0 1.327-1.457 1.379 1.379 0 0 0-.455-.964 1.352 1.352 0 0 0-1-.364l-1.59.073-.633.03h-.008l-1.609.073-6.967.427-.08.003a1.28 1.28 0 0 1-.077-2.56l2.489-.154c.127-.05.264-.08.408-.087l3.53-.163h.007l2.198-.102.117-.011a1.396 1.396 0 0 0 1.194-1.445c-.035-.745-.69-1.327-1.496-1.327zm-207.75 0c-.831-.019-1.471.578-1.507 1.327-.016.37.113.726.365 1.002.248.272.582.433.943.455l2.201.1.019.002 3.519.162c.144.007.281.037.408.087l2.488.153a1.281 1.281 0 0 1-.156 2.558l-6.969-.427-1.608-.073-.008-.002-.632-.028-1.59-.073a1.345 1.345 0 0 0-1.001.364 1.386 1.386 0 0 0-.456.964 1.397 1.397 0 0 0 1.329 1.457l.69.032a4 4 0 0 1 .014 0l.907.042 2.8.129c.074.003.146.013.216.028l5.424.339a1.28 1.28 0 0 1-.16 2.558l-6.519-.406-.512-.024h-.005l-.347-.016-1.937-.089-.116-.002c-.699.024-1.29.607-1.323 1.33-.017.37.112.726.365 1.002.252.277.594.439.962.456l5.106.234c.062.003.122.01.181.022.098-.003.198-.003.297.001l4.565.317c.706.049 1.238.66 1.19 1.366a1.271 1.271 0 0 1-1.366 1.19l-4.536-.314a1.399 1.399 0 0 0-.971.367 1.386 1.386 0 0 0-.456.963c-.045.988 1.21 1.396 1.595 1.497 2.007.528 4.852 1.003 10.726.593l.001-15.515-3.334-.148a3.578 3.578 0 0 1-2.498-1.17 3.588 3.588 0 0 1-.947-2.543c-3.955-.24-4.38-.248-7.357-.267zm103.751-15.2c-7.105.462-11.953 5.533-11.79 12.33.153 6.382 5.207 11.27 12.291 11.887 2.904.253 7.053.483 9.567-.428 1.05-.38 2.042-.74 1.584-4.611-.073-.617-.557-1.923-1.016-2.566a2.13 2.13 0 0 1-.071-2.376 2.124 2.124 0 0 1 2.174-.978c.157.026.334.061.527.1.617.125 1.37.28 2.12.234-.363-.885-1.484-3.372-3.609-6.128l-3.343-3.62c-.209-.188-.419-.37-.629-.543-.21 1.009-.763 2.077-1.923 2.957-.656.499-1.513.652-2.32.652-1.084 0-2.078-.277-2.372-.366a1.282 1.282 0 0 1 .746-2.453c.926.28 2.113.34 2.398.125 1.343-1.02 1.034-2.317.901-2.704-.7-.396-1.4-.716-2.1-.96-1.058-.37-2.379-.608-3.135-.552zm17.173-34.525c-.224 9.357-7.514 16.511-17.726 17.4-1.792.155-3.783.29-5.754.29-2.613 0-5.193-.237-7.233-.975-1.71-.62-5.523-2.79-4.014-9.55.375-1.68.986-2.419 1.525-3.07l.078-.094c-.97.195-2.297.464-3.741.3a2.694 2.694 0 0 1-2-1.271 2.622 2.622 0 0 1-.26-2.093l-44.214 47.885 36.46 8.458 29.545-31.996L235.517 149c.36.326.72.669 1.076 1.029.903.91 1.702 1.837 2.403 2.74l15.696 16.999 36.461-8.458-49.1-53.175c.294 1.377.432 2.822.396 4.318zm72.306 48.194l-.001 3.15 3.58-.2a1.047 1.047 0 0 0 1.011-1.09 1.757 1.757 0 0 0-1.577-1.676c-.888-.098-1.909-.19-3.013-.184zm-181.733.184c-.876.095-1.54.8-1.578 1.675-.013.277.085.543.274.75.19.208.446.33.722.341l3.221.143-.001-3.09c-.964.014-1.856.095-2.638.181zm-21.184-48.007v36.08l54.955.273 17.951-19.441-72.906-16.912zm226.742 0l-73.061 16.948 17.915 19.403 55.146-.27v-36.08zm9.923 10.54l-7.17.32-.193.017v21.211c.112.004.238.01.386.023 9.432.783 14.826-.15 17.201-.775.588-.153 2.5-.785 2.425-2.409a2.248 2.248 0 0 0-.74-1.567 2.284 2.284 0 0 0-1.626-.592l-9.08.417a1.282 1.282 0 0 1-.117-2.561l9.079-.417c.136-.006.273-.006.408 0 .072-.016.148-.027.226-.03l.09-.005h.009l1.294-.06 5.379-.247a2.27 2.27 0 0 0 2.157-2.369 2.248 2.248 0 0 0-.74-1.568 2.282 2.282 0 0 0-1.625-.592l-3.009.139h-.012l-.64.03h-.007l-11.763.542h-.06a1.28 1.28 0 0 1-.057-2.562l11.763-.541.004-.001 2.49-.114.003-.001 1.17-.053.008-.001.927-.042a2.27 2.27 0 0 0 2.158-2.369c-.057-1.249-1.134-2.209-2.366-2.16l-2.924.135-.035.002-7.585.349h-.024l-6.854.316h-.06a1.28 1.28 0 0 1-.49-2.464zm-245.429 1.243a1.28 1.28 0 0 1-1.278 1.223l-.06-.001-6.856-.316h-.022l-7.585-.35-.035-.002-2.923-.134c-1.251-.067-2.31.911-2.367 2.16a2.27 2.27 0 0 0 2.158 2.369l.927.042h.01l1.169.055h.004l2.488.115h.004l11.764.541a1.282 1.282 0 0 1-.058 2.562h-.06l-11.764-.542-.006-.001-.64-.029h-.013l-3.007-.139a2.274 2.274 0 0 0-2.366 2.161 2.269 2.269 0 0 0 2.158 2.368l5.477.252 1.196.055h.008l.091.005c.077.003.152.014.224.03.135-.006.272-.006.41 0l9.077.417a1.282 1.282 0 0 1 1.22 1.34 1.293 1.293 0 0 1-1.337 1.221l-9.078-.417c-.6-.03-1.179.182-1.628.592a2.25 2.25 0 0 0-.739 1.567c-.074 1.624 1.837 2.256 2.425 2.41 2.376.624 7.768 1.556 17.201.774l.013-.002v-21.257l-6.99-.312c.484.202.813.69.788 1.243zm122.041 16.907l-3.14 3.398a17.116 17.116 0 0 1 2.795-.466l.34-.026c.898-.059 2.029.11 3.022.358l-3.017-3.264zM199.066 38.389l-60.712 65.753c-.11.225-.284.413-.499.54l-8.783 9.509 57.673 13.379 38.37-41.554 38.403 41.59 57.672-13.379-62.936-68.16.01.026c.328 1.002.225 2.019-.297 2.885a3.557 3.557 0 0 1-2.642 1.674c-2.213.25-4.294-.17-5.812-.477-.342-.07-.655-.133-.934-.18a.408.408 0 0 0-.435.2.391.391 0 0 0 .009.462c1.295 1.811 3.468 5.611 4.147 8.656.765 3.43 1.715 11.708-5.98 14.496-3.193 1.157-7.259 1.53-11.39 1.53-3.157 0-6.353-.218-9.228-.467-16.066-1.398-27.533-12.628-27.886-27.311-.077-3.233.361-6.313 1.25-9.172zm11.601 67.455l-.009.01c-3.073 3.882-4.549 7.412-4.862 8.214a.239.239 0 0 0-.02.091c.005.01.04.042.093.049 1.047.116 2.107-.097 2.957-.268.238-.047.455-.091.648-.124a2.332 2.332 0 0 1 2.373 1.07 2.326 2.326 0 0 1-.077 2.595 11.61 11.61 0 0 1-.55.702c-.456.552-.758.917-.999 1.995-.538 2.413-.56 5.512 2.387 6.58 3.145 1.14 8.294.854 11.893.542 2.11-.184 4.076-.67 5.85-1.414-6.132-4.046-7.724-10.83-6.578-16.582-4.061 1.04-9.903 1.109-13.106-3.46zm10.47-8.224c-2.657.927-5.328 2.73-7.938 5.364-.272.275-.536.55-.792.827l-.05-.088c3.47 6.205 12.406 2.595 12.785 2.439a1.282 1.282 0 0 1 1.698 1.608c-2.007 5.716-.838 13.01 6.172 16.717 4.156-2.678 6.754-7.007 6.876-12.094.205-8.528-5.871-14.888-14.777-15.468-.961-.064-2.638.23-3.974.695zm142.02 20.456h-.017c-4.051.026-4.535.035-10.2.379.01.112.02.226.025.341a4.375 4.375 0 0 1-3.335 4.44l8.162-.375 4.82-.222h.003l.784-.036a2.24 2.24 0 0 0 1.565-.74c.41-.448.62-1.028.593-1.628-.056-1.213-1.108-2.16-2.4-2.16zm-275.508 0c-1.291-.04-2.361.94-2.417 2.159-.027.6.183 1.18.593 1.628.409.45.964.712 1.564.74l.785.036.003-.001 5.064.234 7.926.366a4.335 4.335 0 0 1-2.2-1.302 4.34 4.34 0 0 1-1.142-3.14c.005-.115.014-.229.026-.342-5.667-.343-6.151-.352-10.202-.378zm253.492-1.852v4.904a4.68 4.68 0 0 1 .078-.004l7.466-.331a1.807 1.807 0 0 0 1.721-1.884 2.747 2.747 0 0 0-2.465-2.618c-1.986-.218-4.315-.387-6.8-.067zm-238.292.066a2.75 2.75 0 0 0-2.465 2.62c-.022.478.147.939.473 1.296.327.357.77.566 1.247.586l7.172.319v-4.934c-2.278-.254-4.416-.108-6.427.113zm296.36-71.045L285.368 71.654l28.293 30.641 85.548-.419V45.245zm-347.677 0v56.631l85.039.417 28.38-30.736-113.42-26.312zm173.583 44.548l-5.077 5.498.257-.092c1.391-.485 3.47-.93 4.982-.832a20.54 20.54 0 0 1 4.906.913l-5.068-5.487zM432.24 52.07h-.03c-6.29.04-6.892.055-16.087.615.074.372.121.754.139 1.145.144 3.263-2.39 6.037-5.651 6.182l-8.843.392.002 33.523c12.771.87 20.294-.4 23.801-1.3l.168-.044c1.002-.264 4.264-1.352 4.13-4.28a4.027 4.027 0 0 0-1.323-2.805 4.028 4.028 0 0 0-2.912-1.06l-13.657.628a1.271 1.271 0 0 1-1.338-1.22 1.281 1.281 0 0 1 1.22-1.34l13.657-.629c.223-.01.445-.01.665.002.092-.025.188-.04.287-.045l.147-.008h.003l2.259-.104 7.778-.358a4.02 4.02 0 0 0 2.804-1.323 4.03 4.03 0 0 0 1.058-2.915 4.033 4.033 0 0 0-1.32-2.807 4.038 4.038 0 0 0-2.686-1.064l-.202.004-4.008.184-.541.025h-.011l-2.86.132h-.033l-15.784.728-.06.002a1.28 1.28 0 0 1-.058-2.562l17.697-.815h.013l.973-.045h.005l.299-.015h.003l1.025-.047.499-.023.931-.043h.004l1.762-.08.025-.002 1.382-.063a4.061 4.061 0 0 0 3.863-4.24 4.03 4.03 0 0 0-1.322-2.805 4.023 4.023 0 0 0-2.913-1.06l-5.63.259h-.01l-3.162.146h-.03l-.108.006-6.939.32h-.016l-10.311.475-.06.001a1.28 1.28 0 0 1-.058-2.561l11.192-.516 10.565-.486a4.022 4.022 0 0 0 2.803-1.323 4.029 4.029 0 0 0 1.059-2.916c-.1-2.172-1.966-3.865-4.255-3.865zm-414.05-.257h-.03c-2.289 0-4.154 1.693-4.255 3.865a4.029 4.029 0 0 0 1.06 2.916 4.022 4.022 0 0 0 2.802 1.322l10.565.486 11.192.516a1.281 1.281 0 0 1-.058 2.562l-.06-.002-10.311-.475h-.016l-6.939-.32-.108-.005h-.03l-3.162-.146h-.01l-5.63-.26a4.023 4.023 0 0 0-2.913 1.06 4.03 4.03 0 0 0-1.322 2.806 4.061 4.061 0 0 0 3.863 4.24l1.382.063h.025l1.762.082H16l.931.042.499.023 1.025.048h.003l.299.014h.005l.973.045h.013l17.697.815a1.281 1.281 0 0 1-.058 2.562l-.06-.001-15.784-.728h-.032l-2.86-.132h-.012l-.541-.026-4.008-.184-.202-.003a4.038 4.038 0 0 0-2.685 1.064 4.033 4.033 0 0 0-1.321 2.806 4.03 4.03 0 0 0 1.058 2.915 4.02 4.02 0 0 0 2.804 1.324l7.778.357 2.26.105h.002l.147.007c.1.005.195.02.287.046.22-.012.442-.013.665-.002l13.656.629a1.281 1.281 0 0 1 1.22 1.339 1.271 1.271 0 0 1-1.337 1.22l-13.657-.628a4.028 4.028 0 0 0-2.912 1.06 4.027 4.027 0 0 0-1.322 2.806c-.135 2.927 3.127 4.016 4.129 4.28 3.461.91 11.122 2.25 24.31 1.32l-.001-33.484-9.18-.408c-3.261-.145-5.796-2.918-5.652-6.182.018-.39.065-.773.14-1.144-9.196-.56-9.799-.575-16.088-.615zm206.766-30.076c-14.813.963-24.92 11.557-24.579 25.761.32 13.334 10.825 23.54 25.547 24.819 5.881.513 14.304.974 19.525-.918 4.19-1.518 5.695-5.505 4.35-11.528-.59-2.652-2.6-6.144-3.729-7.723a2.97 2.97 0 0 1-.097-3.313 2.982 2.982 0 0 1 3.034-1.368c.301.051.642.12 1.012.194 1.427.288 3.201.647 5.022.443a.994.994 0 0 0 .734-.452c.143-.236.151-.52.026-.84-1.693-4.334-5.4-9.404-11.015-15.068a50.639 50.639 0 0 0-1.876-1.799c-.459 3.952-2.618 12.918-12.718 16.058-.453.143-.947.02-1.283-.316-.025-.024-2.703-2.647-5.464-2.873-1.411-.119-3.042 1.117-3.646 2.744-.658 1.768.022 3.504 1.914 4.888.504.37.67 1.049.39 1.609-.004.01-.75 1.568-.277 2.913.242.69.773 1.221 1.624 1.625.714.338 1.318.388 1.843.15 1.12-.508 1.817-2.194 1.992-2.8a1.28 1.28 0 0 1 2.465.695c-.096.338-.996 3.343-3.39 4.435-.446.203-1.04.38-1.759.38-.651 0-1.406-.145-2.248-.544-1.49-.706-2.483-1.755-2.953-3.117-.513-1.489-.255-2.963.031-3.9-2.23-2.006-2.991-4.65-2.032-7.228 1.01-2.72 3.706-4.616 6.255-4.405 2.812.23 5.346 2.114 6.463 3.068 10.523-3.746 10.357-15.11 10.354-15.228a1.293 1.293 0 0 1 .012-.21c-2.914-2.291-5.862-3.962-8.806-4.989-2.242-.78-5.067-1.267-6.72-1.163zM409.42 49.388c-2.423-.265-4.97-.46-7.65-.338l-.002 8.788 8.73-.388a3.363 3.363 0 0 0 3.208-3.322l-.003-.185a4.78 4.78 0 0 0-4.283-4.555zm-368.44-.257a4.78 4.78 0 0 0-4.283 4.555 3.363 3.363 0 0 0 3.205 3.506l9.068.404v-8.787c-2.806-.154-5.465.046-7.99.322zm184.136-38.954L214.66 21.5c3.079-1.281 6.483-2.084 10.13-2.322 2.324-.15 5.558.545 7.73 1.302 1.162.405 2.323.9 3.48 1.485l-10.884-11.788z"></path>
        <path fill="#000" d="M276.384 185.442l1.868 2.015-.587.543-1.281-1.381-1.28 1.381-.588-.543 1.868-2.015zm7.658 0l1.868 2.015-.587.543-1.281-1.381-1.28 1.381-.588-.543 1.868-2.015zm7.097 0l1.868 2.015-.589.543-1.279-1.381-1.28 1.381-.588-.543 1.868-2.015zm7.657 0l1.868 2.015-.588.543-1.28-1.381-1.28 1.381-.588-.543 1.868-2.015zm7.46 0l1.868 2.015-.589.543-1.279-1.381-1.28 1.381-.588-.543 1.868-2.015zm-164.743 0l1.868 2.015-.587.543-1.281-1.381-1.28 1.381-.587-.543 1.867-2.015zm7.097 0l1.868 2.015-.588.543-1.28-1.381-1.28 1.381-.589-.543 1.869-2.015zm7.657 0l1.868 2.015-.587.543-1.281-1.381-1.28 1.381-.587-.543 1.867-2.015zm7.69 0l1.869 2.015-.588.543-1.28-1.381-1.28 1.381-.588-.543 1.868-2.015zm7.658 0l1.868 2.015-.587.543-1.28-1.381-1.28 1.381-.588-.543 1.867-2.015zm7.097 0l1.868 2.015-.588.543-1.28-1.381-1.28 1.381-.588-.543 1.868-2.015zm-41.03-3.775l1.867 2.016-.587.543-1.28-1.383-1.28 1.382-.588-.542 1.867-2.016zm37.762 0l1.868 2.016-.587.543-1.28-1.383-1.28 1.382-.588-.542 1.867-2.016zm134.64 0l1.868 2.016-.587.543-1.28-1.383-1.28 1.383-.589-.543 1.868-2.016zm-37.56 0l1.867 2.016-.589.542-1.279-1.382-1.28 1.383-.588-.543 1.868-2.016zm-89.983 0l1.868 2.016-.588.542-1.28-1.382-1.28 1.383-.588-.543 1.868-2.016zm112.426 0l1.868 2.016-.587.543-1.281-1.383-1.28 1.383-.588-.543 1.868-2.016zm7.658 0l1.868 2.016-.588.542-1.28-1.382-1.28 1.383-.588-.543 1.868-2.016zm-134.838 0l1.868 2.016-.588.542-1.28-1.382-1.28 1.383-.588-.543 1.868-2.016zm112.427 0l1.867 2.016-.588.542-1.28-1.382-1.28 1.383-.587-.543 1.868-2.016zm-127.775 0l1.867 2.016-.587.542-1.28-1.382-1.28 1.383-.588-.543 1.868-2.016zm135.431 0l1.869 2.016-.588.543-1.28-1.383-1.28 1.383-.589-.543 1.868-2.016zm-142.528 0l1.868 2.016-.587.543-1.281-1.383-1.28 1.382-.587-.542 1.867-2.016zm14.754 0l1.868 2.016-.587.543-1.281-1.383-1.28 1.383-.588-.543 1.868-2.016zm123.946-3.436l1.868 2.015-.587.543-1.281-1.382-1.28 1.382-.588-.543 1.868-2.015zm-142.53 0l1.87 2.015-.588.543-1.281-1.382-1.28 1.381-.587-.541 1.867-2.016zm127.181 0l1.869 2.015-.588.543-1.28-1.382-1.28 1.382-.589-.543 1.868-2.015zm-97.078 0l1.868 2.015-.587.543-1.28-1.382-1.28 1.381-.588-.541 1.867-2.016zm127.18 0l1.869 2.015-.588.543-1.28-1.382-1.28 1.381-.588-.541 1.868-2.016zm-7.656 0l1.868 2.016-.589.541-1.279-1.381-1.28 1.382-.588-.543 1.868-2.015zm15.117 0l1.868 2.016-.589.541-1.279-1.381-1.28 1.382-.588-.543 1.868-2.015zm-157.646 0l1.868 2.015-.588.543-1.28-1.382-1.28 1.382-.589-.543 1.869-2.015zm37.76 0l1.867 2.015-.587.543-1.28-1.382-1.28 1.381-.588-.541 1.867-2.016zm90.014 0l1.868 2.015-.587.543-1.281-1.382-1.28 1.382-.588-.543 1.868-2.015zm-97.672 0l1.868 2.015-.588.543-1.28-1.382-1.28 1.382-.588-.543 1.868-2.015zm-22.445 0l1.868 2.015-.587.543-1.281-1.382-1.28 1.381-.587-.541 1.867-2.016zm7.69 0l1.869 2.015-.588.543-1.28-1.382-1.28 1.381-.588-.541 1.868-2.016zm100.908-3.775l1.868 2.016-.588.543-1.28-1.382-1.28 1.382-.588-.543 1.868-2.016zm-119.523 0l1.868 2.016-.587.543-1.281-1.382-1.28 1.381-.587-.541 1.867-2.017zm134.872 0l1.867 2.017-.588.541-1.28-1.381-1.28 1.382-.587-.543 1.868-2.016zm14.753 0l1.868 2.016-.587.543-1.281-1.382-1.28 1.382-.588-.543 1.868-2.016zm-7.097 0l1.869 2.016-.588.543-1.28-1.382-1.28 1.382-.589-.543 1.868-2.016zm22.214 0l1.868 2.016-.587.543-1.28-1.382-1.28 1.382-.589-.543 1.868-2.016zm-37.56 0l1.867 2.017-.589.541-1.279-1.381-1.28 1.382-.588-.543 1.868-2.016zm-97.08 0l1.868 2.016-.587.543-1.28-1.382-1.28 1.381-.588-.541 1.867-2.017zm14.754 0l1.868 2.016-.587.543-1.28-1.382-1.28 1.382-.589-.543 1.868-2.016zm-30.102 0l1.868 2.016-.587.543-1.281-1.382-1.28 1.382-.588-.543 1.868-2.016zm22.445 0l1.868 2.017-.588.541-1.28-1.381-1.28 1.382-.588-.543 1.868-2.016zm-44.86 0l1.868 2.016-.587.543-1.28-1.382-1.28 1.381-.588-.541 1.867-2.017zm14.758 0l1.867 2.017-.587.541-1.28-1.381-1.28 1.382-.588-.543 1.868-2.016zm150.186 0l1.868 2.017-.588.541-1.28-1.381-1.28 1.382-.588-.543 1.868-2.016zm-134.838 0l1.868 2.017-.588.541-1.28-1.381-1.28 1.382-.588-.543 1.868-2.016zm100.906-3.733l1.869 2.015-.588.543-1.28-1.382-1.28 1.382-.589-.543 1.868-2.015zm-82.324 0l1.868 2.015-.587.543-1.28-1.382-1.28 1.381-.588-.541 1.867-2.016zm-22.411 0l1.868 2.015-.588.543-1.28-1.382-1.28 1.381-.588-.541 1.868-2.016zm112.426 0l1.868 2.015-.587.543-1.281-1.382-1.28 1.382-.588-.543 1.868-2.015zm-120.117 0l1.868 2.015-.587.543-1.281-1.382-1.28 1.381-.587-.541 1.867-2.016zm127.775 0l1.868 2.015-.587.543-1.281-1.382-1.28 1.382-.588-.543 1.868-2.015zm22.214 0l1.868 2.016-.589.541-1.279-1.381-1.28 1.382-.588-.543 1.868-2.015zm-15.117 0l1.868 2.016-.589.541-1.279-1.381-1.28 1.382-.588-.543 1.868-2.015zm7.657 0l1.868 2.015-.588.543-1.28-1.382-1.28 1.381-.588-.541 1.868-2.016zm-37.76 0l1.868 2.016-.588.541-1.28-1.381-1.28 1.382-.587-.543 1.868-2.015zm-119.523 0l1.868 2.015-.587.543-1.281-1.382-1.28 1.381-.587-.541 1.867-2.016zm37.199 0l1.868 2.015-.588.543-1.28-1.382-1.28 1.382-.588-.543 1.868-2.015zm-7.097 0l1.868 2.015-.587.543-1.28-1.382-1.28 1.381-.588-.541 1.867-2.016zm-23.005 0l1.868 2.015-.588.543-1.28-1.382-1.28 1.382-.589-.543 1.869-2.015zm146.357-3.775l1.868 2.016-.587.543-1.281-1.382-1.28 1.382-.588-.543 1.868-2.016zm-30.102 0l1.868 2.016-.588.543-1.28-1.382-1.28 1.382-.588-.543 1.868-2.016zm45.22 0l1.867 2.016-.587.543-1.28-1.382-1.28 1.382-.589-.543 1.868-2.016zm-29.871 0l1.867 2.017-.588.541-1.28-1.381-1.28 1.382-.587-.543 1.868-2.016zm-97.673 0l1.868 2.017-.588.541-1.28-1.381-1.28 1.382-.588-.543 1.868-2.016zm-30.102 0l1.867 2.017-.587.541-1.28-1.381-1.28 1.382-.588-.543 1.868-2.016zm15.348 0l1.868 2.017-.588.541-1.28-1.381-1.28 1.382-.588-.543 1.868-2.016zm-22.445-.043l1.868 2.015-.587.543-1.281-1.382-1.28 1.381-.587-.541 1.867-2.016zm30.102 0l1.868 2.015-.587.543-1.28-1.382-1.28 1.381-.588-.541 1.867-2.016zm-37.763 0l1.868 2.015-.587.543-1.28-1.382-1.28 1.381-.588-.541 1.867-2.016zm134.842 0l1.868 2.016-.589.541-1.279-1.381-1.28 1.382-.588-.543 1.868-2.015zm15.347 0l1.869 2.015-.588.543-1.28-1.382-1.28 1.382-.589-.543 1.868-2.015zm-127.774 0l1.868 2.015-.587.543-1.281-1.382-1.28 1.382-.588-.543 1.868-2.015zm142.53 0l1.867 2.016-.588.541-1.28-1.381-1.28 1.382-.588-.543 1.868-2.015zm-161.113-3.438l1.868 2.016-.587.543-1.281-1.383-1.28 1.382-.587-.542 1.867-2.016zm157.283 0l1.868 2.016-.588.543-1.28-1.383-1.28 1.382-.588-.542 1.868-2.016zm-150.186 0l1.868 2.016-.588.543-1.28-1.383-1.28 1.383-.589-.543 1.869-2.016zm7.657 0l1.868 2.016-.587.543-1.281-1.383-1.28 1.382-.587-.542 1.867-2.016zm7.69 0l1.869 2.016-.588.543-1.28-1.383-1.28 1.382-.588-.542 1.868-2.016zm7.658 0l1.868 2.016-.587.543-1.28-1.383-1.28 1.382-.588-.542 1.867-2.016zm119.524 0l1.868 2.016-.589.542-1.279-1.382-1.28 1.383-.588-.543 1.868-2.016zm-7.097 0l1.868 2.016-.587.543-1.281-1.383-1.28 1.383-.588-.543 1.868-2.016zm22.214 0l1.868 2.016-.589.542-1.279-1.382-1.28 1.383-.588-.543 1.868-2.016zm-160.914-3.774l1.868 2.015-.587.543-1.281-1.382-1.28 1.382-.587-.542 1.867-2.016zm157.283 0l1.868 2.016-.588.542-1.28-1.382-1.28 1.382-.588-.543 1.868-2.015zm7.46 0l1.867 2.015-.587.543-1.28-1.382-1.28 1.382-.589-.543 1.868-2.015zm-172.404 0l1.868 2.015-.587.543-1.28-1.382-1.28 1.382-.588-.542 1.867-2.016zm14.758 0l1.867 2.016-.587.542-1.28-1.382-1.28 1.382-.588-.543 1.868-2.015zm131.603-10.945l1.868 2.016-.587.543-1.281-1.382-1.28 1.382-.588-.543 1.868-2.016zm-120.084 0l1.868 2.016-.588.543-1.28-1.382-1.28 1.381-.588-.541 1.868-2.017zm168.538-3.774l1.868 2.015-.588.543-1.28-1.382-1.28 1.382-.588-.543 1.868-2.015zm-22.412 0l1.868 2.015-.587.543-1.28-1.382-1.28 1.382-.589-.543 1.868-2.015zm14.754 0l1.868 2.015-.587.543-1.281-1.382-1.28 1.382-.587-.542 1.867-2.016zm-201.91 0l1.867 2.015-.587.543-1.28-1.382-1.28 1.382-.588-.542 1.867-2.016zm179.697 0l1.868 2.016-.588.542-1.28-1.382-1.28 1.382-.588-.543 1.868-2.015zm-150.186 0l1.867 2.016-.587.542-1.28-1.382-1.28 1.382-.588-.543 1.868-2.015zm-37.17 0l1.869 2.015-.588.543-1.28-1.382-1.28 1.382-.588-.543 1.868-2.015zm179.698 0l1.868 2.015-.587.543-1.281-1.382-1.28 1.382-.588-.543 1.868-2.015zm22.776 0l1.867 2.016-.588.542-1.28-1.382-1.28 1.382-.587-.543 1.868-2.015zm-180.062 0l1.868 2.015-.587.543-1.28-1.382-1.28 1.382-.588-.542 1.867-2.016zm7.66 0l1.869 2.015-.587.543-1.281-1.382-1.28 1.382-.587-.542 1.867-2.016zm-15.317 0l1.868 2.015-.588.543-1.28-1.382-1.28 1.382-.588-.543 1.868-2.015zm37.763 0l1.868 2.016-.588.542-1.28-1.382-1.28 1.382-.588-.543 1.868-2.015zm120.083 0l1.869 2.015-.588.543-1.28-1.382-1.28 1.382-.589-.543 1.868-2.015zm-127.774 0l1.868 2.015-.587.543-1.281-1.382-1.28 1.382-.588-.543 1.868-2.015zm123.946-3.734l1.868 2.016-.587.543-1.281-1.382-1.28 1.382-.588-.543 1.868-2.016zm44.625 0l1.868 2.016-.587.543-1.28-1.382-1.28 1.382-.589-.543 1.868-2.016zm-187.154 0l1.868 2.016-.587.543-1.281-1.382-1.28 1.381-.587-.541 1.867-2.017zm149.626 0l1.868 2.017-.589.541-1.279-1.381-1.28 1.382-.588-.543 1.868-2.016zm22.774 0l1.868 2.016-.588.543-1.28-1.382-1.28 1.382-.588-.543 1.868-2.016zm-149.955 0l1.868 2.016-.588.543-1.28-1.382-1.28 1.381-.588-.541 1.868-2.017zm-52.517 0l1.868 2.016-.588.543-1.28-1.382-1.28 1.381-.588-.541 1.868-2.017zm44.826 0l1.868 2.016-.587.543-1.281-1.382-1.28 1.381-.587-.541 1.867-2.017zm149.99 0l1.867 2.017-.589.541-1.279-1.381-1.28 1.382-.588-.543 1.868-2.016zm14.752 0l1.868 2.016-.587.543-1.28-1.382-1.28 1.382-.589-.543 1.868-2.016zm15.35 0l1.867 2.017-.588.541-1.28-1.381-1.28 1.382-.588-.543 1.869-2.016zm-202.506 0l1.868 2.017-.588.541-1.28-1.381-1.28 1.382-.588-.543 1.868-2.016zm37.762 0l1.868 2.016-.587.543-1.28-1.382-1.28 1.381-.588-.541 1.867-2.017zm-52.516 0l1.868 2.017-.588.541-1.28-1.381-1.28 1.382-.588-.543 1.868-2.016zm7.096 0l1.868 2.016-.587.543-1.281-1.382-1.28 1.381-.587-.541 1.867-2.017zm172.6 0l1.869 2.016-.588.543-1.28-1.382-1.28 1.381-.588-.541 1.868-2.017zm-150.185 0l1.868 2.016-.588.543-1.28-1.382-1.28 1.382-.589-.543 1.869-2.016zm176.228-3.774l1.868 2.015-.587.543-1.281-1.382-1.28 1.382-.587-.542 1.867-2.016zm-157.05 0l1.867 2.016-.588.542-1.28-1.382-1.28 1.382-.588-.543 1.868-2.015zm-15.349 0l1.867 2.016-.587.542-1.28-1.382-1.28 1.382-.588-.543 1.868-2.015zm127.775 0l1.867 2.016-.588.542-1.28-1.382-1.28 1.382-.587-.543 1.868-2.015zm14.753 0l1.868 2.015-.587.543-1.281-1.382-1.28 1.382-.588-.543 1.868-2.015zm-179.697 0l1.868 2.015-.588.543-1.28-1.382-1.28 1.382-.588-.543 1.868-2.015zm14.754 0l1.868 2.015-.588.543-1.28-1.382-1.28 1.382-.588-.543 1.868-2.015zm180.06 0l1.868 2.015-.587.543-1.28-1.382-1.28 1.382-.589-.543 1.868-2.015zm-172.403-.044l1.868 2.016-.587.543-1.28-1.382-1.28 1.381-.588-.541 1.867-2.017zm7.66 0l1.869 2.016-.587.543-1.281-1.382-1.28 1.381-.587-.541 1.867-2.017zm187.155 0l1.868 2.016-.588.543-1.28-1.382-1.28 1.382-.588-.543 1.868-2.016zm-172.4 0l1.868 2.016-.587.543-1.281-1.382-1.28 1.382-.588-.543 1.868-2.016zm142.53 0l1.867 2.017-.588.541-1.28-1.381-1.28 1.382-.588-.543 1.868-2.016zm-14.756 0l1.869 2.016-.588.543-1.28-1.382-1.28 1.382-.589-.543 1.868-2.016zm-112.426 0l1.868 2.016-.587.543-1.28-1.382-1.28 1.381-.588-.541 1.867-2.017zm-52.517 0l1.868 2.016-.587.543-1.28-1.382-1.28 1.381-.588-.541 1.867-2.017zm194.816 0l1.867 2.017-.588.541-1.28-1.381-1.28 1.382-.587-.543 1.868-2.016zm-183.89-3.436l1.868 2.014-.588.543-1.28-1.381-1.28 1.381-.588-.543 1.868-2.014zm180.06 0L315.78 136l-.588.543-1.28-1.381-1.28 1.381-.588-.543 1.868-2.014zm-29.871 0L285.91 136l-.587.543-1.281-1.381-1.28 1.381-.588-.543 1.868-2.014zm7.097 0l1.868 2.014-.589.543-1.279-1.381-1.28 1.381-.588-.543 1.868-2.014zm37.528 0l1.868 2.014-.587.543-1.28-1.381-1.28 1.381-.589-.543 1.868-2.014zm-202.472 0l1.868 2.014-.587.543-1.281-1.381-1.28 1.381-.587-.543 1.867-2.014zm-7.096 0l1.868 2.014-.588.543-1.28-1.381-1.28 1.381-.588-.543 1.868-2.014zm179.697 0l1.868 2.014-.588.543-1.28-1.381-1.28 1.381-.588-.543 1.868-2.014zm22.213 0l1.868 2.014-.587.543-1.28-1.381-1.28 1.381-.589-.543 1.868-2.014zm15.35 0l1.867 2.014-.588.543-1.28-1.381-1.28 1.381-.588-.543 1.869-2.014zm-30.103 0l1.868 2.014-.589.543-1.279-1.381-1.28 1.381-.588-.543 1.868-2.014zm-29.872 0l1.868 2.014-.587.543-1.281-1.381-1.28 1.381-.588-.543 1.868-2.014zm-134.871 0L143.38 136l-.587.543-1.281-1.381-1.28 1.381-.587-.543 1.867-2.014zm-30.072 0l1.868 2.014-.588.543-1.28-1.381-1.28 1.381-.588-.543 1.868-2.014zm37.169 0l1.868 2.014-.588.543-1.28-1.381-1.28 1.381-.589-.543 1.869-2.014zm7.657 0l1.868 2.014-.587.543-1.281-1.381-1.28 1.381-.587-.543 1.867-2.014zm7.69 0l1.869 2.014-.588.543-1.28-1.381-1.28 1.381-.588-.543 1.868-2.014zm7.658 0l1.868 2.014-.587.543-1.28-1.381-1.28 1.381-.588-.543 1.867-2.014zm7.097 0L180.58 136l-.588.543-1.28-1.381-1.28 1.381-.588-.543 1.868-2.014zm-33.37-3.775l1.868 2.015-.587.543-1.281-1.382-1.28 1.381-.587-.541 1.867-2.016zm37.2 0l1.867 2.016-.588.541-1.28-1.381-1.28 1.382-.588-.543 1.868-2.015zm-22.446 0l1.868 2.015-.587.543-1.281-1.382-1.28 1.382-.588-.543 1.868-2.015zm-44.826 0l1.868 2.015-.588.543-1.28-1.382-1.28 1.382-.588-.543 1.868-2.015zm60.174 0l1.868 2.015-.587.543-1.28-1.382-1.28 1.381-.588-.541 1.867-2.016zm-45.42 0l1.868 2.015-.588.543-1.28-1.382-1.28 1.382-.588-.543 1.868-2.015zm157.846 0l1.869 2.015-.588.543-1.28-1.382-1.28 1.382-.589-.543 1.868-2.015zm-7.656 0l1.867 2.016-.588.541-1.28-1.381-1.28 1.382-.587-.543 1.868-2.015zm44.624 0l1.868 2.015-.587.543-1.281-1.382-1.28 1.381-.587-.541 1.867-2.016zm7.658 0l1.868 2.015-.588.543-1.28-1.382-1.28 1.382-.588-.543 1.868-2.015zm-22.412 0l1.868 2.015-.587.543-1.28-1.382-1.28 1.382-.589-.543 1.868-2.015zm-172.403 0l1.868 2.015-.587.543-1.28-1.382-1.28 1.381-.588-.541 1.867-2.016zm164.944 0l1.868 2.016-.588.541-1.28-1.381-1.28 1.382-.588-.543 1.868-2.015zm15.118 0l1.867 2.016-.588.541-1.28-1.381-1.28 1.382-.587-.543 1.868-2.015zm-45.22 0l1.868 2.016-.589.541-1.279-1.381-1.28 1.382-.588-.543 1.868-2.015zm-104.736 0l1.868 2.016-.588.541-1.28-1.381-1.28 1.382-.588-.543 1.868-2.015zm-44.86 0l1.868 2.015-.587.543-1.28-1.382-1.28 1.381-.588-.541 1.867-2.016zm29.512 0l1.867 2.016-.587.541-1.28-1.381-1.28 1.382-.588-.543 1.868-2.015zm142.528 0l1.868 2.015-.587.543-1.281-1.382-1.28 1.382-.588-.543 1.868-2.015zm-131.01-3.733l1.869 2.015-.588.543-1.28-1.382-1.28 1.381-.588-.541 1.868-2.016zm104.736 0l1.869 2.015-.588.543-1.28-1.382-1.28 1.382-.589-.543 1.868-2.015zm7.691 0l1.868 2.015-.587.543-1.281-1.382-1.28 1.382-.588-.543 1.868-2.015zm-142.53 0l1.867 2.016-.588.541-1.28-1.381-1.28 1.382-.588-.543 1.868-2.015zm187.155 0l1.868 2.015-.587.543-1.28-1.382-1.28 1.382-.589-.543 1.868-2.015zm-36.967 0l1.868 2.015-.587.543-1.281-1.382-1.28 1.382-.588-.543 1.868-2.015zm-105.33 0l1.868 2.015-.588.543-1.28-1.382-1.28 1.382-.588-.543 1.868-2.015zm120.084 0l1.868 2.015-.588.543-1.28-1.382-1.28 1.381-.588-.541 1.868-2.016zm-157.283 0l1.868 2.015-.587.543-1.281-1.382-1.28 1.381-.587-.541 1.867-2.016zm7.097 0l1.868 2.015-.588.543-1.28-1.382-1.28 1.382-.589-.543 1.869-2.015zm180.057 0l1.868 2.015-.587.543-1.28-1.382-1.28 1.382-.589-.543 1.868-2.015zm-22.41 0l1.867 2.016-.589.541-1.279-1.381-1.28 1.382-.588-.543 1.868-2.015zm-149.99 0l1.868 2.015-.587.543-1.281-1.382-1.28 1.381-.587-.541 1.867-2.016zm-44.826 0l1.868 2.015-.588.543-1.28-1.382-1.28 1.381-.588-.541 1.868-2.016zm179.698 0l1.868 2.016-.589.541-1.279-1.381-1.28 1.382-.588-.543 1.868-2.015zm-164.944 0l1.868 2.015-.587.543-1.281-1.382-1.28 1.381-.587-.541 1.867-2.016zm187.718 0l1.868 2.015-.588.543-1.28-1.382-1.28 1.382-.588-.543 1.868-2.015zm-142.298 0l1.868 2.015-.587.543-1.28-1.382-1.28 1.381-.588-.541 1.867-2.016zm-52.516 0l1.868 2.016-.588.541-1.28-1.381-1.28 1.382-.588-.543 1.868-2.015zm217.26 0l1.867 2.016-.588.541-1.28-1.381-1.28 1.382-.588-.543 1.869-2.015zm-33.734-3.775l1.868 2.015-.588.543-1.28-1.381-1.28 1.381-.588-.543 1.868-2.015zm-187.355 0l1.868 2.015-.588.543-1.28-1.381-1.28 1.381-.588-.543 1.868-2.015zm14.754 0l1.868 2.015-.588.543-1.28-1.381-1.28 1.381-.588-.543 1.868-2.015zm22.415 0l1.867 2.015-.587.543-1.28-1.381-1.28 1.381-.588-.543 1.868-2.015zm165.304 0l1.867 2.015-.588.543-1.28-1.381-1.28 1.381-.587-.543 1.868-2.015zm-194.816 0l1.868 2.015-.587.543-1.28-1.381-1.28 1.381-.588-.543 1.867-2.015zm14.754 0l1.868 2.015-.587.543-1.28-1.381-1.28 1.381-.588-.543 1.867-2.015zm150.19 0l1.868 2.015-.588.543-1.28-1.381-1.28 1.381-.589-.543 1.868-2.015zm44.625 0l1.868 2.015-.588.543-1.28-1.381-1.28 1.381-.588-.543 1.868-2.015zm-37.529 0l1.868 2.015-.587.543-1.281-1.381-1.28 1.381-.588-.543 1.868-2.015zm15.117 0l1.868 2.015-.587.543-1.28-1.381-1.28 1.381-.589-.543 1.868-2.015zm-142.297 0l1.868 2.015-.588.543-1.28-1.381-1.28 1.381-.588-.543 1.868-2.015zm157.05 0l1.869 2.015-.587.543-1.281-1.381-1.28 1.381-.587-.543 1.867-2.015zm-179.495 0l1.868 2.015-.587.543-1.281-1.381-1.28 1.381-.587-.543 1.867-2.015zm14.754 0l1.868 2.015-.587.543-1.281-1.381-1.28 1.381-.588-.543 1.868-2.015zm-11.486-3.437l1.868 2.015-.588.543-1.28-1.382-1.28 1.382-.589-.543 1.869-2.015zm172.4 0l1.867 2.015-.587.543-1.28-1.382-1.28 1.382-.589-.543 1.868-2.015zm-179.497 0l1.868 2.015-.587.543-1.281-1.382-1.28 1.382-.587-.542 1.867-2.016zm-15.318 0l1.868 2.015-.587.543-1.281-1.382-1.28 1.382-.587-.542 1.867-2.016zm187.718 0l1.868 2.015-.588.543-1.28-1.382-1.28 1.382-.588-.543 1.868-2.015zm-202.472 0l1.868 2.015-.588.543-1.28-1.382-1.28 1.382-.588-.542 1.868-2.016zm7.658 0l1.868 2.016-.588.542-1.28-1.382-1.28 1.382-.588-.543 1.868-2.015zm179.697 0l1.868 2.015-.588.543-1.28-1.382-1.28 1.382-.588-.542 1.868-2.016zm-164.943 0l1.868 2.016-.588.542-1.28-1.382-1.28 1.382-.588-.543 1.868-2.015zm194.814 0l1.868 2.015-.587.543-1.28-1.382-1.28 1.382-.589-.543 1.868-2.015zm-22.41 0l1.867 2.016-.589.542-1.279-1.382-1.28 1.382-.588-.543 1.868-2.015zm30.102 0l1.867 2.016-.588.542-1.28-1.382-1.28 1.382-.588-.543 1.869-2.015zm-206.335-3.774l1.868 2.015-.588.543-1.28-1.382-1.28 1.382-.588-.543 1.868-2.015zm187.719 0l1.867 2.016-.588.541-1.28-1.381-1.28 1.382-.587-.543 1.868-2.015zm7.095 0l1.868 2.015-.587.543-1.281-1.382-1.28 1.381-.587-.541 1.867-2.016zm7.658 0l1.868 2.015-.588.543-1.28-1.382-1.28 1.382-.588-.543 1.868-2.015zm-209.569 0l1.868 2.015-.587.543-1.28-1.382-1.28 1.381-.588-.541 1.867-2.016zm-7.657 0l1.868 2.015-.588.543-1.28-1.382-1.28 1.382-.588-.543 1.868-2.015zm3.83-3.716l1.867 2.017-.588.541-1.28-1.381-1.28 1.382-.588-.543 1.868-2.016zm217.259 0l1.867 2.017-.588.541-1.28-1.381-1.28 1.382-.588-.543 1.869-2.016zm-224.918 0l1.868 2.016-.588.543-1.28-1.382-1.28 1.381-.588-.541 1.868-2.017zm209.863.298l1.573 1.7-.587.542-1.574-1.699.588-.543zM99.922 100.79l1.868 2.017-.588.542-1.28-1.382-1.28 1.382-.588-.542 1.868-2.017zm-7.097 0l1.868 2.017-.587.542-1.281-1.382-1.28 1.382-.587-.542 1.867-2.017zm239.67 0l1.869 2.017-.588.542-1.28-1.382-1.28 1.382-.588-.542 1.868-2.017zm-14.752 0l1.867 2.017-.588.542-1.28-1.382-1.28 1.382-.587-.542 1.868-2.017zm52.517 0l1.867 2.017-.588.542-1.28-1.382-1.28 1.382-.588-.542 1.869-2.017zm-314.964 0l1.868 2.017-.587.542-1.28-1.382-1.28 1.382-.588-.542 1.867-2.017zm74.728 0l1.868 2.017-.588.542-1.28-1.382-1.28 1.382-.588-.542 1.868-2.017zm262.68 0l1.867 2.017-.587.542-1.28-1.382-1.28 1.382-.589-.542 1.868-2.017zm-322.654 0l1.869 2.017-.588.542-1.28-1.382-1.28 1.382-.589-.542 1.868-2.017zm15.118 0l1.868 2.017-.588.542-1.28-1.382-1.28 1.382-.589-.542 1.869-2.017zm277.43 0l1.868 2.017-.587.542-1.281-1.382-1.28 1.382-.588-.542 1.868-2.017zm-247.328 0l1.868 2.017-.588.542-1.28-1.382-1.28 1.382-.588-.542 1.868-2.017zm239.67 0l1.868 2.017-.587.542-1.28-1.382-1.28 1.382-.588-.542 1.867-2.017zm-291.986 0l1.868 2.017-.588.542-1.28-1.382-1.28 1.382-.588-.542 1.868-2.017zm284.89 0l1.868 2.017-.588.542-1.28-1.382-1.28 1.382-.587-.542 1.868-2.017zm-7.658 0l1.869 2.017-.588.542-1.28-1.382-1.28 1.382-.589-.542 1.868-2.017zm44.827 0l1.868 2.017-.588.542-1.28-1.382-1.28 1.382-.589-.542 1.869-2.017zm-7.658 0l1.868 2.017-.588.542-1.28-1.382-1.28 1.382-.588-.542 1.868-2.017zm-52.517 0l1.868 2.017-.587.542-1.281-1.382-1.28 1.382-.587-.542 1.867-2.017zm-247.13 0l1.868 2.017-.588.542-1.28-1.382-1.28 1.382-.588-.542 1.868-2.017zm29.871 0l1.868 2.017-.587.542-1.28-1.382-1.28 1.382-.588-.542 1.867-2.017zm15.348 0l1.868 2.017-.587.542-1.28-1.382-1.28 1.382-.588-.542 1.867-2.017zm-26.834-3.733l1.868 2.016-.588.542-1.28-1.381-1.28 1.381-.588-.542 1.868-2.016zm-29.872 0l1.869 2.016-.588.542-1.28-1.381-1.28 1.381-.588-.542 1.867-2.016zm270.138 0l1.867 2.016-.588.542-1.28-1.381-1.28 1.381-.588-.542 1.869-2.016zm60.173 0l1.868 2.016-.588.542-1.28-1.381-1.28 1.381-.588-.542 1.868-2.016zm-23.006 0l1.868 2.016-.587.542-1.28-1.381-1.28 1.381-.589-.542 1.868-2.016zm-269.775 0l1.868 2.016-.588.542-1.28-1.381-1.28 1.381-.588-.542 1.868-2.016zm285.124 0l1.868 2.016-.589.542-1.279-1.381-1.28 1.381-.588-.542 1.868-2.016zm-44.86 0l1.868 2.016-.587.542-1.281-1.381-1.28 1.381-.588-.542 1.868-2.016zm-210.162 0l1.868 2.016-.588.542-1.28-1.381-1.28 1.381-.588-.542 1.868-2.016zm-52.514 0l1.868 2.016-.588.542-1.28-1.381-1.28 1.381-.588-.542 1.868-2.016zm-29.872 0l1.869 2.016-.588.542-1.28-1.381-1.28 1.381-.588-.542 1.867-2.016zm277.2 0l1.868 2.016-.587.542-1.28-1.381-1.28 1.381-.589-.542 1.868-2.016zm-217.226 0l1.868 2.016-.588.542-1.28-1.381-1.28 1.381-.588-.542 1.868-2.016zm269.744 0l1.867 2.016-.588.542-1.28-1.381-1.28 1.381-.587-.542 1.868-2.016zm-307.305 0l1.867 2.016-.587.542-1.28-1.381-1.28 1.381-.588-.542 1.868-2.016zm45.22 0l1.867 2.016-.588.542-1.28-1.381-1.28 1.381-.588-.542 1.868-2.016zm201.91 0l1.867 2.016-.587.542-1.28-1.381-1.28 1.381-.589-.542 1.868-2.016zm37.76 0l1.868 2.016-.588.542-1.28-1.381-1.28 1.381-.589-.542 1.868-2.016zm-232.575 0l1.868 2.016-.587.542-1.281-1.381-1.28 1.381-.587-.542 1.867-2.016zm187.718 0l1.868 2.016-.588.542-1.28-1.381-1.28 1.381-.588-.542 1.868-2.016zm37.199 0l1.868 2.016-.588.542-1.28-1.381-1.28 1.381-.589-.542 1.869-2.016zm-291.986 0l1.867 2.016-.587.542-1.28-1.381-1.28 1.381-.588-.542 1.868-2.016zm307.304 0l1.868 2.016-.588.542-1.28-1.381-1.28 1.381-.589-.542 1.869-2.016zm-277.433 0l1.867 2.016-.587.542-1.28-1.381-1.28 1.381-.588-.542 1.868-2.016zm221.087-3.774l1.868 2.016-.587.542-1.28-1.382-1.28 1.382-.589-.542 1.868-2.016zm22.412 0l1.868 2.016-.588.542-1.28-1.382-1.28 1.382-.588-.542 1.868-2.016zm60.207 0l1.868 2.016-.587.542-1.28-1.382-1.28 1.382-.589-.542 1.868-2.016zm-269.776 0l1.868 2.016-.587.542-1.28-1.382-1.28 1.382-.588-.542 1.867-2.017zm14.754 0l1.868 2.016-.587.542-1.28-1.382-1.28 1.382-.588-.542 1.867-2.017zm232.579 0l1.867 2.016-.588.542-1.28-1.382-1.28 1.382-.588-.542 1.869-2.017zm-45.422 0l1.868 2.016-.587.542-1.281-1.382-1.28 1.382-.587-.542 1.867-2.017zm-194.814 0l1.868 2.016-.588.542-1.28-1.382-1.28 1.382-.588-.542 1.868-2.016zm224.916 0l1.868 2.016-.587.542-1.28-1.382-1.28 1.382-.588-.542 1.867-2.017zm-247.36 0l1.867 2.016-.587.542-1.28-1.382-1.28 1.382-.588-.542 1.867-2.017zm232.606 0l1.869 2.016-.588.542-1.28-1.382-1.28 1.382-.589-.542 1.868-2.016zm-22.443 0l1.867 2.016-.588.542-1.28-1.382-1.28 1.382-.587-.542 1.868-2.017zm30.102 0l1.867 2.016-.588.542-1.28-1.382-1.28 1.382-.587-.542 1.868-2.017zm-247.923 0l1.868 2.016-.588.542-1.28-1.382-1.28 1.382-.588-.542 1.868-2.017zm-7.097 0l1.868 2.016-.587.542-1.281-1.382-1.28 1.382-.587-.542 1.867-2.017zm284.53 0l1.868 2.016-.588.542-1.28-1.382-1.28 1.382-.588-.542 1.868-2.017zm-322.059 0l1.868 2.016-.587.542-1.28-1.382-1.28 1.382-.588-.542 1.867-2.017zm22.412 0l1.868 2.016-.588.542-1.28-1.382-1.28 1.382-.588-.542 1.868-2.017zm7.46 0l1.868 2.016-.588.542-1.28-1.382-1.28 1.382-.589-.542 1.869-2.016zm277.43 0l1.868 2.016-.587.542-1.281-1.382-1.28 1.382-.588-.542 1.868-2.016zm22.415 0l1.868 2.016-.588.542-1.28-1.382-1.28 1.382-.589-.542 1.869-2.016zm-322.06 0l1.869 2.016-.588.542-1.28-1.382-1.28 1.382-.588-.542 1.868-2.017zm52.317 0l1.868 2.016-.588.542-1.28-1.382-1.28 1.382-.588-.542 1.868-2.016zm-45.22 0l1.869 2.016-.588.542-1.28-1.382-1.28 1.382-.589-.542 1.868-2.016zm288.72-3.437l1.868 2.016-.588.542-1.28-1.382-1.28 1.382-.589-.542 1.868-2.016zm-239.67 0l1.867 2.016-.588.542-1.28-1.382-1.28 1.382-.588-.542 1.868-2.017zm209.567 0l1.868 2.016-.587.542-1.28-1.382-1.28 1.382-.589-.542 1.868-2.016zm15.348 0l1.868 2.016-.587.542-1.281-1.382-1.28 1.382-.588-.542 1.868-2.016zm-240.264 0l1.868 2.016-.588.542-1.28-1.382-1.28 1.382-.588-.542 1.868-2.017zm202.505 0l1.868 2.016-.589.542-1.279-1.382-1.28 1.382-.588-.542 1.868-2.017zm7.657 0l1.868 2.016-.588.542-1.28-1.382-1.28 1.382-.588-.542 1.868-2.016zm-232.574 0l1.868 2.016-.588.542-1.28-1.382-1.28 1.382-.588-.542 1.868-2.017zm315.193 0l1.868 2.016-.588.542-1.28-1.382-1.28 1.382-.588-.542 1.868-2.016zm-15.347 0l1.867 2.016-.588.542-1.28-1.382-1.28 1.382-.587-.542 1.868-2.017zm-247.332 0l1.868 2.016-.588.542-1.28-1.382-1.28 1.382-.588-.542 1.868-2.017zm202.506 0l1.867 2.016-.588.542-1.28-1.382-1.28 1.382-.588-.542 1.869-2.017zm-277.233 0l1.867 2.016-.587.542-1.28-1.382-1.28 1.382-.588-.542 1.868-2.017zm314.4 0l1.868 2.016-.587.542-1.28-1.382-1.28 1.382-.589-.542 1.868-2.016zm-277.433 0l1.868 2.016-.588.542-1.28-1.382-1.28 1.382-.588-.542 1.868-2.017zm255.019 0l1.868 2.016-.588.542-1.28-1.382-1.28 1.382-.589-.542 1.869-2.016zm-277.232 0l1.867 2.016-.587.542-1.28-1.382-1.28 1.382-.588-.542 1.868-2.017zm-7.659 0l1.869 2.016-.588.542-1.28-1.382-1.28 1.382-.588-.542 1.867-2.017zm59.974 0l1.868 2.016-.587.542-1.281-1.382-1.28 1.382-.587-.542 1.867-2.017zm15.318 0l1.868 2.016-.587.542-1.281-1.382-1.28 1.382-.587-.542 1.867-2.017zm-30.072 0l1.868 2.016-.588.542-1.28-1.382-1.28 1.382-.588-.542 1.868-2.017zm254.989 0l1.868 2.016-.588.542-1.28-1.382-1.28 1.382-.589-.542 1.869-2.016zm-45.42 0l1.867 2.016-.587.542-1.28-1.382-1.28 1.382-.589-.542 1.868-2.016zm67.865 0l1.868 2.016-.589.542-1.279-1.382-1.28 1.382-.588-.542 1.868-2.017zm-299.878 0l1.867 2.016-.587.542-1.28-1.382-1.28 1.382-.588-.542 1.868-2.017zm-37.53 0l1.869 2.016-.588.542-1.28-1.382-1.28 1.382-.588-.542 1.867-2.017zm78.557-3.775l1.868 2.016-.588.542-1.28-1.381-1.28 1.381-.588-.542 1.868-2.016zm15.318 0l1.868 2.016-.587.542-1.281-1.381-1.28 1.381-.587-.542 1.867-2.016zm194.844 0l1.869 2.016-.588.542-1.28-1.381-1.28 1.381-.589-.542 1.868-2.016zm-15.348 0l1.868 2.016-.587.542-1.281-1.381-1.28 1.381-.587-.542 1.867-2.016zm-201.91 0l1.867 2.016-.587.542-1.28-1.381-1.28 1.381-.588-.542 1.867-2.016zm194.815 0l1.867 2.016-.588.542-1.28-1.381-1.28 1.381-.587-.542 1.868-2.016zm-217.82 0l1.867 2.016-.588.542-1.28-1.381-1.28 1.381-.588-.542 1.868-2.016zm-14.755 0l1.868 2.016-.588.542-1.28-1.381-1.28 1.381-.589-.542 1.869-2.016zm224.916 0l1.868 2.016-.587.542-1.28-1.381-1.28 1.381-.589-.542 1.868-2.016zm52.514 0l1.868 2.016-.587.542-1.281-1.381-1.28 1.381-.588-.542 1.868-2.016zm-284.89 0l1.868 2.016-.588.542-1.28-1.381-1.28 1.381-.588-.542 1.868-2.016zm59.973 0l1.868 2.016-.587.542-1.28-1.381-1.28 1.381-.588-.542 1.867-2.016zm217.26 0l1.867 2.016-.587.542-1.28-1.381-1.28 1.381-.588-.542 1.867-2.016zm-52.316 0l1.868 2.016-.588.542-1.28-1.381-1.28 1.381-.588-.542 1.868-2.016zm45.22 0l1.867 2.016-.588.542-1.28-1.381-1.28 1.381-.587-.542 1.868-2.016zm-232.575 0l1.868 2.016-.588.542-1.28-1.381-1.28 1.381-.588-.542 1.868-2.016zm-59.974 0l1.868 2.016-.587.542-1.28-1.381-1.28 1.381-.588-.542 1.867-2.016zm337.407 0l1.868 2.016-.587.542-1.28-1.381-1.28 1.381-.589-.542 1.868-2.016zm-285.124 0l1.868 2.016-.587.542-1.28-1.381-1.28 1.381-.588-.542 1.867-2.016zm224.917 0l1.868 2.016-.588.542-1.28-1.381-1.28 1.381-.588-.542 1.868-2.016zm-239.671 0l1.868 2.016-.587.542-1.281-1.381-1.28 1.381-.587-.542 1.867-2.016zm292.188 0l1.868 2.016-.588.542-1.28-1.381-1.28 1.381-.589-.542 1.869-2.016zm-314.963 0l1.869 2.016-.588.542-1.28-1.381-1.28 1.381-.589-.542 1.868-2.016zm-7.096 0l1.868 2.016-.588.542-1.28-1.381-1.28 1.381-.588-.542 1.868-2.016zm307.306 0l1.867 2.016-.588.542-1.28-1.381-1.28 1.381-.588-.542 1.869-2.016zm7.095 0l1.868 2.016-.588.542-1.28-1.381-1.28 1.381-.588-.542 1.868-2.016zm-258.256-3.733l1.868 2.016-.588.542-1.28-1.381-1.28 1.381-.588-.542 1.868-2.016zm201.91 0l1.868 2.016-.587.542-1.28-1.381-1.28 1.381-.589-.542 1.868-2.016zm23.006 0l1.868 2.016-.587.542-1.281-1.381-1.28 1.381-.588-.542 1.868-2.016zm-7.656 0l1.867 2.016-.588.542-1.28-1.381-1.28 1.381-.588-.542 1.869-2.016zm22.41 0l1.869 2.016-.588.542-1.28-1.381-1.28 1.381-.589-.542 1.868-2.016zm-217.256 0l1.868 2.016-.587.542-1.281-1.381-1.28 1.381-.587-.542 1.867-2.016zm-60.174 0l1.868 2.016-.588.542-1.28-1.381-1.28 1.381-.588-.542 1.868-2.016zm315.193 0l1.868 2.016-.588.542-1.28-1.381-1.28 1.381-.588-.542 1.868-2.016zm-7.657 0l1.868 2.016-.589.542-1.279-1.381-1.28 1.381-.588-.542 1.868-2.016zm-292.782 0l1.868 2.016-.588.542-1.28-1.381-1.28 1.381-.588-.542 1.868-2.016zm52.517 0l1.868 2.016-.588.542-1.28-1.381-1.28 1.381-.589-.542 1.869-2.016zm180.057 0l1.868 2.016-.587.542-1.28-1.381-1.28 1.381-.589-.542 1.868-2.016zm37.763 0l1.868 2.016-.588.542-1.28-1.381-1.28 1.381-.589-.542 1.869-2.016zm-240.235 0l1.868 2.016-.587.542-1.281-1.381-1.28 1.381-.587-.542 1.867-2.016zm-22.444 0l1.868 2.016-.588.542-1.28-1.381-1.28 1.381-.588-.542 1.868-2.016zm269.775 0l1.868 2.016-.587.542-1.28-1.381-1.28 1.381-.589-.542 1.868-2.016zm-322.059 0l1.869 2.016-.588.542-1.28-1.381-1.28 1.381-.588-.542 1.867-2.016zm82.386 0l1.868 2.016-.588.542-1.28-1.381-1.28 1.381-.588-.542 1.868-2.016zm180.06 0l1.868 2.016-.588.542-1.28-1.381-1.28 1.381-.588-.542 1.868-2.016zm-202.472 0l1.868 2.016-.588.542-1.28-1.381-1.28 1.381-.588-.542 1.868-2.016zm187.355 0l1.868 2.016-.588.542-1.28-1.381-1.28 1.381-.588-.542 1.868-2.016zm-232.575 0l1.869 2.016-.588.542-1.28-1.381-1.28 1.381-.588-.542 1.867-2.016zm22.776 0l1.867 2.016-.587.542-1.28-1.381-1.28 1.381-.588-.542 1.868-2.016zm-29.871 0l1.867 2.016-.587.542-1.28-1.381-1.28 1.381-.588-.542 1.868-2.016zm291.986 0l1.868 2.016-.588.542-1.28-1.381-1.28 1.381-.589-.542 1.869-2.016zm-277.232 0l1.867 2.016-.587.542-1.28-1.381-1.28 1.381-.588-.542 1.868-2.016zm232.376 0l1.868 2.016-.589.542-1.279-1.381-1.28 1.381-.588-.542 1.868-2.016zm74.929 0l1.867 2.016-.588.542-1.28-1.381-1.28 1.381-.587-.542 1.868-2.016zM115.27 78.564l1.868 2.015-.588.542-1.28-1.381-1.28 1.381-.588-.542 1.868-2.015zm-15.348-.001l1.868 2.016-.588.542-1.28-1.381-1.28 1.381-.588-.542 1.868-2.016zm52.517 0l1.867 2.016-.587.542-1.28-1.381-1.28 1.381-.588-.542 1.868-2.016zm172.399 0l1.868 2.016-.587.542-1.281-1.381-1.28 1.381-.587-.542 1.867-2.016zm-14.754 0l1.868 2.016-.587.542-1.28-1.381-1.28 1.381-.589-.542 1.868-2.015zm44.856 0l1.868 2.016-.587.542-1.28-1.381-1.28 1.381-.588-.542 1.867-2.016zm37.763 0l1.868 2.016-.587.542-1.28-1.381-1.28 1.381-.589-.542 1.868-2.015zm-262.68 0l1.869 2.016-.588.542-1.28-1.381-1.28 1.381-.588-.542 1.868-2.015zm164.944 0l1.868 2.016-.587.542-1.281-1.381-1.28 1.381-.588-.542 1.868-2.015zm-224.917 0l1.869 2.016-.588.542-1.28-1.381-1.28 1.381-.589-.542 1.868-2.015zm-14.754 0l1.868 2.016-.587.542-1.28-1.381-1.28 1.381-.588-.542 1.867-2.016zm322.059 0l1.868 2.016-.588.542-1.28-1.381-1.28 1.381-.588-.542 1.868-2.016zm-292.187 0l1.868 2.016-.588.542-1.28-1.381-1.28 1.381-.589-.542 1.869-2.015zm255.018 0l1.869 2.016-.588.542-1.28-1.381-1.28 1.381-.589-.542 1.868-2.015zm22.412-.043l1.868 2.016-.587.542-1.281-1.382-1.28 1.382-.588-.542 1.868-2.016zm-269.773 0l1.868 2.016-.587.542-1.281-1.382-1.28 1.382-.587-.542 1.867-2.017zm292.188 0l1.868 2.016-.588.542-1.28-1.382-1.28 1.382-.589-.542 1.869-2.016zm-82.388 0l1.868 2.016-.588.542-1.28-1.382-1.28 1.382-.588-.542 1.868-2.017zm67.635 0l1.867 2.016-.588.542-1.28-1.382-1.28 1.382-.588-.542 1.869-2.017zm-262.68 0l1.867 2.016-.587.542-1.28-1.382-1.28 1.382-.588-.542 1.867-2.017zm210.163 0l1.867 2.016-.588.542-1.28-1.382-1.28 1.382-.587-.542 1.868-2.017zm-194.816 0l1.868 2.016-.587.542-1.28-1.382-1.28 1.382-.588-.542 1.867-2.017zm209.569 0l1.868 2.016-.588.542-1.28-1.382-1.28 1.382-.588-.542 1.868-2.016zm-269.542 0l1.868 2.016-.588.542-1.28-1.382-1.28 1.382-.588-.542 1.868-2.017zm284.89 0l1.868 2.016-.588.542-1.28-1.382-1.28 1.382-.587-.542 1.868-2.017zm-202.502 0l1.868 2.016-.587.542-1.281-1.382-1.28 1.382-.587-.542 1.867-2.017zm-7.66 0l1.867 2.016-.587.542-1.28-1.382-1.28 1.382-.588-.542 1.867-2.017zm-59.974 0l1.868 2.016-.588.542-1.28-1.382-1.28 1.382-.588-.542 1.868-2.017zm213.431-3.438l1.868 2.017-.589.542-1.279-1.382-1.28 1.382-.588-.542 1.868-2.017zm-134.872 0l1.868 2.017-.587.542-1.281-1.382-1.28 1.382-.587-.542 1.867-2.017zm-104.8 0l1.869 2.017-.588.542-1.28-1.382-1.28 1.382-.588-.542 1.867-2.017zm14.754 0L68.09 77.1l-.588.542-1.28-1.382-1.28 1.382-.588-.542 1.867-2.017zm15.118 0l1.868 2.017-.588.542-1.28-1.382-1.28 1.382-.588-.542 1.868-2.017zm37.76 0l1.868 2.017-.588.542-1.28-1.382-1.28 1.382-.588-.542 1.868-2.017zm7.096 0l1.868 2.017-.587.542-1.281-1.382-1.28 1.382-.587-.542 1.867-2.017zm7.658 0l1.868 2.017-.588.542-1.28-1.382-1.28 1.382-.588-.542 1.868-2.017zm14.757.001l1.868 2.016-.588.542-1.28-1.382-1.28 1.382-.589-.542 1.869-2.016zm187.749 0l1.867 2.016-.588.542-1.28-1.382-1.28 1.382-.588-.542 1.869-2.017zm37.167 0l1.868 2.016-.587.542-1.28-1.382-1.28 1.382-.589-.542 1.868-2.016zm-67.27 0l1.868 2.016-.589.542-1.279-1.382-1.28 1.382-.588-.542 1.868-2.017zm52.513 0l1.869 2.016-.588.542-1.28-1.382-1.28 1.382-.589-.542 1.868-2.016zm-59.973 0l1.868 2.016-.588.542-1.28-1.382-1.28 1.382-.588-.542 1.868-2.017zm-202.703 0l1.868 2.016-.588.542-1.28-1.382-1.28 1.382-.588-.542 1.868-2.017zm285.092 0l1.867 2.016-.588.542-1.28-1.382-1.28 1.382-.587-.542 1.868-2.017zm-37.17 0l1.868 2.016-.587.542-1.281-1.382-1.28 1.382-.588-.542 1.868-2.016zm22.415 0l1.868 2.016-.588.542-1.28-1.382-1.28 1.382-.589-.542 1.869-2.016zm-262.679 0l1.868 2.016-.588.542-1.28-1.382-1.28 1.382-.588-.542 1.868-2.017zm7.69 0l1.868 2.016-.588.542-1.28-1.382-1.28 1.382-.588-.542 1.868-2.017zm239.67 0l1.869 2.016-.588.542-1.28-1.382-1.28 1.382-.589-.542 1.869-2.016zm-22.444 0l1.868 2.016-.587.542-1.28-1.382-1.28 1.382-.589-.542 1.868-2.016zm67.865 0L398.4 77.1l-.588.542-1.28-1.382-1.28 1.382-.588-.542 1.868-2.016zm-322.652 0l1.867 2.016-.587.542-1.28-1.382-1.28 1.382-.588-.542 1.868-2.017zm15.117 0l1.867 2.016-.587.542-1.28-1.382-1.28 1.382-.588-.542 1.868-2.017zm232.012 0l1.868 2.016-.587.542-1.28-1.382-1.28 1.382-.589-.542 1.868-2.016zm-7.096 0l1.868 2.016-.588.542-1.28-1.382-1.28 1.382-.588-.542 1.868-2.016zm-172.4 0l1.868 2.016-.587.542-1.281-1.382-1.28 1.382-.587-.542 1.867-2.017zm247.362 0l1.868 2.016-.589.542-1.279-1.382-1.28 1.382-.588-.542 1.868-2.017zm-329.75 0l1.868 2.016-.587.542-1.28-1.382-1.28 1.382-.588-.542 1.868-2.017zm311.135-3.775l1.867 2.016-.588.542-1.28-1.381-1.28 1.381-.588-.542 1.869-2.016zm-7.662 0l1.868 2.016-.587.542-1.281-1.381-1.28 1.381-.588-.542 1.868-2.016zm-277.43 0l1.868 2.016-.588.542-1.28-1.381-1.28 1.381-.589-.542 1.869-2.016zm239.67 0l1.868 2.016-.587.542-1.281-1.381-1.28 1.381-.587-.542 1.867-2.016zm23.007 0l1.867 2.016-.588.542-1.28-1.381-1.28 1.381-.587-.542 1.868-2.016zm-292.549 0l1.868 2.016-.587.542-1.28-1.381-1.28 1.381-.588-.542 1.867-2.016zm254.788 0l1.868 2.016-.587.542-1.28-1.381-1.28 1.381-.589-.542 1.868-2.016zm-15.117 0l1.868 2.016-.587.542-1.281-1.381-1.28 1.381-.588-.542 1.868-2.016zm-232.013 0l1.868 2.016-.588.542-1.28-1.381-1.28 1.381-.588-.542 1.868-2.016zm224.916 0l1.869 2.016-.588.542-1.28-1.381-1.28 1.381-.589-.542 1.868-2.016zm67.07 0l1.868 2.016-.587.542-1.28-1.381-1.28 1.381-.588-.542 1.867-2.016zm-262.115 0l1.868 2.016-.587.542-1.281-1.381-1.28 1.381-.587-.542 1.867-2.016zm-22.775 0l1.869 2.016-.588.542-1.28-1.381-1.28 1.381-.589-.542 1.868-2.016zm247.693 0l1.867 2.016-.588.542-1.28-1.381-1.28 1.381-.587-.542 1.868-2.016zm74.96 0l1.868 2.016-.587.542-1.28-1.381-1.28 1.381-.589-.542 1.868-2.016zm-60.207 0l1.868 2.016-.588.542-1.28-1.381-1.28 1.381-.588-.542 1.868-2.016zm44.859 0l1.868 2.016-.588.542-1.28-1.381-1.28 1.381-.588-.542 1.868-2.016zm-277.433 0l1.868 2.016-.588.542-1.28-1.381-1.28 1.381-.588-.542 1.868-2.016zm7.657 0l1.868 2.016-.587.542-1.28-1.381-1.28 1.381-.588-.542 1.867-2.016zm7.69 0l1.869 2.016-.588.542-1.28-1.381-1.28 1.381-.588-.542 1.868-2.016zm7.658 0l1.868 2.016-.587.542-1.28-1.381-1.28 1.381-.588-.542 1.867-2.016zm7.097 0l1.868 2.016-.588.542-1.28-1.381-1.28 1.381-.588-.542 1.868-2.016zm7.657 0l1.868 2.016-.587.542-1.28-1.381-1.28 1.381-.588-.542 1.867-2.016zm7.66 0l1.869 2.016-.587.542-1.281-1.381-1.28 1.381-.587-.542 1.867-2.016zm7.098 0l1.867 2.016-.587.542-1.28-1.381-1.28 1.381-.588-.542 1.868-2.016zm7.657 0l1.868 2.016-.587.542-1.281-1.381-1.28 1.381-.588-.542 1.868-2.016zm142.53 0l1.867 2.016-.588.542-1.28-1.381-1.28 1.381-.588-.542 1.868-2.016zm-224.918 0l1.868 2.016-.588.542-1.28-1.381-1.28 1.381-.588-.542 1.868-2.016zm307.305 0l1.868 2.016-.588.542-1.28-1.381-1.28 1.381-.589-.542 1.869-2.016zm-44.827 0l1.869 2.016-.588.542-1.28-1.381-1.28 1.381-.589-.542 1.868-2.016zm-213.991-3.733l1.868 2.016-.587.542-1.281-1.381-1.28 1.381-.587-.542 1.867-2.016zm-59.974 0l1.869 2.016-.588.542-1.28-1.381-1.28 1.381-.588-.542 1.867-2.016zm75.292 0l1.868 2.016-.587.542-1.281-1.381-1.28 1.381-.587-.542 1.867-2.016zm-82.387 0l1.867 2.016-.587.542-1.28-1.381-1.28 1.381-.588-.542 1.868-2.016zm22.213 0l1.868 2.016-.588.542-1.28-1.381-1.28 1.381-.588-.542 1.868-2.016zm74.928 0l1.868 2.016-.587.542-1.281-1.381-1.28 1.381-.587-.542 1.867-2.016zm-52.516 0l1.868 2.016-.588.542-1.28-1.381-1.28 1.381-.588-.542 1.868-2.016zm202.505 0l1.868 2.016-.589.542-1.279-1.381-1.28 1.381-.588-.542 1.868-2.016zm37.759 0l1.868 2.016-.587.542-1.281-1.381-1.28 1.381-.588-.542 1.868-2.016zm-224.916 0l1.868 2.016-.588.542-1.28-1.381-1.28 1.381-.588-.542 1.868-2.016zm-23.006 0l1.868 2.016-.588.542-1.28-1.381-1.28 1.381-.588-.542 1.868-2.016zm202.703 0l1.868 2.016-.588.542-1.28-1.381-1.28 1.381-.588-.542 1.868-2.016zm97.736 0l1.868 2.016-.588.542-1.28-1.381-1.28 1.381-.588-.542 1.868-2.016zm-67.865 0l1.868 2.016-.587.542-1.28-1.381-1.28 1.381-.589-.542 1.868-2.016zm-277.2 0l1.869 2.016-.588.542-1.28-1.381-1.28 1.381-.588-.542 1.867-2.016zm59.974 0l1.868 2.016-.588.542-1.28-1.381-1.28 1.381-.588-.542 1.868-2.016zm209.568 0l1.868 2.016-.587.542-1.28-1.381-1.28 1.381-.589-.542 1.868-2.016zm45.42 0l1.869 2.016-.588.542-1.28-1.381-1.28 1.381-.589-.542 1.869-2.016zm-7.66 0l1.869 2.016-.588.542-1.28-1.381-1.28 1.381-.589-.542 1.868-2.016zm-269.772 0l1.867 2.016-.587.542-1.28-1.381-1.28 1.381-.588-.542 1.868-2.016zm44.856 0l1.868 2.016-.588.542-1.28-1.381-1.28 1.381-.588-.542 1.868-2.016zm217.259 0l1.868 2.016-.588.542-1.28-1.381-1.28 1.381-.589-.542 1.869-2.016zm-14.753 0l1.867 2.016-.588.542-1.28-1.381-1.28 1.381-.588-.542 1.869-2.016zm-262.48 0l1.868 2.016-.587.542-1.28-1.381-1.28 1.381-.588-.542 1.868-2.016zm307.306 0l1.867 2.016-.588.542-1.28-1.381-1.28 1.381-.587-.542 1.868-2.016zm7.69 0l1.868 2.016-.589.542-1.279-1.381-1.28 1.381-.588-.542 1.868-2.016zm-240.265 0l1.868 2.016-.588.542-1.28-1.381-1.28 1.381-.589-.542 1.869-2.016zm142.53 0l1.867 2.016-.589.542-1.279-1.381-1.28 1.381-.588-.542 1.868-2.016zm22.773 0l1.868 2.016-.588.542-1.28-1.381-1.28 1.381-.588-.542 1.868-2.016zm59.613 0l1.868 2.016-.587.542-1.28-1.381-1.28 1.381-.589-.542 1.868-2.016zm-33.34-3.774l1.869 2.015-.588.542-1.28-1.381-1.28 1.381-.589-.542 1.868-2.015zm-224.916 0l1.868 2.015-.588.542-1.28-1.381-1.28 1.381-.588-.542 1.868-2.015zm14.754 0l1.868 2.015-.588.542-1.28-1.381-1.28 1.381-.588-.542 1.868-2.015zM92.825 63.8l1.868 2.016-.587.542-1.281-1.381-1.28 1.381-.587-.542 1.867-2.016zm232.013 0l1.868 2.016-.587.542-1.281-1.381-1.28 1.381-.587-.542 1.867-2.016zm7.658 0l1.868 2.016-.588.542-1.28-1.381-1.28 1.381-.588-.542 1.868-2.015zm37.764 0l1.867 2.016-.588.542-1.28-1.381-1.28 1.381-.588-.542 1.869-2.016zm-22.415 0l1.867 2.016-.588.542-1.28-1.381-1.28 1.381-.587-.542 1.868-2.016zm7.095 0l1.868 2.016-.587.542-1.28-1.381-1.28 1.381-.588-.542 1.867-2.016zm7.658 0l1.868 2.016-.587.542-1.281-1.381-1.28 1.381-.588-.542 1.868-2.015zm-307.302 0l1.868 2.016-.587.542-1.28-1.381-1.28 1.381-.588-.542 1.867-2.016zm14.754 0l1.869 2.016-.588.542-1.28-1.381-1.28 1.381-.589-.542 1.868-2.015zm-7.096 0l1.868 2.016-.588.542-1.28-1.381-1.28 1.381-.588-.542 1.868-2.016zm14.754 0l1.868 2.016-.588.542-1.28-1.381-1.28 1.381-.588-.542 1.868-2.016zm29.871 0l1.868 2.016-.587.542-1.28-1.381-1.28 1.381-.588-.542 1.867-2.016zm15.348 0l1.868 2.016-.587.542-1.28-1.381-1.28 1.381-.588-.542 1.867-2.016zm14.754 0l1.868 2.016-.587.542-1.28-1.381-1.28 1.381-.588-.542 1.867-2.016zm239.674 0l1.868 2.016-.588.542-1.28-1.381-1.28 1.381-.588-.542 1.868-2.016zm7.658 0l1.868 2.016-.588.542-1.28-1.381-1.28 1.381-.589-.542 1.869-2.015zm-67.27 0l1.867 2.016-.588.542-1.28-1.381-1.28 1.381-.587-.542 1.868-2.016zm-7.659 0l1.868 2.016-.587.542-1.28-1.381-1.28 1.381-.589-.542 1.868-2.015zm-224.916 0l1.868 2.016-.588.542-1.28-1.381-1.28 1.381-.589-.542 1.869-2.015zm14.754 0l1.868 2.016-.588.542-1.28-1.381-1.28 1.381-.588-.542 1.868-2.016zm292.781 0l1.868 2.016-.587.542-1.28-1.381-1.28 1.381-.589-.542 1.868-2.015zm-64.036-3.436l1.868 2.015-.587.542-1.28-1.381-1.28 1.381-.589-.542 1.868-2.015zm7.692-.001l1.867 2.016-.588.542-1.28-1.381-1.28 1.381-.588-.542 1.869-2.016zm7.656 0l1.868 2.016-.587.542-1.281-1.381-1.28 1.381-.588-.542 1.868-2.015zm7.097 0l1.868 2.016-.588.542-1.28-1.381-1.28 1.381-.589-.542 1.869-2.015zm15.318 0l1.868 2.016-.588.542-1.28-1.381-1.28 1.381-.589-.542 1.869-2.015zm-7.66 0l1.868 2.016-.588.542-1.28-1.381-1.28 1.381-.589-.542 1.868-2.015zm14.756 0l1.868 2.016-.587.542-1.28-1.381-1.28 1.381-.589-.542 1.868-2.015zm7.659 0l1.867 2.016-.588.542-1.28-1.381-1.28 1.381-.587-.542 1.868-2.016zm7.69 0l1.868 2.016-.589.542-1.279-1.381-1.28 1.381-.588-.542 1.868-2.016zm7.657 0l1.868 2.016-.588.542-1.28-1.381-1.28 1.381-.588-.542 1.868-2.015zm-345.065 0l1.869 2.016-.588.542-1.28-1.381-1.28 1.381-.588-.542 1.867-2.016zm7.659 0l1.867 2.016-.587.542-1.28-1.381-1.28 1.381-.588-.542 1.868-2.016zm7.095 0l1.869 2.016-.588.542-1.28-1.381-1.28 1.381-.588-.542 1.867-2.016zm7.659 0l1.867 2.016-.587.542-1.28-1.381-1.28 1.381-.588-.542 1.868-2.016zm7.459 0l1.868 2.016-.588.542-1.28-1.381-1.28 1.381-.588-.542 1.868-2.016zm7.658 0l1.867 2.016-.587.542-1.28-1.381-1.28 1.381-.588-.542 1.868-2.016zm7.096 0l1.868 2.016-.588.542-1.28-1.381-1.28 1.381-.588-.542 1.868-2.016zm7.658 0l1.868 2.016-.588.542-1.28-1.381-1.28 1.381-.588-.542 1.868-2.016zm7.69 0l1.868 2.016-.588.542-1.28-1.381-1.28 1.381-.588-.542 1.868-2.016zm7.658 0l1.868 2.016-.588.542-1.28-1.381-1.28 1.381-.588-.542 1.868-2.016zm7.096 0l1.868 2.016-.587.542-1.281-1.381-1.28 1.381-.587-.542 1.867-2.016zM70.05 56.589l1.869 2.016-.588.542-1.28-1.381-1.28 1.381-.589-.542 1.868-2.016zm307.305 0l1.868 2.016-.588.542-1.28-1.381-1.28 1.381-.588-.542 1.868-2.016zm-37.169 0l1.869 2.016-.588.542-1.28-1.381-1.28 1.381-.589-.542 1.868-2.016zm7.659 0l1.867 2.016-.588.542-1.28-1.381-1.28 1.381-.587-.542 1.868-2.016zm7.095 0l1.868 2.016-.587.542-1.28-1.381-1.28 1.381-.588-.542 1.867-2.016zm7.658 0l1.868 2.016-.587.542-1.281-1.381-1.28 1.381-.588-.542 1.868-2.016zm7.662 0l1.867 2.016-.588.542-1.28-1.381-1.28 1.381-.588-.542 1.869-2.016zm14.753 0l1.868 2.016-.588.542-1.28-1.381-1.28 1.381-.589-.542 1.869-2.016zm7.69 0l1.868 2.016-.587.542-1.28-1.381-1.28 1.381-.589-.542 1.868-2.016zm-337.407 0l1.868 2.016-.587.542-1.28-1.381-1.28 1.381-.588-.542 1.867-2.016zm7.658 0l1.868 2.016-.588.542-1.28-1.381-1.28 1.381-.588-.542 1.868-2.016zm14.754 0l1.868 2.016-.588.542-1.28-1.381-1.28 1.381-.588-.542 1.868-2.016zm7.46 0l1.868 2.016-.588.542-1.28-1.381-1.28 1.381-.589-.542 1.869-2.016zm7.657 0l1.868 2.016-.587.542-1.281-1.381-1.28 1.381-.587-.542 1.867-2.016zm7.097 0l1.868 2.016-.588.542-1.28-1.381-1.28 1.381-.588-.542 1.868-2.016zm7.657 0l1.868 2.016-.587.542-1.28-1.381-1.28 1.381-.588-.542 1.867-2.016zm251.19-3.734l1.869 2.017-.588.542-1.28-1.382-1.28 1.382-.589-.542 1.868-2.017zm7.66 0l1.869 2.017-.588.542-1.28-1.382-1.28 1.382-.589-.542 1.869-2.017zm14.756 0l1.867 2.017-.588.542-1.28-1.382-1.28 1.382-.587-.542 1.868-2.017zm7.69 0l1.868 2.017-.589.542-1.279-1.382-1.28 1.382-.588-.542 1.868-2.017zm-15.349 0l1.868 2.017-.587.542-1.28-1.382-1.28 1.382-.589-.542 1.868-2.017zm23.006 0l1.868 2.017-.588.542-1.28-1.382-1.28 1.382-.588-.542 1.868-2.017zm-345.065 0l1.869 2.017-.588.542-1.28-1.382-1.28 1.382-.588-.542 1.867-2.017zm7.659 0l1.867 2.017-.587.542-1.28-1.382-1.28 1.382-.588-.542 1.868-2.017zm7.095 0l1.869 2.017-.588.542-1.28-1.382-1.28 1.382-.588-.542 1.867-2.017zm7.659 0l1.867 2.017-.587.542-1.28-1.382-1.28 1.382-.588-.542 1.868-2.017zm7.459 0l1.868 2.017-.588.542-1.28-1.382-1.28 1.382-.588-.542 1.868-2.017zm7.658 0l1.867 2.017-.587.542-1.28-1.382-1.28 1.382-.588-.542 1.868-2.017zm7.096 0l1.868 2.017-.588.542-1.28-1.382-1.28 1.382-.588-.542 1.868-2.017zm296.61-3.774l1.868 2.016-.587.542-1.28-1.381-1.28 1.381-.589-.542 1.868-2.016zm-337.407 0l1.868 2.016-.587.542-1.28-1.381-1.28 1.381-.588-.542 1.867-2.016zm14.754 0l1.869 2.016-.588.542-1.28-1.381-1.28 1.381-.589-.542 1.868-2.016zm307.305 0l1.868 2.016-.588.542-1.28-1.381-1.28 1.381-.588-.542 1.868-2.016zm7.658-.043l1.868 2.015-.588.542-1.28-1.381-1.28 1.381-.589-.542 1.869-2.015zm-322.06-.001l1.869 2.016-.588.542-1.28-1.381-1.28 1.381-.588-.542 1.868-2.016zm14.755 0l1.868 2.016-.588.542-1.28-1.381-1.28 1.381-.588-.542 1.868-2.016zM388.875 45.6l1.868 2.016-.589.542-1.279-1.381-1.28 1.381-.588-.542 1.868-2.016zm7.657 0l1.868 2.016-.588.542-1.28-1.381-1.28 1.381-.588-.542 1.868-2.015zm-345.065 0l1.869 2.016-.588.542-1.28-1.381-1.28 1.381-.588-.542 1.867-2.016zm7.659 0l1.867 2.016-.587.542-1.28-1.381-1.28 1.381-.588-.542 1.868-2.016z"></path>
    </g>
</svg>