<?xml version="1.0" encoding="UTF-8"?>
<svg width="1309px" height="811px" viewBox="0 0 1309 811" version="1.1" xmlns="http://www.w3.org/2000/svg" xmlns:xlink="http://www.w3.org/1999/xlink">
    <!-- Generator: Sketch 59.1 (86144) - https://sketch.com -->
    <title>Mask</title>
    <desc>Created with Sketch.</desc>
    <g id="Design" stroke="none" stroke-width="1" fill="none" fill-rule="evenodd">
        <g id="ourstory" transform="translate(-74.000000, -2110.000000)" stroke="rgba(0,0,0,0.25)" stroke-width="2">
            <g id="mission-/-disasters" transform="translate(0.000000, 900.000000)">
                <g id="disasters" transform="translate(0.000000, 895.000000)">
                    <g id="map" transform="translate(0.000000, 201.000000)">
                        <path d="M187.930109,115 L189.649857,115 C190.078648,115.340187 190.459285,115.869939 190.943108,115.991925 C205.329945,119.640057 219.704744,123.336869 234.127123,126.83667 C248.820075,130.402906 263.557168,133.78702 278.283369,137.214661 C286.718732,139.178467 295.154095,141.149718 303.619841,142.973211 C312.653103,144.919263 321.731652,146.653415 330.774659,148.557659 C340.628241,150.631998 350.429084,152.976653 360.315341,154.878606 C374.71995,157.649927 389.170991,160.183574 403.619166,162.721231 C417.504983,165.160955 431.399973,167.56059 445.316172,169.817621 C454.149371,171.249956 463.019257,172.477264 471.892582,173.641 C492.980704,176.405448 514.059653,179.259811 535.18389,181.723016 C549.689963,183.414214 564.257374,184.619759 578.814466,185.842484 C593.649584,187.088691 608.492155,188.320007 623.354789,189.141266 C642.045009,190.173853 660.752426,191.152034 679.463856,191.48363 C704.296442,191.923468 729.139346,191.731611 753.978237,191.778 C760.617611,191.789455 760.481177,191.734475 760.386018,185.056733 C760.362515,183.385006 761.521052,181.696671 762.136148,180.015782 C763.947616,180.844486 765.831886,181.551777 767.532717,182.566038 C768.142081,182.929133 768.481444,183.997801 768.647113,184.805315 C769.352783,188.247846 769.856669,191.733329 770.613932,195.163833 C771.124697,197.478135 771.692214,200.242583 774.57967,200.47281 C780.035857,200.908066 784.942298,202.763631 789.739248,205.183883 C791.556448,206.100211 793.139189,206.070431 795.186836,204.829379 C797.306138,203.545374 800.266398,202.807157 802.706146,203.098664 C806.00405,203.492685 809.205647,204.9737 812.360811,206.212462 C816.498524,207.836653 820.389167,210.352547 825.062295,209.959671 C827.328923,209.769533 828.803893,210.171572 829.737143,212.481292 C830.19345,213.609522 831.381222,214.569375 832.445746,215.304729 C837.636518,218.886427 845.456212,218.425399 851.380743,214.097466 C852.894695,212.992145 853.848582,212.862141 855.640559,213.750407 C858.227633,215.032121 861.15407,215.84479 864.024903,216.289782 C868.536948,216.989627 873.128101,217.17003 877.674542,217.674583 C878.811295,217.801151 879.903908,218.325176 881.279706,218.746687 C877.316834,224.577398 871.521857,226.672354 865.707963,228.276501 C857.589033,230.516351 851.530361,235.186189 846.520736,241.783752 C842.001239,247.735877 837.98964,254.2 831.628866,258.553705 C831.271732,258.79825 831.201222,259.460297 830.951859,260.033575 C831.498165,260.251776 831.82721,260.421297 832.176892,260.516366 C836.996772,261.827288 841.127033,259.900135 845.260734,257.806898 C848.2187,256.309274 851.220807,254.872929 854.302022,253.659367 C855.154443,253.323189 856.634573,253.562007 857.305275,254.140439 C857.74897,254.523579 857.490434,256.071601 857.140752,256.934668 C856.689605,258.049152 855.748903,258.956317 855.180813,260.038157 C854.735398,260.886906 854.537054,261.865086 854.229219,262.785996 C855.210049,262.936618 856.231579,263.338084 857.163109,263.18689 C859.492221,262.809477 861.664262,262.550042 863.617896,264.376971 C863.987068,264.722313 865.158217,264.557373 865.765861,264.249258 C872.277973,260.943604 878.70639,257.472438 885.248311,254.229781 C890.765836,251.494541 896.024251,248.759301 899.907442,243.51504 C902.594261,239.885235 906.493503,236.997655 910.266056,234.372947 C913.230902,232.311209 916.904856,231.502549 921.168685,231.67207 C917.004029,238.597793 909.639495,242.602148 907.372294,250.833639 C908.460321,250.527815 909.070832,250.413847 909.636629,250.187628 C916.478359,247.449525 926.802005,251.525467 929.47736,258.349249 C930.444431,260.815891 931.900484,261.424103 934.200361,261.510009 C940.441899,261.743673 946.267831,260.05992 951.994592,257.860159 C960.748682,254.497234 969.036146,249.858323 978.483295,248.397352 C982.252982,247.814338 982.281644,247.732441 982.301708,251.684107 C982.329797,257.396841 983.312347,258.215236 989.075795,257.278291 C989.826178,257.155732 990.562804,256.93524 991.296563,256.727921 C994.397841,255.851682 997.478483,254.894119 1000.60212,254.108368 C1002.27486,253.688002 1002.98397,254.391857 1002.86875,256.265748 C1002.54371,261.556398 1003.0327,266.611667 1009.06614,269.983755 C998.665109,271.597065 989.170381,273.530518 979.410239,271.707025 C978.119855,271.465916 976.62654,271.230534 975.454245,271.640591 C971.518316,273.01852 967.630539,274.567687 963.82531,276.275494 C956.990459,279.34233 950.465163,283.369593 942.427634,282.193829 C941.848079,282.108496 940.801899,283.151392 940.450498,283.895909 C936.845906,291.518615 933.356538,299.194582 929.802392,306.841342 C927.713472,311.335359 925.567226,315.802459 923.446204,320.282159 C923.825695,320.522123 924.204613,320.762659 924.583531,321.003195 C932.49953,316.169563 935.097496,306.792089 941.399225,299.756979 C941.399225,301.000321 941.495531,301.552409 941.384894,302.059826 C938.572533,314.980055 935.453484,327.841295 932.981059,340.825094 C929.964048,356.673564 929.254939,372.618821 933.118066,388.494781 C935.344566,397.647182 939.687503,405.644437 946.177258,412.504873 C947.766305,414.184617 949.473441,414.550575 951.218412,413.272298 C954.246315,411.055356 957.524728,408.964409 959.934094,406.163881 C964.986714,400.290217 966.940347,393.04836 967.930922,385.449708 C969.409332,374.110145 967.336462,363.744754 960.457471,354.425123 C959.542565,353.186362 958.817405,351.330797 958.969889,349.861808 C960.004031,339.931101 960.981421,329.974621 962.607156,320.130965 C963.942827,312.039214 967.799075,304.88269 973.102204,298.60355 C973.749975,297.836698 975.110869,297.670041 976.141571,297.225622 C976.42533,298.329225 977.047878,299.479217 976.905713,300.524976 C976.733165,301.791227 975.715647,302.922893 975.416984,304.195444 C974.877557,306.486264 973.611249,308.882463 975.569469,311.217382 C978.589919,310.459693 980.049412,308.813738 979.746736,305.677032 C979.500239,303.116467 979.600558,300.522685 979.375844,297.958684 C979.186098,295.794431 979.831004,294.161076 981.869478,293.338672 C983.827698,292.550057 985.86216,291.948144 988.240571,291.135475 C987.467258,290.563915 986.889422,289.992928 986.198657,289.651023 C983.468844,288.302302 983.130627,287.200418 984.74375,284.548793 C987.768213,279.577712 993.464018,278.086388 999.5439,280.468268 C1005.20474,282.686356 1010.86672,284.96114 1016.67775,286.717627 C1019.75151,287.647128 1023.03566,287.653428 1023.38534,291.885719 C1023.41228,292.212161 1023.74305,292.716141 1024.02164,292.786584 C1026.50324,293.412551 1026.13063,295.267543 1026.08248,297.113944 C1026.02859,299.208327 1026.16273,301.310155 1026.28197,303.40511 C1026.58063,308.627036 1027.20547,313.850107 1027.15675,319.066879 C1027.10687,324.409073 1024.97954,328.926571 1019.7131,331.181311 C1017.31692,332.206453 1017.39431,334.152506 1017.72851,335.955382 C1018.1017,337.965004 1018.93004,339.940837 1019.89712,341.752876 C1020.10922,342.149188 1022.07833,342.188132 1022.66476,341.701905 C1024.65451,340.049078 1026.58579,338.240475 1028.16509,336.202217 C1029.78223,334.11528 1030.66102,331.425284 1032.38936,329.463768 C1036.04784,325.311656 1038.68593,325.03733 1042.00046,328.93058 C1043.70588,330.933903 1045.4818,332.961852 1046.74123,335.2458 C1052.65717,345.980013 1053.69016,357.8562 1054.42048,369.766749 C1054.45602,370.345754 1053.91373,371.402968 1053.47519,371.501473 C1047.71862,372.790633 1046.21212,377.580739 1044.35652,382.175552 C1042.34097,387.169541 1040.06231,392.060443 1038.15797,397.094522 C1037.77504,398.105919 1038.14651,400.240964 1038.87797,400.678511 C1041.17556,402.054721 1043.74658,403.079291 1046.32849,403.850725 C1050.48283,405.09235 1055.06596,404.89763 1058.74851,407.76631 C1059.20597,408.123105 1060.4138,407.915213 1061.06157,407.569872 C1070.69847,402.438434 1080.52625,397.612247 1089.86162,391.975683 C1106.86075,381.712234 1122.03351,369.214089 1134.37156,353.483023 C1135.88666,351.551289 1135.91188,350.20944 1134.52634,348.208409 C1132.5492,345.352901 1130.9785,342.213904 1129.27652,339.172266 C1128.24238,337.323001 1128.95951,336.074504 1130.82716,335.443383 C1133.702,334.471502 1136.54475,333.190361 1139.5073,332.736206 C1147.52362,331.506608 1155.61044,330.743192 1163.64224,329.605799 C1171.00964,328.56233 1178.17583,326.909503 1184.4145,322.417777 C1191.96821,316.978796 1192.03012,312.85131 1189.35935,304.641008 C1189.08419,303.796268 1188.35788,303.002499 1187.65107,302.409749 C1183.86992,299.234671 1183.77017,295.945053 1187.83279,293.074655 C1192.23534,289.96372 1195.367,285.940466 1197.78497,281.224812 C1199.42331,278.029117 1201.09778,274.846022 1202.89606,271.739096 C1206.03288,266.319587 1210.929,263.678271 1217.03009,262.740753 C1224.6417,261.570716 1232.32209,260.572491 1239.77662,258.712917 C1252.58875,255.517795 1265.20711,251.548948 1277.99745,248.257612 C1282.263,247.160308 1283.88816,244.576835 1284.56345,240.738565 C1284.72567,239.814792 1284.96587,238.885291 1285.33045,238.026234 C1285.52249,237.574369 1286.01778,237.016555 1286.45173,236.940957 C1288.94536,236.505702 1291.49976,236.358516 1293.9504,235.76863 C1294.85212,235.551575 1296.20786,234.383829 1296.19811,233.665657 C1296.10181,226.852183 1299.11309,221.173239 1302.28889,215.480549 C1302.86099,214.456552 1303.05589,212.848969 1302.69933,211.745366 C1300.83914,205.982807 1300.76462,200.138923 1301.35105,194.209707 C1302.51991,182.38449 1307.52666,171.745346 1311.6575,160.838749 C1312.39642,158.888688 1314.39133,158.660751 1315.74018,160.256308 C1316.21942,160.823286 1316.49859,161.564367 1316.84426,162.237295 C1318.35248,165.175845 1319.39923,165.752559 1322.19669,164.080833 C1324.7637,162.546556 1327.08421,160.51918 1329.26542,158.448278 C1330.95938,156.839549 1332.49454,156.525706 1334.64193,157.414545 C1337.51219,158.602908 1340.56187,159.360597 1343.42182,160.570723 C1344.2685,160.928664 1345.02175,162.095264 1345.32672,163.047673 C1347.03329,168.391585 1348.61488,173.775586 1350.19132,179.159015 C1352.19024,185.98566 1354.38062,192.769353 1356.03387,199.679614 C1357.11903,204.214866 1357.39534,204.880349 1362.11547,205.070487 C1363.16509,205.11344 1364.23306,205.004054 1365.26089,205.164984 C1365.82841,205.254899 1366.65618,205.649492 1366.80809,206.096202 C1367.57109,208.338916 1368.41548,210.607401 1368.73249,212.934875 C1369.23695,216.644286 1370.02861,217.139676 1373.70314,215.851662 C1374.93046,215.420988 1376.87206,215.140362 1377.69524,215.791528 C1380.08569,217.681455 1381.78308,220.191622 1381.98315,223.483531 C1382.39016,230.189336 1375.37186,240.358289 1366.63898,243.232124 C1364.29554,244.00413 1361.78414,244.268147 1358.94483,244.848298 C1361.69758,246.339049 1362.60159,248.418542 1361.33815,251.038668 C1361.04694,251.643445 1360.09993,252.210423 1359.39655,252.291747 C1356.23623,252.654269 1357.19126,249.390422 1355.51164,247.440361 C1354.87706,249.587433 1354.45858,251.267177 1353.88247,252.890796 C1352.94578,255.528104 1352.07559,258.216382 1350.79781,260.688177 C1350.44297,261.373133 1348.74787,261.365688 1347.66845,261.676666 C1347.61112,260.262085 1347.45749,258.840058 1347.56182,257.437503 C1347.58876,257.068681 1348.40966,256.754265 1348.87112,256.423242 C1351.14234,254.798477 1351.20941,253.358697 1348.94851,251.797502 C1347.74583,250.967652 1346.38093,250.372612 1344.52876,249.366369 C1344.52876,251.24656 1344.44908,252.513956 1344.54653,253.767608 C1344.695,255.666698 1344.95296,257.558344 1345.18914,259.449989 C1345.54914,262.332987 1344.88188,264.545919 1342.07583,266.138612 C1340.04423,267.291468 1338.42079,269.160778 1336.61219,270.708227 C1333.47651,273.391923 1330.25657,275.823057 1325.82478,275.974824 C1325.04918,276.001168 1323.88147,276.958158 1323.62924,277.726156 C1322.65185,280.696205 1321.55866,283.722952 1321.25599,286.802388 C1320.17656,297.80119 1319.38433,308.828628 1318.5319,319.849194 C1318.39604,321.611981 1318.51299,323.394239 1318.51299,325.167334 C1318.76751,324.945125 1319.02146,324.723488 1319.27541,324.502424 C1321.63089,326.252038 1324.14287,327.830986 1326.29083,329.805673 C1328.02033,331.39493 1329.14791,333.629626 1330.84301,335.26699 C1332.36154,336.735406 1334.14263,338.153997 1336.0762,338.914549 C1338.42251,339.83775 1342.51035,338.004521 1343.00506,336.156974 C1343.77494,333.284857 1341.40283,332.425227 1339.58391,331.263208 C1339.02155,330.903549 1338.33939,330.661295 1337.90314,330.188813 C1337.3276,329.565137 1336.93951,328.769077 1336.19601,327.622521 C1337.54658,327.622521 1338.30786,327.498817 1339.0141,327.642566 C1343.33067,328.523387 1347.52685,335.293907 1346.29035,339.514744 C1346.10462,340.149874 1345.18398,340.6613 1344.4978,341.043294 C1341.72156,342.591316 1338.81805,343.929156 1336.13066,345.613481 C1334.13632,346.861979 1332.40282,348.525687 1330.36549,350.154461 C1330.23651,347.716455 1330.13619,345.804192 1330.03472,343.886203 C1326.48975,344.26247 1325.24351,346.467385 1325.03943,349.003323 C1324.80554,351.910948 1323.25605,353.547166 1320.90516,354.593499 C1311.90686,358.600144 1302.9229,362.646879 1293.82715,366.421578 C1285.54141,369.8601 1277.16566,373.183508 1270.92642,379.890459 C1267.99195,383.045491 1264.49628,386.676442 1263.73042,390.576564 C1262.92042,394.704623 1260.58099,397.076768 1258.4313,399.970647 C1258.35105,400.078316 1258.45423,400.321716 1258.51098,400.901293 C1259.57092,400.825123 1260.69564,400.927065 1261.7057,400.63384 C1264.0222,399.961484 1264.8838,400.726045 1265.33552,403.096472 C1268.16164,417.94729 1265.46163,431.700804 1257.28824,444.351862 C1255.47964,447.151245 1253.12244,449.596123 1251.01747,452.204795 C1250.66034,452.002057 1250.30377,451.800465 1249.94664,451.597727 C1250.3611,450.485534 1250.76467,449.368186 1251.19346,448.261147 C1251.93754,446.341439 1251.61881,445.307707 1249.25989,444.963511 C1246.67339,444.586098 1244.09892,443.851317 1241.64427,442.93728 C1239.76745,442.239152 1238.08554,441.018718 1236.31764,440.030801 C1237.0342,442.694453 1238.11306,445.053998 1239.38682,447.303011 C1241.65631,451.309084 1244.34599,454.895364 1248.79556,456.845425 C1249.76377,457.270372 1250.74862,458.477062 1251.03065,459.512513 C1253.21703,467.534394 1252.92868,475.620419 1250.66378,483.538068 C1248.49804,491.109803 1245.83931,498.539507 1243.44943,506.048244 C1242.62682,508.629999 1241.96013,511.261007 1241.01312,514.611332 C1239.81217,513.077055 1238.52121,512.164735 1238.35898,511.082895 C1237.84592,507.668427 1237.42802,504.174926 1237.58567,500.740413 C1237.77656,496.582 1238.91675,492.463678 1239.05089,488.308129 C1239.20108,483.660626 1236.04993,480.096682 1232.03719,479.656845 C1230.94228,482.95219 1236.04191,485.438876 1233.05184,489.667731 C1231.69725,487.328803 1230.66655,485.382751 1229.47591,483.539213 C1228.111,481.425358 1227.03616,478.42381 1225.06476,477.556735 C1221.59316,476.030475 1221.76227,473.753972 1222.36647,471.152746 C1222.96265,468.584736 1223.13692,466.475462 1220.66793,465.90333 C1220.96201,463.035222 1221.66023,460.456904 1221.38048,457.989117 C1220.94252,454.130802 1218.51424,450.456899 1220.92246,446.376947 C1220.40768,446.004689 1219.89233,445.631858 1219.37812,445.259027 C1218.73322,446.478889 1218.125,447.719368 1217.43653,448.914031 C1214.10881,454.688045 1214.70499,460.897314 1215.79302,466.994333 C1216.57379,471.37381 1218.07283,475.721787 1221.47736,478.869948 C1223.20456,480.467795 1223.11169,481.905858 1222.2415,483.661772 C1221.84137,484.469859 1221.32086,485.218957 1220.8829,485.949156 C1228.14253,493.738519 1231.59922,501.866351 1230.34151,507.692481 C1229.44323,507.861429 1228.63782,508.012623 1227.8324,508.16439 C1228.03132,508.951287 1228.07087,509.832107 1228.46699,510.502745 C1229.03967,511.471762 1229.99585,512.215133 1230.56623,513.184723 C1231.85375,515.374748 1233.00483,517.644378 1234.21152,519.881365 C1234.8891,520.546276 1236.22191,520.703769 1237.50197,520.514204 C1240.31376,520.097275 1241.68669,521.312555 1242.90083,523.841048 C1246.68199,531.715172 1250.62938,539.520571 1254.83416,547.175921 C1257.55767,552.133256 1255.4785,556.668509 1249.7867,557.274431 C1248.79097,557.379809 1247.81989,557.706823 1246.83734,557.930751 C1246.88492,558.32649 1246.93307,558.721084 1246.98065,559.116823 C1248.36275,559.041226 1249.75804,559.056689 1251.12467,558.865406 C1252.5234,558.668968 1253.88257,558.095117 1255.28073,558.002912 C1257.14837,557.879207 1257.93487,559.027481 1257.41723,560.769078 C1255.89009,565.902807 1252.69422,569.958132 1246.68715,570.930013 C1244.18892,571.334343 1241.62191,571.311435 1238.89267,571.495273 C1239.77662,575.886203 1240.82854,580.479872 1234.76757,582.434514 C1238.82216,585.511659 1242.67669,582.79131 1246.90211,582.290193 C1246.63555,583.529527 1246.58281,584.579868 1246.18498,585.47787 C1244.48644,589.314994 1241.30491,591.7656 1237.78172,593.709361 C1233.04725,596.321469 1228.12705,598.595109 1223.37826,601.183163 C1215.16531,605.658854 1210.36378,612.40933 1210.17632,621.97637 C1210.13964,623.866297 1209.12327,624.014055 1207.67008,624.252873 C1199.7644,625.552914 1192.54662,628.182203 1187.76916,635.183524 C1184.58361,639.851644 1183.70769,645.140576 1183.55291,650.6563 C1183.52138,651.775365 1183.16768,653.149858 1182.4494,653.941336 C1178.25035,658.561922 1173.78531,662.943689 1169.6304,667.602073 C1165.45314,672.286228 1161.43408,677.059726 1155.35478,679.456497 C1154.70987,679.710778 1154.03172,680.669487 1153.93197,681.380214 C1153.39254,685.226502 1151.35464,688.304219 1148.96075,691.129374 C1144.12253,696.840963 1140.10806,702.91221 1138.51902,710.402621 C1133.94563,731.967261 1138.53622,751.99247 1148.77273,770.994255 C1154.83312,782.245621 1162.443,792.387657 1171.97327,801.011451 C1173.47977,802.375062 1174.225,803.976919 1172.21404,805.530095 C1170.16352,807.11477 1170.57569,808.57345 1171.73939,810.622589 C1177.92131,821.507997 1184.45807,832.241064 1189.84432,843.517056 C1196.33178,857.097614 1198.69414,871.589346 1195.98898,886.656646 C1195.50573,889.346642 1195.38076,892.100781 1195.15318,894.245562 C1195.6307,893.706647 1196.30885,892.942658 1196.98643,892.178096 C1197.27478,893.219847 1197.97357,894.349794 1197.76834,895.283304 C1197.28395,897.491655 1196.50089,899.662208 1195.60777,901.749145 C1191.77273,910.714272 1184.94132,916.978521 1176.7043,922 C1177.31137,920.366645 1178.20048,918.905674 1179.4215,917.815243 C1182.81112,914.786206 1186.43807,912.017176 1189.7589,908.918841 C1190.92088,907.834138 1191.46489,906.089105 1192.29209,904.645888 C1192.05305,904.380153 1191.81458,904.11499 1191.57553,903.849255 C1189.75203,904.185433 1187.85342,904.30341 1186.12164,904.903605 C1182.63514,906.112013 1179.20653,907.504832 1175.82035,908.975539 C1173.79391,909.85636 1172.94952,909.131888 1172.19455,907.263723 C1170.66913,903.488451 1169.20792,899.639872 1167.19524,896.120599 C1164.04237,890.607166 1159.60886,886.896609 1152.60433,887.704124 C1151.90611,887.784302 1150.71834,886.853084 1150.35834,886.103985 C1148.58929,882.420918 1147.01858,878.642782 1145.38769,874.894427 C1143.94138,871.569301 1143.33374,871.297839 1139.998,872.678631 C1137.85348,873.566324 1136.41806,873.438038 1135.1678,870.984569 C1130.60187,862.025169 1125.53205,853.33895 1118.77689,845.80845 C1116.76822,843.569172 1116.88344,841.669509 1118.53383,839.509838 C1119.1644,838.68457 1119.97727,837.965252 1120.4588,837.06496 C1121.38116,835.341117 1122.36887,833.581194 1122.82116,831.71303 C1123.00116,830.970804 1122.03122,829.461726 1121.22294,829.093477 C1120.21918,828.635312 1118.84052,828.99898 1117.62351,829.007571 C1117.64472,829.965134 1117.62236,830.926706 1117.70434,831.879114 C1117.75249,832.441511 1118.14459,833.013071 1118.07408,833.539387 C1117.86083,835.130362 1117.49682,836.701865 1117.19185,838.281386 C1116.03905,837.182937 1114.46892,836.288944 1113.8114,834.948814 C1111.76089,830.771503 1111.45133,826.218497 1111.51783,821.600202 C1111.61299,814.854308 1111.73222,808.095242 1111.42726,801.360801 C1111.16987,795.660667 1108.20101,793.021069 1102.92884,791.183831 C1099.34717,789.934761 1095.88131,787.866722 1092.91188,785.483123 C1089.76302,782.956921 1087.2476,779.63924 1084.48282,776.641701 C1079.07364,770.775482 1072.51567,767.748735 1064.41623,768.332322 C1062.9189,768.440563 1062.12151,768.888991 1061.44221,770.378597 C1060.63909,772.141384 1059.39915,773.859499 1057.94654,775.144077 C1051.95666,780.445036 1044.45913,781.916315 1036.84351,782.870442 C1036.16134,782.955203 1035.06701,782.141961 1034.63364,781.451852 C1029.11324,772.663691 1020.59361,768.741806 1010.83519,767.55917 C999.666002,766.205295 988.563883,767.389076 977.665841,770.286964 C973.664561,771.351051 969.628886,772.285133 965.646523,773.26904 C965.4906,770.816717 965.850027,768.463471 965.0813,766.564953 C964.263846,764.545595 962.562442,761.706123 960.91607,761.462723 C958.163901,761.057248 957.992499,764.192236 957.55683,766.456712 C956.653962,771.146022 956.330076,771.258272 951.589304,771.4948 C944.822097,771.832696 938.042277,772.125348 931.306598,772.813167 C924.881047,773.469487 919.442631,776.29636 915.761224,781.794902 C914.634216,783.478082 913.987591,785.482551 913.065233,787.46182 C916.207212,788.372421 917.826068,787.389086 919.074032,785.405808 C919.675943,784.448818 920.316836,783.463765 921.140022,782.709512 C923.057541,780.95188 924.659773,781.501104 925.13557,784.060524 C925.896271,788.156511 925.376908,791.855041 921.61066,794.455695 C920.602888,795.152105 919.674224,795.963628 918.712311,796.725898 C917.368615,797.789985 917.179443,799.024737 918.665305,799.970273 C920.397664,801.072731 922.242381,802.065229 924.155313,802.803446 C927.319649,804.025599 930.63819,804.862894 933.762971,806.170952 C934.795393,806.603345 936.302466,808.434856 936.086924,808.855221 C935.368643,810.254913 934.053609,811.41235 932.783288,812.434056 C932.290294,812.830368 931.303732,812.694637 930.54647,812.670583 C923.870409,812.456391 918.469254,809.551631 914.137209,804.623503 C912.121091,802.329819 910.826694,802.138535 909.283507,804.850294 C908.294079,806.590172 908.046435,808.76817 907.559173,810.772638 C906.621337,814.624653 904.185028,816.622821 900.204385,816.33876 C900.691074,815.416704 901.220756,814.680206 901.476998,813.858374 C901.781967,812.880766 902.329993,811.288646 901.92184,810.928414 C901.158272,810.256058 899.478078,809.713706 898.711644,810.120327 C896.087882,811.510855 893.477305,813.09553 891.28348,815.073081 C889.57405,816.614231 887.887551,817.282005 885.874873,816.587886 C882.664677,815.480847 879.597793,813.955734 876.383011,812.865303 C873.424471,811.861923 872.370266,810.336237 873.837784,807.347289 C874.099186,806.815245 873.805109,805.513487 873.340204,805.200217 C869.023063,802.292593 864.664076,799.437085 860.208209,796.745943 C857.587313,795.163559 854.67406,794.492921 851.804948,796.148612 C850.952526,796.640565 850.437175,797.714388 849.76762,798.521902 C850.712335,799.010992 851.619788,799.798462 852.609217,799.919875 C854.19941,800.116313 855.958712,799.491492 857.428523,799.934193 C858.600245,800.286979 859.448654,801.714161 860.439802,802.664278 C859.411966,803.036537 858.342283,803.814843 857.363173,803.714047 C850.825265,803.038255 844.290223,802.281139 837.783844,801.349347 C825.855099,799.640968 813.932087,798.220659 801.857738,799.715419 C793.833394,800.709063 786.238414,803.106979 780.488724,808.868393 C770.883359,818.493849 760.004234,826.309557 748.362114,833.160829 C735.108591,840.961646 721.810354,848.684002 708.498932,856.382305 C706.655936,857.449255 705.508291,858.595238 705.276698,860.931302 C703.628606,877.592441 702.633445,894.234681 705.459564,910.874629 C705.863705,913.255365 706.197336,915.6487 706.657655,918.646239 C702.624273,917.763127 699.016816,917.042091 695.443753,916.177307 C685.813165,913.844678 676.302386,911.091112 667.52078,906.396648 C652.597382,898.420583 643.571572,886.98137 645.998709,868.960056 C646.116798,868.080954 645.338326,866.892018 644.659025,866.129747 C642.337366,863.522793 639.646534,861.219373 637.510607,858.477833 C633.096014,852.811488 629.612378,846.362256 623.304343,842.350456 C622.834279,842.051504 622.580329,841.270907 622.413514,840.662694 C621.283639,836.550098 620.281026,832.401422 619.093254,828.30658 C616.537135,819.492647 612.145472,811.705575 605.793297,805.044441 C597.664622,796.519152 587.42639,792.217563 576.105863,789.784712 C565.998905,787.612441 560.855712,792.157429 556.684177,799.461138 C554.529906,803.231829 552.743088,807.236184 550.340027,810.835063 C546.901105,815.985401 546.608748,815.890904 541.34288,812.804596 C541.016128,812.613313 540.632624,812.522252 540.297846,812.342996 C532.942485,808.395339 525.430626,804.707118 518.283354,800.412974 C511.640541,796.421792 507.537223,790.40667 506.509387,782.515365 C505.857029,777.509922 505.200086,772.498179 504.298938,767.533971 C503.196579,761.458714 500.77976,756.46587 494.859242,753.121272 C490.156305,750.46392 485.768655,746.782571 482.180687,742.726101 C476.227494,735.996242 471.049333,728.584865 465.485375,721.506801 C464.893209,720.754267 463.967984,719.945607 463.08862,719.793268 C460.180526,719.289287 457.213388,719.139238 454.285231,718.737772 C445.118975,717.481257 435.921763,716.391399 426.810539,714.814169 C419.36747,713.525582 418.401545,713.999209 417.723964,721.5383 C417.085938,728.646144 417.085938,728.646144 409.936946,727.524215 C409.84236,727.509897 409.747774,727.496152 409.653188,727.48298 C394.65756,725.324454 379.622377,723.40131 364.681781,720.90947 C356.905655,719.612293 349.171949,717.710912 341.639453,715.374847 C327.949687,711.131102 315.531961,704.169298 303.368757,696.659415 C286.014782,685.944101 268.475647,675.526022 250.964027,665.066707 C247.478672,662.984351 247.292939,662.865801 249.906956,659.847072 C250.906129,658.694217 251.119378,657.817405 249.336573,657.442856 C247.291793,657.012754 245.238987,656.56948 243.166691,656.326081 C233.03279,655.137145 222.861055,654.225398 212.761549,652.794781 C205.417652,651.754175 198.15917,650.094476 190.87833,648.632932 C188.51425,648.15816 187.329344,646.962351 187.372338,644.121734 C187.44686,639.280657 187.300682,634.345084 186.431636,629.598503 C184.441887,618.736577 179.029841,610.304066 167.823391,606.941714 C164.934214,606.075211 164.209054,604.784334 164.967463,601.952879 C165.253514,600.886502 164.737016,598.713659 164.00899,598.404971 C156.380762,595.17205 151.158461,589.102521 145.63463,583.369169 C138.571626,576.039116 130.613779,570.528547 119.844718,570.793136 C117.314396,570.856134 116.240127,569.08762 116.325541,567.158177 C116.461401,564.079314 116.860956,560.892782 117.864715,557.999476 C119.357456,553.69846 120.325675,549.423216 118.441404,545.187488 C115.479998,538.530363 112.30649,531.954563 108.919733,525.503039 C105.395397,518.790934 101.375773,512.381791 99.5631586,504.840982 C98.296851,499.573812 98.476278,495.23328 103.62119,492.226005 C104.00756,491.999786 104.244312,491.524441 104.565905,491.179673 C106.159538,489.470148 105.910748,488.112836 104.017879,486.714863 C95.4145536,480.358408 91.3284327,466.435373 96.1551916,456.130116 C96.5690776,455.247005 96.2698415,453.369105 95.5819424,452.743138 C91.7767136,449.281135 90.2455648,444.929148 90.1498321,440.005602 C90.0265835,433.673201 87.8321853,428.114525 84.1610968,423.087319 C79.9563133,417.327623 76.6819134,411.333691 78.3982218,403.82209 C78.9284774,401.500915 79.4163125,399.169433 79.9545936,396.849977 C81.3292454,390.919042 83.2863184,385.053396 82.5445338,378.843554 C81.9489278,373.861591 79.7224276,369.849219 75,367.56298 L75,366.417569 C75.2121022,366.225141 75.4907014,366.07051 75.6259882,365.833983 C80.3679063,357.527467 85.3351114,349.336638 89.7560099,340.861174 C93.672449,333.353582 95.9700321,325.357472 94.6171638,316.667817 C94.0410483,312.967569 93.4758245,309.192869 93.6111113,305.47773 C93.7263344,302.307235 95.48449,299.153347 95.3899038,296.026377 C95.2144896,290.204829 97.0884415,285.568208 100.509593,280.903524 C109.136422,269.141878 115.69898,256.144907 121.139689,242.658273 C125.640269,231.500831 129.489638,220.080517 133.614739,208.772454 C135.54659,203.477222 136.397291,197.70779 140.526406,193.372984 C140.845706,193.037379 140.741948,191.958975 140.452457,191.438959 C137.955956,186.957541 138.243154,184.56936 141.874688,180.784925 C144.997177,177.531387 144.997177,177.531387 142.215198,173.75096 C140.488572,171.405732 141.117999,169.50836 143.91087,168.593177 C144.887113,168.273608 145.849026,167.910513 146.829282,167.56288 C140.966088,152.442319 141.645389,137.068621 143.351379,120.891418 C147.768838,123.61005 151.73171,125.965013 155.608595,128.452844 C162.096057,132.614693 168.671226,136.511952 176.324677,138.260993 C179.221306,138.92304 181.350354,138.62237 182.72214,135.713601 C183.151503,134.803572 183.885262,133.948523 184.686092,133.336874 C185.164755,132.970916 186.112336,132.923381 186.709088,133.132991 C186.992847,133.232642 187.083993,134.278401 187.028388,134.873442 C186.848961,136.764515 186.365712,138.644706 186.363419,140.529478 C186.360553,142.726948 186.981382,144.784105 189.526609,146.100754 C190.119922,135.428966 192.866359,125.037804 187.930109,115" id="Mask"></path>
                    </g>
                </g>
            </g>
        </g>
    </g>
</svg>
