<svg xmlns="http://www.w3.org/2000/svg" width="264" height="288" viewBox="0 0 264 288">
    <g fill="none" fill-rule="evenodd">
        <path fill="#FF4A00" d="M158.828 218.934l-.001 29.278 9.678 10.47h-21.273l9.677-10.47v-29.278h1.919zm0-85.676v59.874h-1.918v-59.874h1.918zm-14.053.78c0 7.21-5.843 13.053-13.052 13.053s-13.052-5.843-13.052-13.052h26.104z"/>
        <path fill="#000" d="M129.526 184.339a.958.958 0 0 1-.585 1.537l-3.179.57c1.422 2.02 2.725 3.618 3.789 4.923 1.613 1.978 2.778 3.407 3.256 4.92.263.83.149 1.656-.32 2.327a2.693 2.693 0 0 1-2.078 1.13c-1.697.075-3.25-.346-4.386-.655-.255-.07-.49-.134-.7-.184a.322.322 0 0 0-.355.136.315.315 0 0 0-.018.367c.784 1.265 2.358 4.309 2.712 6.78.725 5.074-1.434 8.491-5.776 9.142a6.123 6.123 0 0 1-.905.063c-1.35 0-2.895-.37-4.2-.875 2.757 6.43 9.79 22.267 16.289 36.747.675-10.708 2.949-32.494 2.973-32.73a.96.96 0 0 1 .954-.859l7.254.001c-1.358-2.482-2.113-7.032-2.216-10.138-.251-7.568 3.26-14.644 7.667-15.451.875-.16 1.847-.252 2.668-.252.06 0 .12.005.178.016.308.015.581.046.854.088.562.087 1.203.302 1.82.613h8.51c2.26 0 4.1 1.839 4.1 4.1a4.105 4.105 0 0 1-2.462 3.758c.545.694.871 1.571.871 2.522a4.1 4.1 0 0 1-1.937 3.483 4.078 4.078 0 0 1 1.107 2.798 4.104 4.104 0 0 1-2.268 3.668c.59.708.945 1.62.945 2.613 0 .801-.23 1.55-.63 2.182h9.898a.96.96 0 0 1 .955.869c.05.53 1.083 11.587 1.33 17.356 1.648-2.078 3.454-3.608 5.38-4.556 1.15-.565 2.728-.941 3.783-1.064 9.6-1.119 15.206 6.413 16.353 13.878.519 3.38.123 6.035-1.285 8.384.344.013.69.034 1.035.066 1.43.13 5.037.713 7.643 3.318 2.676 2.677 2.676 7.57 2.676 14.344 0 7.295-2.379 8.889-4.61 9.81-.94.39-2.387.441-3.078.441-.192 0-.326-.004-.375-.006a.958.958 0 0 1-.925-.99.953.953 0 0 1 .991-.927c.7.023 2.036-.035 2.655-.29 1.364-.564 3.423-1.415 3.423-8.038 0-6.944-.098-10.97-2.114-12.987-2.163-2.162-5.238-2.653-6.46-2.764-1.92-.177-4.093-.014-5.394.223-.707.128-1.59.463-1.79 1.328-.14.605.116 1.157.255 1.259l.086.06c2.268.026 4.614.075 6.735.155a.959.959 0 1 1-.073 1.917c-4.843-.182-10.872-.202-14.423-.143-.935.016-1.684.715-1.704 1.592-.01.432.151.844.453 1.16.226.236.508.396.817.466l8.323.039h2.577c.056 0 .112.005.165.015l-.045-.002a.959.959 0 0 1-.004 1.918h-.005l-2.701-.013h-8.01a3.638 3.638 0 0 1-.462-.04l-1.704-.008a1.62 1.62 0 0 0-1.683 1.59 1.63 1.63 0 0 0 1.592 1.666l.745.017 11.205.213a.96.96 0 0 1 .942.977c-.01.53-.455.964-.978.94l-9.097-.172a.967.967 0 0 1-.104.006h-.023l-2.005-.046h-.042c-.913-.002-1.648.693-1.669 1.59a1.632 1.632 0 0 0 1.592 1.667l12.136.272a.96.96 0 0 1-.021 1.918h-.081a1.09 1.09 0 0 1-.033.001l-6.634-.15a1.595 1.595 0 0 0-1.161.453 1.618 1.618 0 0 0-.505 1.138c-.021.966.898 1.504 1.766 1.685 1.125.235 2.272.388 2.925.388a.96.96 0 1 1 0 1.918c-.797 0-2.037-.16-3.317-.427-2.04-.427-3.332-1.842-3.292-3.607a3.527 3.527 0 0 1 .433-1.62l-2.26-.051a3.552 3.552 0 0 1-3.466-3.628c.02-.839.33-1.629.88-2.255a3.54 3.54 0 0 1-1.446-2.935 3.555 3.555 0 0 1 2.702-3.367 3.5 3.5 0 0 1-.281-.681c-9.484 4.044-16.336 14.818-16.628 16.87a.96.96 0 0 1-1.495 1.116c-.253-.21-.527-.62-.4-1.382.474-2.836 7.348-13.516 17.003-18.026-2.155-.653-5.603-2.369-6.665-6.762-.378-1.559-.436-3.838-.436-5.058-.184-.072-.456-.112-.745-.154-.806-.118-1.91-.28-2.505-1.202-.43-.667-.481-1.548-.154-2.692.448-1.569.92-2.843 3.257-6.296a.96.96 0 0 1-.107-.441c0-3.86-1-15.105-1.293-18.325h-34.619c-.465 4.51-2.607 25.526-3 33.988a.957.957 0 0 1-.416.746c5.175 11.513 9.775 21.636 11.253 24.67a.96.96 0 0 1-1.725.84c-3.855-7.916-28.943-64.044-30.163-67.48a.96.96 0 1 1 1.809-.642l.016.046.011.01c.88.746 4.047 1.942 5.954 1.659 3.022-.453 4.512-2.618 4.253-6.13-3.073-.191-5.402-2.882-5.51-3.008a.96.96 0 0 1 1.46-1.246c.02.023 1.66 1.918 3.712 2.286-.499-1.797-1.52-3.82-2.197-4.915a2.242 2.242 0 0 1 .093-2.501 2.256 2.256 0 0 1 2.357-.88c.227.055.48.124.758.2 1.07.291 2.41.658 3.795.59a.772.772 0 0 0 .592-.312c.123-.177.144-.395.064-.65-.368-1.163-1.436-2.474-2.914-4.286-1.182-1.45-2.65-3.252-4.266-5.6l.367-.253-13.218 2.36c-.288 5.085-1.967 32.912-4.937 44.591l.258.032c1.471.184 2.468 1.394 2.425 2.943-.023.796-.164 1.353-.362 1.79.372.159.767.345 1.073.528a.959.959 0 1 1-.987 1.645c-.502-.301-1.515-.687-1.863-.81a.96.96 0 0 1-.42-1.513c.42-.515.614-.749.64-1.694.023-.802-.513-.956-.744-.985-1.435-.179-3.195-.4-7.526.375 1.592 2.428 2.508 6.012.754 7.942a3.222 3.222 0 0 1-2.428 1.066c-.323 0-.656-.043-.993-.132-1.697-.442-3.197-1.93-3.569-3.534a.959.959 0 1 1 1.87-.433c.212.92 1.171 1.847 2.183 2.112.634.163 1.145.04 1.517-.37 1.083-1.19.136-4.348-1.397-6.233-2.446.596-4.44 1.53-5.936 2.785-.801.673-1.639 1.784-2.078 2.533-2.38 4.053-2.379 8.433-.018 12.422 2.08-1.122 4.204-1.445 5.223-1.537 2.244-.202 4.587.004 5.912.246 2.611.475 3.208 2.2 3.344 2.92a3.614 3.614 0 0 1-.066 1.6c2.135-.01 4.103 0 5.62.026.235.004.465.029.687.073l-.326.29a25.259 25.259 0 0 0 1.883-1.81c1.046-1.111 2.867-3.412 3.3-6.334.314-2.114.019-6.025-3.08-7.27a.96.96 0 0 1 .716-1.781c4.207 1.691 4.658 6.662 4.262 9.333-.51 3.44-2.6 6.093-3.801 7.367-.376.399-.757.782-1.14 1.146a3.478 3.478 0 0 1 1.09 2.452 3.525 3.525 0 0 1-.341 1.599c.1.014.199.046.294.096 8.548 4.532 12.372 15.5 12.53 15.966a.959.959 0 0 1-1.816.62c-.03-.09-2.733-7.824-8.41-12.685a3.52 3.52 0 0 1-.963 2.06c-.143.15-.297.286-.46.407.53.603.858 1.39.878 2.254a3.523 3.523 0 0 1-.984 2.53 3.523 3.523 0 0 1-2.481 1.098l-2.261.051c.27.492.42 1.044.434 1.62.04 1.765-1.253 3.18-3.293 3.607-1.28.267-2.52.427-3.317.427a.96.96 0 0 1 0-1.918c.653 0 1.8-.153 2.925-.388.868-.181 1.787-.72 1.766-1.685a1.618 1.618 0 0 0-.505-1.138 1.597 1.597 0 0 0-1.16-.453l-6.634.15h-.022l-.034-.002-.036.001h-.022a.96.96 0 0 1-.021-1.918l12.136-.272a1.62 1.62 0 0 0 1.138-.506c.302-.316.463-.728.453-1.16a1.63 1.63 0 0 0-1.628-1.592l-.006-.001h-.023l-.009.001h-.064l-1.986.047h-.023l-.104-.006-9.097.173h-.019a.96.96 0 0 1-.017-1.918l11.19-.212.76-.018c.432-.01.837-.189 1.139-.505.302-.316.463-.728.453-1.16a1.63 1.63 0 0 0-1.628-1.592h-.038l-1.701.01c-.15.022-.304.036-.46.04l-8.03-.001-2.703.013h-.004a.959.959 0 0 1-.05-1.916.966.966 0 0 1 .165-.015h2.58l8.33-.04c.299-.07.581-.23.807-.465.302-.316.463-.728.453-1.16-.02-.877-.768-1.576-1.704-1.592-3.55-.058-9.58-.038-14.423.143a.952.952 0 0 1-.995-.922.959.959 0 0 1 .923-.995c2.12-.08 4.466-.129 6.734-.154a.813.813 0 0 1 .09-.063c.135-.1.39-.652.25-1.257-.199-.865-1.082-1.2-1.789-1.328-1.302-.237-3.473-.4-5.394-.223-1.222.11-4.297.602-6.46 2.764-2.016 2.016-2.114 6.043-2.114 12.987 0 6.623 2.06 7.474 3.423 8.038.696.287 2.186.306 2.654.29a.957.957 0 0 1 .992.926.958.958 0 0 1-.925.991c-.05.002-.183.006-.375.006-.691 0-2.137-.05-3.08-.44-2.23-.922-4.607-2.516-4.607-9.811v-.912c.005-6.302.121-10.877 2.676-13.432.262-.263.535-.505.815-.728-2.738-4.582-2.762-9.8-.032-14.447.536-.915 1.518-2.207 2.5-3.03 1.94-1.628 4.552-2.775 7.768-3.41 3.35-.663 5.41-.825 7.026-.783l-.094.343c3.27-11.89 5.081-45.31 5.1-45.647a.959.959 0 0 1 .789-.894l17.03-3.04-.237-.237c-3.143-3.097-11.525-9.807-23.17-7.28-6.154 1.336-10.699 5.616-13.509 12.72-1.833 4.63-2.296 9.028-2.392 10.224.027.027.05.054.075.08 2.563 2.864 4.544 6.724 5.891 11.476 1.727 6.092 2.346 11.093 1.843 14.862-.115.862-.57 1.561-1.28 1.97a2.698 2.698 0 0 1-2.361.139c-1.566-.652-2.795-1.696-3.691-2.458-.202-.172-.387-.33-.555-.463a.328.328 0 0 0-.38-.03.316.316 0 0 0-.171.327c.195 1.679.243 5.003-.426 7.278-.926 3.155-2.531 4.881-3.963 6.252-1.696 1.624-3.638 2.446-5.775 2.446a8.66 8.66 0 0 1-.556-.018c-3.303-.215-6.391-2.314-8.511-4.172l13.6 41.265a.96.96 0 0 1-1.824.6L65.002 235.28c-1.8 1.127-3.754 1.723-5.999 2.165-1.043.206-2.103.31-3.18.31-2.501 0-5.105-.555-7.865-1.676a48.265 48.265 0 0 1 1.5 7.464c.583 4.885.633 12.092-2.444 18.689-3.078 6.598-8.631 11.19-12.75 13.882a48.112 48.112 0 0 1-5.815 3.248c-1.89.885-2.532 1.112-2.873 1.112-.144 0-.234-.041-.342-.089l-.016-.008-.066-.032c-.32-.161-.512-.4-1.229-3.093a47.974 47.974 0 0 1-1.248-6.544c-.582-4.882-.63-12.086 2.45-18.686 3.078-6.6 8.628-11.193 12.742-13.884a47.856 47.856 0 0 1 7.383-3.954l.024.055c-3.818-8.29-1.855-16.245-1.77-16.58l1.86.473c-.02.076-1.871 7.652 1.653 15.304l-.136.062.426.204c4.142 1.937 7.853 2.545 11.325 1.862 3.685-.727 6.328-1.835 8.932-5.348 5.25-7.082 7.062-17.742 7.337-19.54a.959.959 0 0 1 1.473-1.05c3.287 2.324 6.185 3.12 8.614 2.37 3.409-1.056 4.865-4.891 4.88-4.93a.962.962 0 0 1 .07-.148c-1.035-2.284-2.276-4.237-3.709-5.837-1.206-1.348-2.91-2.717-4.05-3.254-1.095-.517-2.558-1.207-5.048-1.82-7.996-1.973-19.273.862-24.31 9.014l-1.632-1.01c5.496-8.895 17.74-12.001 26.401-9.867 2.676.66 4.303 1.426 5.38 1.935.934.44 1.954 1.17 2.875 1.958.72-5.342 3.917-20.245 17.233-23.136 16.072-3.488 26.346 9.308 26.448 9.437zm-83.605 51.667c-3.156 1.329-14.305 6.64-19.058 16.828-4.751 10.186-1.656 22.144-.647 25.416 3.174-1.334 14.3-6.627 19.059-16.828 4.759-10.202 1.663-22.128.646-25.416zm130.376 2.232l.042-.06c-3.002 4.288-3.426 5.456-3.87 7.007-.235.824-.107 1.081-.079 1.124.124.192.729.28 1.17.346.354.051.718.104 1.06.213a1.916 1.916 0 0 1 1.326 1.838c0 .58.016 1.71.115 2.822.736-.66 1.712-1.543 2.47-2.256a.959.959 0 1 1 1.315 1.397 183.132 183.132 0 0 1-3.398 3.084c1.008 3.312 3.84 4.557 5.484 5.009a.96.96 0 0 1 .683 1.131l.063-.026c.463-1.415 1.81-2.436 3.418-2.463 1.258-.022 2.825-.033 4.54-.03-.904-.493-2.234-1.476-3.226-3.308-1.008-1.862-1.445-4.146-1.312-6.83-2.026-.027-4.137-.535-6.029-1.658-2.783-1.652-4.08-4.265-3.772-7.34zm8.728-6.049c-.862.1-2.217.42-3.156.88a11.976 11.976 0 0 0-2.616 1.782.934.934 0 0 1-.09.36c-1.818 3.82-1.148 6.915 1.886 8.717 1.527.907 3.41 1.347 5.237 1.36.228-1.644.645-3.417 1.248-5.314.462-1.456 1.547-2.38 2.974-2.538 1.591-.176 3.27.67 4.074 2.056.787 1.355.624 2.98-.449 4.46-1.183 1.63-3.47 2.797-6.095 3.164-.145 2.393.198 4.413 1.03 5.981.831 1.569 1.947 2.324 2.59 2.651l-.007.03c.136-.72.733-2.445 3.344-2.92.645-.118 1.531-.228 2.53-.286l-.11.141c1.834-2.267 2.386-4.737 1.846-8.26-1.451-9.443-8.192-12.96-14.236-12.264zm-73.437 12.58a.96.96 0 0 1-.65 1.19c-.031.009-3.071.901-4.737 1.345a.954.954 0 0 1-1.174-.679.96.96 0 0 1 .68-1.175c1.643-.438 4.66-1.323 4.69-1.332a.96.96 0 0 1 1.19.65zm79.338-5.437c-.07 0-.14.004-.209.012-.666.073-1.122.48-1.355 1.21-.516 1.624-.884 3.153-1.106 4.576 1.843-.316 3.45-1.1 4.324-2.305.625-.861.743-1.68.343-2.37-.387-.665-1.217-1.123-1.997-1.123zM90.902 209.295l-.067.112c-.9 1.498-2.576 3.579-5.263 4.417a8.148 8.148 0 0 1-2.44.367c-2.02 0-4.2-.705-6.516-2.11-.618 3.498-2.624 12.686-7.51 19.278a17.09 17.09 0 0 1-2.241 2.508c1.36 1.504 5.365 5.534 9.499 5.8 1.826.12 3.418-.504 4.875-1.9 1.117-1.069 2.26-2.28 3.063-4.287-3.105-3.633-3.856-6.302-3.887-6.417a.96.96 0 0 1 1.85-.508c.013.042.572 1.94 2.673 4.666.311-1.88.25-4.17.111-5.377a2.242 2.242 0 0 1 1.146-2.224 2.255 2.255 0 0 1 2.508.207c.182.145.382.315.6.501.846.718 1.897 1.612 3.185 2.148a.77.77 0 0 0 .669-.031c.186-.107.299-.296.334-.56.468-3.507-.133-8.246-1.787-14.085a37.804 37.804 0 0 0-.802-2.505zm67.727 4.02h-.552a.98.98 0 0 1-.016.001h-2.404l-.129.005a2.184 2.184 0 0 0-2.026 2.176c0 1.203.979 2.181 2.182 2.181h4.304a2.184 2.184 0 0 0 2.182-2.18 2.184 2.184 0 0 0-2.155-2.182h-1.37l-.016-.001zm-7.912-19.427a.965.965 0 0 1-.15.008c-.178.022-.351.05-.52.081-3.07.563-6.328 6.456-6.095 13.5.175 5.257 1.786 9.691 2.592 10.095.06.03.116.065.167.105l5.503.002a4.09 4.09 0 0 1 .701-5.202 4.089 4.089 0 0 1-1.62-3.26c0-1.666.997-3.101 2.426-3.743-.4-.371-.731-.83-.963-1.363l-2.04-4.698-1.135 4.78a.96.96 0 0 1-1.867-.444l1.802-7.584a.96.96 0 0 1 1.813-.16l3.187 7.342a2.183 2.183 0 0 0 2.87 1.131 2.16 2.16 0 0 0 1.156-1.2 2.16 2.16 0 0 0-.025-1.668l-2.642-6.087c-.29-.59-1.636-1.51-2.768-1.685-.493-.076-1.048-.13-2.392.05zm7.636 13.102l-.072.02a.962.962 0 0 1-.22.025h-2.666a2.184 2.184 0 0 0-2.181 2.181c0 1.203.978 2.182 2.18 2.182h5.918a2.184 2.184 0 0 0 2.181-2.182 2.184 2.184 0 0 0-2.18-2.18h-2.667a.959.959 0 0 1-.293-.046zm3.788-6.236h-1.902l.04.091a4.071 4.071 0 0 1 .05 3.136c-.165.42-.393.802-.673 1.137h2.485a2.184 2.184 0 0 0 2.182-2.183 2.184 2.184 0 0 0-2.182-2.181zm1.59-6.28l-6.248-.002c.05.082.095.164.136.247l1.787 4.116h4.325a2.184 2.184 0 0 0 2.182-2.18 2.184 2.184 0 0 0-2.182-2.182z"/>
        <path fill="#FF4A00" d="M112.638 237.474a5.349 5.349 0 0 1 5.343 5.343 5.35 5.35 0 0 1-5.343 5.343 5.35 5.35 0 0 1-5.343-5.343 5.349 5.349 0 0 1 5.343-5.343z"/>
        <path fill="#000" d="M131.723 7.8c.53 0 .96.43.96.96v49.496l70.357 76.121h-29.087l80.493 146.153H9l80.493-146.153H60.406l70.357-76.122V8.759c0-.53.43-.96.96-.96zm40.04 126.577h-80.08L12.247 278.612H251.2l-79.437-144.235zm-40.04-74.332l-66.93 72.413h133.86l-66.93-72.413zm80.062 12.198l.688 1.79-37.118 14.25-.688-1.792 37.118-14.248zM53.026 68.918l36.49 15.79-.762 1.76-36.49-15.79.762-1.76zm140.82-24.578l1.314 1.399-28.983 27.217-1.314-1.399 28.983-27.217zM72.118 41.79l27.818 28.407-1.37 1.343-27.819-28.407 1.371-1.343zm94.576-16.506l1.745.799-16.551 36.15-1.745-.798 16.551-36.15zm-66.65-1.396L115.069 60.7l-1.777.725-15.023-36.813 1.777-.724z"/>
        <path fill="#000" d="M64.003 132.74l1.403 1.52h-.98l-.423-.458-.424.457h-.98l1.404-1.518zm6.888 0l1.404 1.52h-.98l-.424-.458-.424.457h-.98l1.404-1.518zm6.384 0l1.404 1.52h-.981l-.423-.458-.424.457h-.98l1.404-1.518zm6.888 0l1.403 1.52h-.98l-.423-.458-.424.457h-.98l1.404-1.518zm6.71 0l1.404 1.52h-.981l-.423-.458-.424.457h-.98l1.404-1.518zm6.889 0l1.402 1.52h-.98l-.422-.458-.424.457h-.98l1.404-1.518zm6.382 0l1.404 1.52h-.98l-.424-.458-.423.457h-.98l1.403-1.518zm6.889 0l1.404 1.52h-.98l-.424-.458-.424.457h-.98l1.404-1.518zm6.918 0l1.404 1.52h-.98l-.424-.458-.423.457h-.98l1.403-1.518zm6.888 0l1.404 1.52h-.98l-.424-.458-.423.457h-.98l1.403-1.518zm6.384 0l1.404 1.52h-.98l-.424-.458-.423.457h-.98l1.403-1.518zm6.888 0l1.404 1.52h-.98l-.424-.458-.424.457h-.98l1.404-1.518zm6.891 0l1.404 1.52h-.98l-.424-.458-.423.457h-.98l1.403-1.518zm6.383 0l1.404 1.52h-.98l-.424-.458-.423.457h-.98l1.403-1.518zm6.889 0l1.404 1.52h-.98l-.424-.458-.424.457h-.98l1.404-1.518zm6.917 0l1.404 1.52h-.98l-.424-.458-.423.457h-.98l1.403-1.518zm6.89 0l1.403 1.52h-.98l-.423-.458-.424.457h-.98l1.404-1.518zm6.382 0l1.404 1.52h-.98l-.424-.458-.423.457h-.98l1.403-1.518zm6.889 0l1.404 1.52h-.98l-.424-.458-.424.457h-.98l1.404-1.518zm6.71 0l1.404 1.52h-.98l-.424-.458-.424.457h-.98l1.404-1.518zm6.889 0l1.404 1.52h-.981l-.423-.458-.424.457h-.98l1.404-1.518zm-71.172-3.365l1.68 1.818-.529.488-1.151-1.246-1.153 1.246-.528-.488 1.68-1.818zm6.888 0l1.68 1.818-.529.488-1.151-1.246-1.152 1.246-.529-.488 1.68-1.818zm6.89 0l1.681 1.818-.528.488-1.152-1.246-1.153 1.246-.528-.488 1.68-1.818zm-60.838 0l1.68 1.818-.528.488-1.152-1.246-1.152 1.246-.528-.488 1.68-1.818zm67.222 0l1.68 1.818-.527.488-1.153-1.246-1.152 1.246-.528-.488 1.68-1.818zm6.889 0l1.68 1.818-.529.488-1.151-1.246-1.152 1.246-.529-.488 1.68-1.818zm-67.401 0l1.68 1.818-.528.488-1.152-1.246-1.152 1.246-.528-.488 1.68-1.818zm20.16 0l1.68 1.818-.528.488-1.152-1.246-1.152 1.246-.528-.488 1.68-1.818zm54.16 0l1.678 1.818-.528.488-1.15-1.245-1.153 1.245-.528-.488 1.68-1.818zm6.887 0l1.68 1.818-.528.488-1.152-1.246-1.152 1.246-.528-.488 1.68-1.818zm-101.189 0l1.68 1.818-.528.488-1.152-1.246-1.152 1.246-.528-.488 1.68-1.818zm26.87 0l1.68 1.818-.528.488-1.152-1.246-1.153 1.246-.528-.488 1.681-1.818zm80.702 0l1.681 1.818-.529.488-1.152-1.246-1.152 1.246-.528-.488 1.68-1.818zm6.889 0l1.68 1.818-.528.488-1.152-1.246-1.152 1.246-.529-.488 1.68-1.818zm-108.078 0l1.68 1.818-.528.488-1.152-1.246-1.152 1.246-.528-.488 1.68-1.818zm26.87 0l1.68 1.818-.528.488-1.152-1.246-1.152 1.246-.528-.488 1.68-1.818zm87.918 0l1.68 1.818-.528.488-1.152-1.246-1.152 1.246-.528-.488 1.68-1.818zm6.889 0l1.68 1.818-.53.488-1.15-1.246-1.153 1.246-.528-.488 1.68-1.818zm-81 0l1.68 1.818-.53.488-1.15-1.246-1.152 1.246-.529-.488 1.681-1.818zm6.888 0l1.68 1.818-.528.488-1.152-1.246-1.152 1.246-.529-.488 1.68-1.818zm-37.232-3.403l1.68 1.817-.529.489-1.151-1.245-1.152 1.245-.529-.489 1.68-1.817zm-6.888 0l1.68 1.817-.529.489-1.151-1.245-1.153 1.245-.528-.489 1.68-1.817zm87.916 0l1.681 1.817-.528.489-1.153-1.245-1.152 1.245-.528-.489 1.68-1.817zm-33.968 0l1.68 1.817-.528.489-1.152-1.245-1.152 1.245-.528-.489 1.68-1.817zm-33.461 0l1.68 1.817-.529.489-1.151-1.245-1.153 1.245-.528-.489 1.68-1.817zm13.27 0l1.681 1.817-.528.489-1.152-1.245-1.152 1.245-.529-.489 1.68-1.817zm13.807 0l1.68 1.817-.528.489-1.152-1.245-1.152 1.245-.528-.489 1.68-1.817zm53.624 0l1.68 1.817-.527.489-1.153-1.245-1.151 1.245-.529-.489 1.68-1.817zm-40.352 0l1.68 1.817-.528.489-1.152-1.245-1.153 1.245-.528-.489 1.681-1.817zm-67.22 0l1.68 1.817-.528.489-1.152-1.245-1.152 1.245-.529-.489 1.68-1.817zm74.111 0l1.68 1.817-.528.489-1.152-1.245-1.152 1.245-.528-.489 1.68-1.817zm13.272 0l1.68 1.817-.528.489-1.152-1.245-1.152 1.245-.53-.489 1.682-1.817zm13.807 0l1.68 1.817-.529.489-1.151-1.245-1.153 1.245-.528-.489 1.68-1.817zm13.27 0l1.681 1.817-.528.489-1.152-1.245-1.152 1.245-.529-.489 1.68-1.817zm-94.478 0l1.68 1.817-.529.489-1.151-1.245-1.152 1.245-.529-.489 1.68-1.817zm60.512 0l1.68 1.817-.528.489-1.152-1.245-1.151 1.245-.529-.489 1.68-1.817zm40.677 0l1.68 1.817-.528.489-1.152-1.245-1.152 1.245-.528-.489 1.68-1.817zm-87.918 0l1.681 1.817-.529.489-1.152-1.245-1.151 1.245-.529-.489 1.68-1.817zm13.807 0l1.68 1.817-.528.489-1.152-1.245-1.152 1.245-.528-.489 1.68-1.817zm3.444-3.099l1.68 1.817-.528.489-1.152-1.245-1.152 1.245-.529-.489 1.68-1.817zm-13.806 0l1.68 1.817-.528.489-1.152-1.245-1.152 1.245-.528-.489 1.68-1.817zm-13.272 0l1.68 1.817-.528.489-1.152-1.245-1.153 1.245-.528-.489 1.681-1.817zm-6.888 0l1.68 1.817-.528.489-1.152-1.245-1.152 1.245-.528-.489 1.68-1.817zm54.129 0l1.68 1.817-.528.489-1.152-1.245-1.153 1.245-.528-.489 1.68-1.817zm6.383 0l1.68 1.817-.527.489-1.153-1.245-1.152 1.245-.528-.489 1.68-1.817zm6.889 0l1.68 1.817-.529.489-1.151-1.245-1.152 1.245-.529-.489 1.68-1.817zm-40.323 0l1.68 1.817-.529.489-1.15-1.245-1.153 1.245-.529-.489 1.681-1.817zm-33.788 0l1.68 1.817-.528.489-1.152-1.245-1.152 1.245-.528-.489 1.68-1.817zm-6.889 0l1.68 1.817-.528.489-1.152-1.245-1.152 1.245-.528-.489 1.68-1.817zm60.837 0l1.68 1.817-.529.489-1.151-1.245-1.152 1.245-.529-.489 1.68-1.817zm-33.967 0l1.68 1.817-.528.489-1.152-1.245-1.152 1.245-.528-.489 1.68-1.817zm27.079 0l1.68 1.817-.529.489-1.151-1.245-1.153 1.245-.528-.489 1.68-1.817zm33.97 0l1.678 1.817-.528.489-1.15-1.245-1.153 1.245-.528-.489 1.68-1.817zm6.887 0l1.68 1.817-.528.489-1.152-1.245-1.152 1.245-.528-.489 1.68-1.817zm6.383 0l1.681 1.817-.529.489-1.152-1.245-1.152 1.245-.528-.489 1.68-1.817zm6.889 0l1.68 1.817-.528.489-1.152-1.245-1.152 1.245-.529-.489 1.68-1.817zm6.71 0l1.68 1.817-.528.489-1.152-1.245-1.152 1.245-.528-.489 1.68-1.817zm-70.667-3.403l1.68 1.817-.528.488-1.152-1.245-1.152 1.245-.528-.488 1.68-1.817zm-13.807 0l1.681 1.817-.529.488-1.152-1.245-1.151 1.245-.529-.488 1.68-1.817zm27.079 0l1.68 1.817-.528.488-1.152-1.245-1.152 1.245-.528-.488 1.68-1.817zm6.888 0l1.68 1.817-.528.488-1.152-1.245-1.153 1.245-.528-.488 1.681-1.817zm-53.948 0l1.68 1.817-.529.488-1.151-1.245-1.152 1.245-.529-.488 1.68-1.817zm-6.888 0l1.68 1.817-.529.488-1.151-1.245-1.153 1.245-.528-.488 1.68-1.817zm67.727 0l1.68 1.817-.528.488-1.152-1.245-1.152 1.245-.528-.488 1.68-1.817zm6.383 0l1.68 1.817-.528.488-1.152-1.245-1.151 1.245-.529-.488 1.68-1.817zm-60.512 0l1.68 1.817-.529.488-1.151-1.245-1.152 1.245-.529-.488 1.68-1.817zm67.4 0l1.682 1.817-.53.488-1.151-1.245-1.152 1.245-.53-.488 1.682-1.817zm-47.24 0l1.68 1.817-.528.488-1.152-1.245-1.152 1.245-.529-.488 1.68-1.817zm54.158 0l1.681 1.817-.528.488-1.153-1.245-1.152 1.245-.528-.488 1.68-1.817zm-40.352 0l1.68 1.817-.528.488-1.152-1.245-1.152 1.245-.528-.488 1.68-1.817zm-27.077 0l1.68 1.817-.529.488-1.151-1.245-1.153 1.245-.528-.488 1.68-1.817zm74.319 0l1.68 1.817-.529.488-1.151-1.245-1.153 1.245-.528-.488 1.68-1.817zm6.382 0l1.68 1.817-.527.488-1.153-1.245-1.151 1.245-.529-.488 1.68-1.817zm6.889 0l1.68 1.817-.528.488-1.152-1.245-1.152 1.245-.529-.488 1.68-1.817zm-50.685-3.367l1.68 1.818-.529.488-1.151-1.246-1.152 1.246-.529-.488 1.68-1.818zm-53.948 0l1.68 1.818-.528.488-1.152-1.246-1.152 1.246-.529-.488 1.68-1.818zm19.981 0l1.68 1.818-.528.488-1.152-1.246-1.152 1.246-.528-.488 1.68-1.818zm13.807 0l1.68 1.818-.53.488-1.15-1.246-1.152 1.246-.529-.488 1.681-1.818zm-6.918 0l1.68 1.818-.528.488-1.152-1.246-1.152 1.246-.528-.488 1.68-1.818zm20.19 0l1.68 1.818-.529.488-1.151-1.246-1.153 1.246-.528-.488 1.68-1.818zm-40.35 0l1.68 1.818-.529.488-1.151-1.246-1.152 1.246-.528-.488 1.68-1.818zm6.888 0l1.68 1.818-.528.488-1.152-1.246-1.153 1.246-.528-.488 1.681-1.818zm47.24 0l1.681 1.818-.528.488-1.152-1.246-1.153 1.246-.528-.488 1.68-1.818zm-20.162 0l1.68 1.818-.528.488-1.152-1.246-1.152 1.246-.529-.488 1.68-1.818zm26.546 0l1.68 1.818-.527.488-1.153-1.246-1.152 1.246-.528-.488 1.68-1.818zm6.889 0l1.68 1.818-.529.488-1.151-1.246-1.152 1.246-.529-.488 1.68-1.818zm6.918 0l1.68 1.818-.529.488-1.15-1.246-1.153 1.246-.528-.488 1.68-1.818zm6.888 0l1.68 1.818-.528.488-1.152-1.246-1.152 1.246-.528-.488 1.68-1.818zm6.383 0l1.681 1.818-.529.488-1.152-1.246-1.152 1.246-.528-.488 1.68-1.818zm6.889 0l1.68 1.818-.528.488-1.152-1.246-1.152 1.246-.529-.488 1.68-1.818zm-3.445-3.403l1.68 1.818-.527.488-1.153-1.246-1.151 1.246-.529-.488 1.68-1.818zm-87.59 0l1.68 1.818-.529.488-1.151-1.246-1.152 1.246-.529-.488 1.68-1.818zm27.078 0l1.68 1.818-.528.488-1.152-1.246-1.152 1.246-.528-.488 1.68-1.818zm13.272 0l1.68 1.818-.529.488-1.151-1.246-1.152 1.246-.529-.488 1.68-1.818zm20.162 0l1.68 1.818-.528.488-1.152-1.246-1.151 1.246-.529-.488 1.68-1.818zm13.806 0l1.681 1.818-.528.488-1.153-1.246-1.152 1.246-.528-.488 1.68-1.818zm-61.047 0l1.681 1.818-.529.488-1.152-1.246-1.15 1.246-.53-.488 1.68-1.818zm-6.382-.04l1.68 1.818-.53.489-1.15-1.246-1.153 1.246-.528-.489 1.68-1.818zm-13.6 0l1.681 1.818-.529.489-1.151-1.246-1.152 1.246-.529-.489 1.68-1.818zm40.677 0l1.68 1.818-.528.489-1.152-1.246-1.152 1.246-.528-.489 1.68-1.818zm13.272 0l1.68 1.818-.528.489-1.152-1.247-1.153 1.247-.528-.489 1.681-1.818zm-27.078 0l1.68 1.818-.528.489-1.152-1.247-1.152 1.247-.529-.489 1.68-1.818zm33.97 0l1.68 1.818-.53.489-1.15-1.246-1.153 1.246-.528-.489 1.68-1.818zm13.27 0l1.682 1.818-.53.489-1.151-1.247-1.152 1.247-.53-.489 1.682-1.818zm13.808 0l1.68 1.818-.529.489-1.151-1.246-1.153 1.246-.528-.489 1.68-1.818zm-57.574-3.099l1.68 1.818-.53.489-1.15-1.246-1.152 1.246-.529-.489 1.681-1.818zm6.888 0l1.68 1.818-.528.489-1.152-1.247-1.152 1.247-.529-.489 1.68-1.817zm-20.695 0l1.68 1.818-.528.489-1.152-1.247-1.152 1.247-.528-.489 1.68-1.817zm6.89 0l1.68 1.818-.53.489-1.15-1.247-1.153 1.247-.528-.489 1.68-1.817zm-13.273 0l1.68 1.818-.528.489-1.152-1.247-1.153 1.247-.528-.489 1.681-1.817zm33.462 0l1.68 1.818-.529.489-1.151-1.247-1.153 1.247-.528-.489 1.68-1.817zm6.888 0l1.68 1.818-.529.489-1.151-1.247-1.152 1.247-.529-.489 1.68-1.817zm-47.238 0l1.68 1.818-.529.489-1.151-1.246-1.152 1.246-.528-.489 1.68-1.818zm54.129 0l1.68 1.818-.528.489-1.152-1.247-1.153 1.247-.528-.489 1.68-1.817zm6.383 0l1.68 1.818-.527.489-1.153-1.247-1.152 1.247-.528-.489 1.68-1.817zm6.889 0l1.68 1.818-.529.489-1.151-1.246-1.152 1.246-.529-.489 1.68-1.818zm6.918 0l1.68 1.818-.529.489-1.15-1.246-1.153 1.246-.528-.489 1.68-1.818zm6.888 0l1.68 1.818-.528.489-1.152-1.247-1.152 1.247-.528-.489 1.68-1.817zm6.383 0l1.681 1.818-.529.489-1.152-1.247-1.152 1.247-.528-.489 1.68-1.817zm-84.146-3.402l1.68 1.817-.529.488-1.151-1.245-1.152 1.245-.529-.488 1.68-1.817zm6.889 0l1.68 1.817-.529.488-1.151-1.245-1.153 1.245-.528-.488 1.68-1.817zm6.382 0l1.681 1.817-.529.488-1.152-1.245-1.151 1.245-.529-.488 1.68-1.817zm6.889 0l1.68 1.817-.528.488-1.152-1.245-1.152 1.245-.529-.488 1.68-1.817zm6.918 0l1.68 1.817-.528.488-1.152-1.245-1.152 1.245-.528-.488 1.68-1.817zm6.888 0l1.68 1.817-.528.488-1.152-1.245-1.152 1.245-.528-.488 1.68-1.817zm6.384 0l1.68 1.817-.528.488-1.152-1.245-1.152 1.245-.528-.488 1.68-1.817zm6.888 0l1.68 1.817-.528.488-1.152-1.245-1.153 1.245-.528-.488 1.681-1.817zm6.891 0l1.68 1.817-.528.488-1.152-1.245-1.152 1.245-.528-.488 1.68-1.817zm6.383 0l1.68 1.817-.528.488-1.152-1.245-1.151 1.245-.529-.488 1.68-1.817zm6.889 0l1.68 1.817-.528.488-1.152-1.245-1.152 1.245-.53-.488 1.682-1.817zm6.917 0l1.681 1.817-.528.488-1.153-1.245-1.152 1.245-.528-.488 1.68-1.817zm6.89 0l1.68 1.817-.529.488-1.151-1.245-1.153 1.245-.528-.488 1.68-1.817z"/>
    </g>
</svg>
