<svg xmlns="http://www.w3.org/2000/svg" width="218" height="337" viewBox="0 0 218 337">
    <g fill="none" fill-rule="evenodd">
        <path fill="#000" d="M119.33 328.752l1.06 1.148-.333.31-.727-.788-.727.787-.334-.31 1.06-1.147zm4.349 0l1.06 1.148-.333.31-.727-.788-.727.787-.334-.31 1.06-1.147zm4.03 0l1.061 1.148-.333.31-.728-.788-.727.787-.334-.31 1.061-1.147zm-25.441 0l1.06 1.148-.333.31-.727-.788-.727.787-.334-.31 1.06-1.147zm4.368 0l1.06 1.148-.333.31-.727-.788-.727.787-.334-.31 1.06-1.147zm4.349 0l1.06 1.148-.333.31-.727-.788-.727.787-.334-.31 1.06-1.147zm4.03 0l1.061 1.148-.334.31-.727-.788-.727.787-.334-.31 1.061-1.147zm14.869-2.15l1.06 1.148-.333.31-.727-.788-.727.787-.334-.309 1.06-1.148zm-29.791 0l1.06 1.148-.333.31-.727-.788-.727.787-.334-.309 1.06-1.148zm34.14 0l1.061 1.148-.334.31-.727-.788-.727.787-.334-.309 1.06-1.148zm-21.073 0l1.06 1.148-.334.309-.726-.787-.728.787-.333-.309 1.06-1.148zm-8.718 0l1.061 1.148-.334.31-.727-.788-.727.787-.334-.309 1.061-1.148zm21.411 0l1.061 1.148-.333.31-.728-.788-.727.787-.334-.309 1.061-1.148zm12.748 0l1.06 1.148-.333.31-.727-.788-.727.787-.334-.309 1.06-1.148zm-21.411 0l1.06 1.148-.333.31-.727-.788-.727.787-.334-.309 1.06-1.148zm-8.38 0l1.06 1.148-.333.31-.727-.788-.727.787-.334-.309 1.06-1.148zm12.695 0l1.06 1.148-.334.309-.726-.787-.728.787-.333-.309 1.06-1.148zm10.554-1.958l1.06 1.149-.334.308-.726-.787-.727.788-.334-.31 1.06-1.148zm-8.38 0l1.06 1.148-.333.31-.727-.788-.727.787-.334-.308 1.06-1.149zm12.747 0l1.061 1.148-.334.31-.727-.788-.726.787-.335-.308 1.061-1.149zm4.35 0l1.06 1.148-.333.31-.728-.788-.727.788-.334-.31 1.061-1.148zm4.03 0l1.06 1.148-.333.31-.727-.788-.727.788-.334-.31 1.06-1.148zm-42.538 0l1.06 1.149-.333.308-.727-.787-.727.788-.334-.31 1.06-1.148zm17.062 0l1.06 1.148-.333.31-.727-.788-.727.788-.334-.31 1.06-1.148zm-12.694 0l1.06 1.149-.333.308-.727-.787-.727.788-.334-.31 1.06-1.148zm4.349 0l1.06 1.148-.333.31-.727-.788-.727.788-.334-.31 1.06-1.148zm16.724 0l1.061 1.148-.333.31-.728-.788-.727.788-.334-.31 1.061-1.148zm-12.694 0l1.061 1.149-.334.308-.727-.787-.727.788-.334-.31 1.061-1.148zm23.586-2.15l1.06 1.148-.333.31-.727-.787-.727.786-.334-.309 1.06-1.147zm-4.368 0l1.061 1.148-.334.31-.727-.787-.727.786-.334-.309 1.06-1.147zm12.747 0l1.061 1.148-.333.31-.728-.787-.727.786-.334-.309 1.061-1.147zm4.35 0l1.06 1.148-.333.31-.727-.787-.727.786-.334-.309 1.06-1.147zm-51.237 0l1.06 1.148-.333.31-.727-.787-.727.786-.334-.309 1.06-1.147zm4.349 0l1.061 1.148-.334.31-.727-.787-.727.786-.334-.309 1.061-1.147zm21.411 0l1.061 1.148-.333.31-.728-.787-.727.786-.334-.309 1.061-1.147zm-4.348 0l1.06 1.148-.334.31-.726-.787-.728.786-.333-.309 1.06-1.147zm8.379 0l1.06 1.148-.333.31-.727-.787-.727.786-.334-.309 1.06-1.147zm-21.074 0l1.06 1.148-.333.31-.727-.787-.727.786-.334-.309 1.06-1.147zm4.35 0l1.06 1.148-.334.31-.726-.787-.728.786-.333-.309 1.06-1.147zm29.79 0l1.06 1.148-.333.31-.727-.787-.727.786-.334-.309 1.06-1.147zm-25.76 0l1.06 1.148-.333.31-.727-.787-.727.786-.334-.309 1.06-1.147zm-6.205-2.116l1.06 1.149-.333.309-.727-.788-.727.788-.334-.31 1.06-1.148zm4.03 0l1.061 1.149-.334.308-.727-.787-.727.788-.334-.31 1.061-1.148zm-8.38 0l1.061 1.149-.333.308-.727-.787-.727.788-.334-.31 1.06-1.148zm21.074 0l1.061 1.149-.333.309-.728-.788-.727.788-.334-.31 1.061-1.148zm4.35 0l1.06 1.149-.334.308-.726-.787-.727.788-.334-.31 1.06-1.148zm4.367 0l1.061 1.149-.334.309-.727-.788-.726.787-.335-.308 1.061-1.149zm12.73 0l1.06 1.149-.334.308-.726-.787-.728.788-.333-.31 1.06-1.148zm-8.38 0l1.06 1.149-.333.309-.728-.788-.727.788-.334-.31 1.061-1.148zm-21.446 0l1.06 1.149-.333.309-.727-.788-.727.788-.334-.31 1.06-1.148zm4.349 0l1.06 1.149-.333.309-.727-.788-.727.787-.334-.308 1.06-1.149zm21.127 0l1.06 1.149-.333.309-.727-.788-.727.788-.334-.31 1.06-1.148zm8.586 0l1.06 1.149-.333.309-.727-.788-.727.788-.334-.31 1.06-1.148zm-51.124 0l1.06 1.149-.333.308-.727-.787-.727.788-.334-.31 1.06-1.148zm19.237-2.15l1.06 1.148-.334.31-.726-.787-.728.786-.333-.309 1.06-1.147zm-12.695 0l1.06 1.148-.333.31-.727-.787-.727.786-.334-.309 1.06-1.147zm29.79 0l1.062 1.148-.334.31-.727-.787-.727.786-.334-.309 1.06-1.147zm-21.41 0l1.06 1.148-.333.31-.727-.787-.727.786-.334-.309 1.06-1.147zm29.79 0l1.061 1.148-.333.31-.728-.787-.727.786-.334-.309 1.061-1.147zm-12.747 0l1.061 1.148-.334.31-.727-.787-.727.786-.334-.309 1.06-1.147zm21.333 0l1.061 1.148-.333.31-.728-.787-.727.786-.334-.309 1.061-1.147zm-42.406 0l1.06 1.148-.334.31-.726-.787-.728.786-.333-.309 1.06-1.147zm-8.718 0l1.061 1.148-.334.31-.727-.787-.727.786-.334-.309 1.061-1.147zm25.442 0l1.06 1.148-.333.31-.727-.787-.727.786-.334-.309 1.06-1.147zm21.446 0l1.06 1.148-.333.31-.727-.787-.727.786-.334-.309 1.06-1.147zm-25.477 0l1.061 1.148-.333.31-.728-.787-.727.786-.334-.309 1.061-1.147zm34.062 0l1.061 1.148-.333.31-.728-.787-.726.786-.335-.309 1.061-1.147zm-16.965 0l1.06 1.148-.333.31-.727-.787-.727.786-.334-.309 1.06-1.147zm1.856-1.957l1.06 1.148-.333.309-.727-.787-.727.787-.334-.31 1.06-1.147zm-8.38 0l1.061 1.148-.334.309-.727-.787-.726.787-.335-.309 1.061-1.148zm12.73 0l1.06 1.148-.334.309-.726-.787-.728.787-.333-.31 1.06-1.147zm-25.477 0l1.06 1.148-.333.309-.727-.787-.727.787-.334-.309 1.06-1.148zm4.03 0l1.061 1.148-.333.309-.728-.787-.727.787-.334-.31 1.061-1.147zm34.062 0l1.061 1.148-.333.309-.728-.787-.726.787-.334-.309 1.06-1.148zm-8.38 0l1.062 1.148-.334.309-.727-.787-.727.787-.334-.31 1.06-1.147zm4.35 0l1.061 1.148-.334.309-.727-.787-.727.787-.334-.31 1.061-1.147zm-42.726 0l1.061 1.148-.334.309-.727-.787-.727.787-.334-.31 1.061-1.147zm-8.38 0l1.061 1.148-.333.309-.727-.787-.727.787-.334-.31 1.06-1.147zm25.424 0l1.06 1.148-.334.309-.726-.787-.727.787-.334-.31 1.06-1.147zm-12.73 0l1.062 1.148-.334.309-.727-.787-.727.787-.334-.31 1.06-1.147zm21.446 0l1.061 1.148-.333.309-.728-.787-.727.787-.334-.31 1.061-1.147zm-29.79 0l1.06 1.148-.333.309-.727-.787-.727.787-.334-.31 1.06-1.147zm31.965-2.15l1.06 1.148-.333.31-.727-.788-.727.787-.334-.309 1.06-1.148zm-25.76 0l1.06 1.148-.333.31-.727-.788-.727.787-.334-.309 1.06-1.148zm17.043 0l1.061 1.148-.334.31-.727-.788-.727.787-.334-.31 1.06-1.147zm4.368 0l1.06 1.148-.333.31-.727-.788-.727.787-.334-.31 1.06-1.147zm21.314 0l1.061 1.148-.333.31-.728-.788-.726.787-.335-.31 1.061-1.147zm-4.349 0l1.061 1.148-.333.31-.728-.788-.727.787-.334-.31 1.061-1.147zm-25.682 0l1.06 1.148-.333.31-.727-.788-.727.787-.334-.31 1.06-1.147zm17.096 0l1.061 1.148-.333.31-.728-.788-.727.787-.334-.31 1.061-1.147zm-25.475 0l1.06 1.148-.334.309-.726-.787-.728.787-.333-.31 1.06-1.147zm4.348 0l1.061 1.148-.333.31-.728-.788-.727.787-.334-.31 1.061-1.147zm38.093 0l1.06 1.148-.333.309-.727-.787-.727.787-.334-.31 1.061-1.147zm-50.786 0l1.06 1.148-.334.309-.726-.787-.728.787-.333-.31 1.06-1.147zm-4.35 0l1.06 1.148-.333.31-.727-.788-.727.787-.334-.309 1.06-1.148zm42.52 0l1.06 1.148-.333.31-.727-.788-.727.787-.334-.31 1.06-1.147zm-44.701-1.868l1.06 1.148-.333.309-.727-.787-.727.786-.334-.308 1.06-1.148zm46.763-.259l1.06 1.148-.333.31-.727-.788-.727.787-.334-.309 1.06-1.148zm-4.236 0l1.06 1.149-.334.308-.726-.787-.728.787-.333-.309 1.06-1.148zm-12.73 0l1.061 1.148-.334.31-.727-.788-.726.787-.335-.308 1.061-1.149zm8.38 0l1.06 1.148-.333.31-.727-.788-.727.787-.334-.309 1.06-1.148zm21.314 0l1.061 1.148-.333.31-.728-.788-.726.787-.335-.309 1.061-1.148zm-42.441 0l1.06 1.148-.333.31-.727-.788-.727.787-.334-.308 1.06-1.149zm-4.35 0l1.062 1.148-.334.31-.727-.788-.727.787-.334-.309 1.06-1.148zm21.446 0l1.061 1.148-.333.31-.728-.788-.727.787-.334-.309 1.061-1.148zm-29.79 0l1.06 1.148-.333.31-.727-.788-.727.787-.334-.309 1.06-1.148zm46.756 0l1.061 1.149-.334.308-.727-.787-.727.787-.334-.309 1.061-1.148zm-42.726 0l1.061 1.149-.334.308-.727-.787-.727.787-.334-.309 1.061-1.148zm17.044 0l1.06 1.149-.334.308-.726-.787-.727.787-.334-.309 1.06-1.148zm29.712 0l1.061 1.148-.333.31-.728-.788-.726.787-.334-.308 1.06-1.149zm-34.062 0l1.061 1.148-.333.31-.728-.788-.727.787-.334-.309 1.061-1.148zm19.271-2.15l1.061 1.148-.333.31-.728-.788-.727.787-.334-.309 1.061-1.148zm-21.127 0l1.061 1.148-.333.31-.728-.788-.727.787-.334-.309 1.061-1.148zm-17.043 0l1.06 1.148-.333.31-.727-.788-.727.787-.334-.308 1.06-1.149zm59.485 0l1.06 1.148-.333.31-.727-.788-.727.787-.334-.308 1.06-1.149zm-51.105 0l1.06 1.148-.333.31-.727-.788-.727.787-.334-.308 1.06-1.149zm38.376 0l1.061 1.148-.333.31-.728-.788-.727.787-.334-.309 1.061-1.148zm-16.965 0l1.06 1.148-.333.31-.727-.788-.727.787-.334-.309 1.06-1.148zm25.345 0l1.06 1.149-.333.308-.727-.787-.727.787-.334-.309 1.061-1.148zm-42.441 0l1.06 1.149-.334.308-.726-.787-.728.787-.333-.309 1.06-1.148zm29.825 0l1.06 1.148-.333.31-.727-.788-.727.787-.334-.309 1.06-1.148zm-38.17 0l1.06 1.149-.334.308-.726-.787-.728.787-.333-.309 1.06-1.148zm16.724 0l1.06 1.148-.333.31-.727-.788-.727.787-.334-.309 1.06-1.148zm30.031 0l1.061 1.148-.333.31-.728-.788-.726.787-.335-.309 1.061-1.148zm-25.682 0l1.061 1.148-.334.31-.727-.788-.727.787-.334-.309 1.06-1.148zm8.717 0l1.06 1.148-.333.31-.727-.788-.727.787-.334-.308 1.06-1.149zm10.442-1.957l1.06 1.147-.333.31-.727-.787-.727.787-.334-.31 1.06-1.147zm-8.586 0l1.06 1.147-.333.31-.727-.787-.727.787-.334-.31 1.06-1.147zm-33.821 0l1.06 1.147-.333.31-.727-.787-.727.787-.334-.31 1.06-1.147zm46.756 0l1.061 1.147-.334.31-.727-.787-.727.787-.334-.31 1.061-1.147zm12.747 0l1.061 1.147-.333.31-.728-.787-.727.787-.334-.31 1.061-1.147zm-8.717 0l1.061 1.147-.333.31-.728-.787-.726.787-.334-.31 1.06-1.147zm-25.345 0l1.061 1.147-.334.31-.727-.787-.726.787-.335-.31 1.061-1.147zm12.73 0l1.06 1.147-.334.31-.726-.787-.728.787-.333-.31 1.06-1.147zm-25.477 0l1.06 1.147-.333.31-.727-.787-.727.787-.334-.31 1.06-1.147zm4.03 0l1.061 1.147-.333.31-.728-.787-.727.787-.334-.31 1.061-1.147zm38.411 0l1.061 1.147-.333.31-.728-.787-.726.787-.335-.31 1.061-1.147zm-25.345 0l1.061 1.147-.333.31-.728-.787-.727.787-.334-.31 1.061-1.147zm-8.716 0l1.06 1.147-.334.31-.726-.787-.727.787-.334-.31 1.06-1.147zm-12.73 0l1.062 1.147-.334.31-.727-.787-.727.787-.334-.31 1.06-1.147zm-4.314 0l1.061 1.147-.334.31-.727-.787-.727.787-.334-.31 1.061-1.147zm19.218-2.15l1.061 1.147-.334.31-.727-.788-.727.788-.334-.31 1.06-1.148zm4.368 0l1.06 1.147-.333.31-.727-.788-.727.788-.334-.31 1.06-1.148zm-8.717 0l1.06 1.147-.333.31-.727-.788-.727.788-.334-.31 1.06-1.148zm30.031 0l1.061 1.147-.333.31-.728-.788-.726.788-.335-.31 1.061-1.148zm4.031 0l1.06 1.148-.333.308-.727-.787-.727.788-.334-.31 1.061-1.148zm-16.966 0l1.061 1.147-.333.31-.728-.788-.727.788-.334-.31 1.061-1.148zm8.586 0l1.061 1.147-.333.31-.728-.788-.727.788-.334-.31 1.061-1.148zm-29.713 0l1.061 1.147-.333.31-.728-.788-.727.788-.334-.31 1.061-1.148zm17.097 0l1.06 1.147-.333.31-.727-.788-.727.787-.334-.308 1.06-1.149zm25.345 0l1.06 1.147-.333.31-.727-.788-.727.787-.334-.308 1.06-1.149zm-16.965 0l1.06 1.147-.333.31-.727-.788-.727.788-.334-.31 1.06-1.148zm21.333 0l1.06 1.147-.333.31-.727-.788-.727.788-.334-.31 1.06-1.148zm-63.853 0l1.06 1.147-.333.31-.727-.788-.727.787-.334-.308 1.06-1.149zm4.35 0l1.06 1.148-.334.308-.726-.787-.728.788-.333-.31 1.06-1.148zm8.345 0l1.06 1.148-.334.308-.726-.787-.728.788-.333-.31 1.06-1.148zm-4.315 0l1.06 1.147-.333.31-.727-.788-.727.787-.334-.308 1.06-1.149zm23.585-2.127l1.061 1.148-.333.31-.728-.788-.727.787-.334-.309 1.061-1.148zm-4.349 0l1.061 1.148-.334.31-.727-.788-.726.787-.335-.308 1.061-1.149zm34.062 0l1.061 1.148-.333.31-.728-.788-.727.787-.334-.309 1.061-1.148zm-25.682 0l1.06 1.148-.333.31-.727-.788-.727.787-.334-.309 1.06-1.148zm-25.476 0l1.06 1.148-.333.31-.727-.788-.727.787-.334-.309 1.06-1.148zm8.38 0l1.06 1.148-.333.31-.728-.788-.727.787-.334-.309 1.061-1.148zm30.031 0l1.061 1.149-.334.308-.727-.787-.727.787-.334-.309 1.061-1.148zm4.03 0l1.061 1.148-.333.31-.728-.788-.726.787-.334-.308 1.06-1.149zm-29.712 0l1.06 1.149-.334.308-.726-.787-.727.787-.334-.309 1.06-1.148zm34.061 0l1.061 1.148-.333.31-.728-.788-.726.787-.335-.309 1.061-1.148zm-16.964 0l1.06 1.149-.334.308-.726-.787-.728.787-.333-.309 1.06-1.148zm-25.477 0l1.06 1.148-.333.31-.727-.788-.727.787-.334-.308 1.06-1.149zm-8.664 0l1.061 1.149-.334.308-.727-.787-.727.787-.334-.309 1.061-1.148zm-4.03 0l1.06 1.148-.333.31-.727-.788-.727.787-.334-.309 1.06-1.148zm42.407 0l1.06 1.148-.333.31-.727-.788-.727.787-.334-.309 1.06-1.148zm10.554-2.15l1.06 1.148-.333.309-.727-.787-.727.787-.334-.31 1.061-1.147zm8.717 0l1.06 1.148-.333.309-.727-.787-.727.787-.334-.31 1.06-1.147zm-55.473 0l1.06 1.148-.333.309-.727-.787-.727.787-.334-.31 1.06-1.147zm12.694 0l1.06 1.148-.333.309-.727-.787-.727.787-.334-.31 1.06-1.147zm-8.38 0l1.061 1.148-.334.309-.726-.787-.728.787-.333-.31 1.06-1.147zm25.476 0l1.061 1.148-.333.309-.728-.787-.727.787-.334-.31 1.061-1.147zm8.586 0l1.061 1.148-.333.309-.728-.787-.727.787-.334-.31 1.061-1.147zm-16.965 0l1.06 1.148-.333.309-.727-.787-.727.787-.334-.31 1.06-1.147zm29.694-.025l1.06 1.148-.333.31-.727-.788-.727.787-.334-.31 1.06-1.147zm-34.062 0l1.061 1.148-.334.31-.727-.788-.727.787-.334-.31 1.06-1.147zm-8.38 0l1.061 1.148-.333.31-.728-.788-.727.787-.334-.31 1.061-1.147zm17.097 0l1.06 1.148-.333.31-.727-.788-.727.787-.334-.31 1.06-1.147zm8.38 0l1.06 1.148-.333.31-.727-.788-.727.787-.334-.31 1.06-1.147zm8.585 0l1.061 1.148-.333.31-.728-.788-.726.787-.335-.31 1.061-1.147zm-46.755 0l1.06 1.148-.334.31-.726-.788-.728.787-.333-.31 1.06-1.147zm23.266-1.958l1.061 1.148-.334.31-.727-.788-.726.787-.335-.308 1.061-1.149zm-8.717 0l1.061 1.148-.333.31-.728-.788-.727.788-.334-.31 1.061-1.148zm17.097 0l1.06 1.148-.333.31-.727-.788-.727.788-.334-.31 1.06-1.148zm-4.03 0l1.06 1.148-.333.31-.728-.788-.727.788-.334-.31 1.061-1.148zm-8.717 0l1.06 1.149-.334.308-.726-.787-.727.788-.334-.31 1.06-1.148zm-21.074 0l1.06 1.148-.333.31-.727-.788-.727.788-.334-.31 1.06-1.148zm4.03 0l1.061 1.149-.334.308-.727-.787-.727.788-.334-.31 1.061-1.148zm59.823 0l1.06 1.149-.333.308-.727-.787-.727.788-.334-.31 1.061-1.148zm-25.682 0l1.06 1.149-.334.308-.726-.787-.728.788-.333-.31 1.06-1.148zm8.585 0l1.061 1.149-.334.308-.727-.787-.727.788-.334-.31 1.061-1.148zm8.38 0l1.06 1.148-.333.31-.728-.788-.726.788-.335-.31 1.061-1.148zm-46.791 0l1.06 1.148-.333.31-.727-.788-.727.788-.334-.31 1.06-1.148zm34.062 0l1.06 1.148-.333.31-.727-.788-.727.788-.334-.31 1.06-1.148zm17.096 0l1.061 1.148-.333.31-.728-.788-.727.788-.334-.31 1.061-1.148zm-8.717 0l1.061 1.148-.333.31-.728-.788-.726.787-.334-.308 1.06-1.149zm-38.092 0l1.06 1.148-.333.31-.727-.788-.727.787-.334-.308 1.06-1.149zm23.301-2.15l1.061 1.148-.333.31-.728-.788-.727.788-.334-.31 1.061-1.148zm12.935 0l1.061 1.148-.333.31-.728-.788-.726.788-.335-.31 1.061-1.148zm-42.725 0l1.06 1.148-.333.31-.727-.788-.727.787-.334-.308 1.06-1.149zm46.756 0l1.06 1.149-.333.308-.727-.787-.727.788-.334-.31 1.061-1.148zm4.349 0l1.06 1.148-.333.31-.727-.788-.727.787-.334-.308 1.06-1.149zm8.717 0l1.061 1.148-.334.31-.727-.788-.727.788-.334-.31 1.061-1.148zm-55.507 0l1.06 1.149-.334.308-.726-.787-.728.788-.333-.31 1.06-1.148zm21.445 0l1.06 1.148-.333.31-.727-.788-.727.787-.334-.308 1.06-1.149zm-17.097 0l1.061 1.148-.333.31-.728-.788-.727.788-.334-.31 1.061-1.148zm29.713 0l1.061 1.148-.333.31-.728-.788-.727.788-.334-.31 1.061-1.148zm-25.682 0l1.06 1.148-.333.31-.727-.788-.727.788-.334-.31 1.06-1.148zm21.446 0l1.06 1.148-.333.31-.727-.788-.727.788-.334-.31 1.06-1.148zm-38.17 0l1.06 1.149-.334.308-.726-.787-.728.788-.333-.31 1.06-1.148zm59.503 0l1.06 1.148-.333.31-.727-.788-.727.788-.334-.31 1.06-1.148zm-38.43 0l1.061 1.148-.334.31-.727-.788-.727.788-.334-.31 1.06-1.148zm4.368 0l1.06 1.148-.333.31-.727-.788-.727.788-.334-.31 1.06-1.148zm-27.616-2.126l1.06 1.148-.333.309-.727-.787-.727.787-.334-.31 1.06-1.147zm50.786 0l1.061 1.148-.333.309-.728-.787-.726.787-.334-.309 1.06-1.148zm13.067 0l1.06 1.148-.333.309-.727-.787-.727.787-.334-.31 1.061-1.147zm-38.412 0l1.061 1.148-.334.309-.727-.787-.726.787-.335-.309 1.061-1.148zm-17.096 0l1.06 1.148-.333.309-.727-.787-.727.787-.334-.31 1.06-1.147zm-4.315 0l1.061 1.148-.334.309-.727-.787-.727.787-.334-.31 1.061-1.147zm25.76 0l1.061 1.148-.333.309-.728-.787-.727.787-.334-.31 1.061-1.147zm4.03 0l1.062 1.148-.334.309-.727-.787-.727.787-.334-.31 1.06-1.147zm34.063 0l1.06 1.148-.333.309-.727-.787-.727.787-.334-.309 1.06-1.148zm-46.81 0l1.061 1.148-.334.309-.726-.787-.727.787-.334-.31 1.06-1.147zm-4.349 0l1.061 1.148-.333.309-.728-.787-.727.787-.334-.31 1.061-1.147zm21.447 0l1.06 1.148-.334.309-.726-.787-.728.787-.333-.31 1.06-1.147zm4.236 0l1.06 1.148-.333.309-.727-.787-.727.787-.334-.31 1.06-1.147zm4.35 0l1.06 1.148-.334.309-.727-.787-.727.787-.334-.31 1.061-1.147zm8.378 0l1.061 1.148-.333.309-.728-.787-.726.787-.335-.31 1.061-1.147zm4.368 0l1.061 1.148-.333.309-.728-.787-.727.787-.334-.31 1.061-1.147zm-46.81 0l1.062 1.148-.334.309-.727-.787-.727.787-.334-.309 1.06-1.148zm19.272-2.15l1.06 1.148-.333.31-.727-.788-.727.787-.334-.309 1.06-1.148zm-13.066 0l1.06 1.148-.333.31-.727-.788-.727.787-.334-.31 1.06-1.147zm25.682 0l1.061 1.148-.333.31-.728-.788-.727.787-.334-.31 1.061-1.147zm4.35 0l1.06 1.148-.333.31-.728-.788-.726.787-.335-.31 1.061-1.147zm17.096 0l1.061 1.148-.334.31-.727-.788-.727.787-.334-.31 1.061-1.147zm-30.032 0l1.061 1.148-.333.31-.728-.788-.727.787-.334-.31 1.061-1.147zm-21.127 0l1.061 1.148-.333.31-.728-.788-.727.787-.334-.31 1.061-1.147zm8.38 0l1.061 1.148-.334.31-.727-.788-.727.787-.334-.31 1.06-1.147zm4.368 0l1.06 1.148-.333.31-.727-.788-.727.787-.334-.31 1.06-1.147zm25.345 0l1.06 1.148-.333.309-.727-.787-.727.787-.334-.31 1.061-1.147zm-50.786 0l1.06 1.148-.334.309-.726-.787-.728.787-.333-.31 1.06-1.147zm4.03 0l1.06 1.148-.333.31-.727-.788-.727.787-.334-.309 1.06-1.148zm34.14 0l1.06 1.148-.333.31-.727-.788-.727.787-.334-.31 1.06-1.147zm-29.825 0l1.06 1.148-.334.309-.726-.787-.728.787-.333-.31 1.06-1.147zm51.158 0l1.06 1.148-.333.31-.727-.788-.727.787-.334-.31 1.06-1.147zm-4.368 0l1.06 1.148-.333.31-.727-.788-.727.787-.334-.309 1.06-1.148zm-19.14-1.958l1.061 1.148-.334.31-.726-.788-.728.787-.333-.31 1.06-1.147zm16.965 0l1.061 1.148-.333.31-.728-.788-.726.787-.335-.31 1.061-1.147zm-42.441 0l1.06 1.148-.333.31-.727-.788-.727.787-.334-.31 1.06-1.147zm46.81 0l1.06 1.148-.333.31-.728-.788-.727.787-.334-.31 1.061-1.147zm4.35 0l1.06 1.148-.334.31-.727-.788-.727.787-.334-.31 1.061-1.147zm-63.854 0l1.06 1.148-.333.31-.727-.788-.727.787-.334-.31 1.06-1.147zm21.074 0l1.06 1.148-.334.31-.726-.788-.727.787-.334-.31 1.06-1.147zm-17.044 0l1.061 1.148-.334.31-.727-.788-.727.787-.334-.31 1.061-1.147zm21.411 0l1.061 1.148-.334.31-.727-.788-.726.787-.335-.31 1.061-1.147zm42.442 0l1.06 1.148-.333.31-.727-.788-.727.787-.334-.31 1.06-1.147zm-51.159 0l1.061 1.148-.333.31-.728-.788-.727.787-.334-.31 1.061-1.147zm-8.38 0l1.062 1.148-.334.31-.727-.788-.727.787-.334-.31 1.06-1.147zm25.477 0l1.06 1.148-.333.31-.727-.788-.727.787-.334-.31 1.06-1.147zm8.586 0l1.06 1.148-.333.31-.727-.788-.727.787-.334-.31 1.06-1.147zm8.38 0l1.06 1.148-.333.31-.728-.788-.726.787-.334-.31 1.06-1.147zm-20.997 0l1.061 1.148-.333.31-.728-.788-.727.787-.334-.31 1.061-1.147zm16.966 0l1.061 1.148-.334.31-.727-.788-.727.787-.334-.31 1.061-1.147zm-31.888-2.15l1.061 1.148-.333.31-.728-.788-.727.787-.334-.309 1.061-1.148zm51.16 0l1.06 1.148-.334.31-.727-.788-.727.787-.334-.309 1.061-1.148zm-34.063 0l1.06 1.148-.333.31-.727-.788-.727.787-.334-.309 1.06-1.148zm4.03 0l1.061 1.148-.333.31-.728-.788-.727.787-.334-.309 1.061-1.148zm12.935 0l1.061 1.148-.333.31-.728-.788-.726.787-.335-.309 1.061-1.148zm-21.314 0l1.06 1.148-.333.31-.727-.788-.727.787-.334-.309 1.06-1.148zm34.062 0l1.06 1.148-.333.31-.727-.788-.727.787-.334-.309 1.06-1.148zm-51.158 0l1.06 1.148-.334.309-.726-.787-.728.787-.333-.309 1.06-1.148zm46.79 0l1.06 1.148-.333.31-.727-.788-.727.787-.334-.309 1.06-1.148zm-34.062 0l1.061 1.148-.334.31-.727-.788-.727.787-.334-.309 1.06-1.148zm46.81 0l1.06 1.148-.333.31-.727-.788-.727.787-.334-.309 1.06-1.148zm-67.883 0l1.06 1.148-.334.309-.726-.787-.728.787-.333-.309 1.06-1.148zm16.724 0l1.06 1.148-.333.31-.727-.788-.727.787-.334-.309 1.06-1.148zm-12.694 0l1.06 1.148-.333.31-.727-.788-.727.787-.334-.309 1.06-1.148zm34.14 0l1.06 1.148-.333.31-.727-.788-.727.787-.334-.309 1.06-1.148zm12.616 0l1.06 1.148-.333.309-.727-.787-.727.787-.334-.309 1.061-1.148zm-8.38 0l1.061 1.148-.333.31-.728-.788-.727.787-.334-.309 1.061-1.148zm-27.857-2.126l1.061 1.148-.333.309-.728-.787-.727.787-.334-.31 1.061-1.147zm38.411 0l1.061 1.148-.333.309-.728-.787-.726.787-.335-.31 1.061-1.147zm-46.79 0l1.06 1.148-.333.309-.727-.787-.727.787-.334-.31 1.06-1.147zm25.476 0l1.06 1.148-.333.309-.727-.787-.727.787-.334-.31 1.06-1.147zm8.586 0l1.06 1.148-.333.309-.727-.787-.727.787-.334-.31 1.06-1.147zm8.38 0l1.06 1.148-.333.309-.728-.787-.726.787-.334-.309 1.06-1.148zm-29.713 0l1.06 1.148-.334.309-.726-.787-.727.787-.334-.31 1.06-1.147zm4.367 0l1.061 1.148-.334.309-.727-.787-.726.787-.335-.309 1.061-1.148zm21.315 0l1.061 1.148-.334.309-.727-.787-.727.787-.334-.31 1.061-1.147zm-34.062 0l1.06 1.148-.333.309-.727-.787-.727.787-.334-.309 1.06-1.148zm55.189 0l1.06 1.148-.333.309-.727-.787-.727.787-.334-.309 1.06-1.148zm-4.03 0l1.06 1.148-.333.309-.727-.787-.727.787-.334-.31 1.061-1.147zm-59.823 0l1.061 1.148-.334.309-.727-.787-.727.787-.334-.31 1.061-1.147zm34.14 0l1.061 1.148-.334.309-.726-.787-.728.787-.333-.31 1.06-1.147zm-8.38 0l1.061 1.148-.333.309-.728-.787-.727.787-.334-.31 1.061-1.147zm-29.79 0l1.06 1.148-.333.309-.727-.787-.727.787-.334-.31 1.06-1.147zm59.503 0l1.061 1.148-.333.309-.728-.787-.727.787-.334-.31 1.061-1.147zm10.555-2.15l1.06 1.147-.333.31-.727-.787-.727.787-.334-.31 1.06-1.147zm-42.442 0l1.06 1.147-.333.31-.727-.787-.727.787-.334-.31 1.06-1.147zm8.38 0l1.06 1.147-.333.31-.728-.787-.727.787-.334-.31 1.061-1.147zm8.585 0l1.061 1.147-.333.31-.728-.787-.727.787-.334-.31 1.061-1.147zm-34.061 0l1.06 1.147-.334.31-.726-.787-.728.787-.333-.31 1.06-1.147zm-4.315 0l1.06 1.147-.333.31-.727-.787-.727.787-.334-.31 1.06-1.147zm55.473 0l1.06 1.147-.333.31-.727-.787-.727.787-.334-.31 1.06-1.147zm-8.717 0l1.06 1.147-.333.31-.727-.787-.727.787-.334-.31 1.061-1.147zm-34.062 0l1.06 1.147-.333.31-.727-.787-.727.787-.334-.31 1.06-1.147zm4.349-.025l1.061 1.148-.334.309-.727-.787-.727.787-.334-.31 1.06-1.147zm17.097 0l1.06 1.148-.333.309-.727-.787-.727.787-.334-.31 1.06-1.147zm-8.38 0l1.06 1.148-.333.309-.727-.787-.727.787-.334-.31 1.06-1.147zm-29.79 0l1.06 1.148-.334.309-.726-.787-.728.787-.333-.31 1.06-1.147zm46.755 0l1.061 1.148-.333.309-.728-.787-.726.787-.335-.31 1.061-1.147zm8.38 0l1.06 1.148-.333.309-.727-.787-.727.787-.334-.31 1.06-1.147zm8.717 0l1.061 1.148-.334.309-.727-.787-.727.787-.334-.31 1.061-1.147zm-51.159 0l1.061 1.148-.333.309-.728-.787-.727.787-.334-.31 1.061-1.147zm-6.523-1.958l1.06 1.148-.333.31-.727-.788-.727.787-.334-.309 1.06-1.148zm8.38 0l1.06 1.148-.333.31-.728-.788-.727.787-.334-.309 1.061-1.148zm13.065 0l1.061 1.148-.333.31-.728-.788-.727.787-.334-.309 1.061-1.148zm29.713 0l1.061 1.148-.333.31-.728-.788-.727.787-.334-.309 1.061-1.148zm-4.368 0l1.061 1.148-.333.31-.728-.788-.726.787-.335-.309 1.061-1.148zm12.748 0l1.06 1.148-.333.31-.727-.788-.727.787-.334-.309 1.06-1.148zm-63.853 0l1.061 1.148-.334.309-.727-.787-.727.787-.334-.309 1.061-1.148zm17.044 0l1.06 1.148-.334.309-.726-.787-.727.787-.334-.309 1.06-1.148zm21.333 0l1.06 1.148-.333.31-.727-.788-.727.787-.334-.309 1.06-1.148zm-16.966 0l1.061 1.148-.334.31-.727-.788-.726.787-.335-.309 1.061-1.148zm21.315 0l1.061 1.148-.334.309-.727-.787-.727.787-.334-.309 1.061-1.148zm-34.062 0l1.06 1.148-.333.31-.727-.788-.727.787-.334-.309 1.06-1.148zm59.538 0l1.061 1.148-.334.31-.727-.788-.727.787-.334-.309 1.061-1.148zm-38.411 0l1.06 1.148-.333.31-.727-.788-.727.787-.334-.309 1.06-1.148zm4.35 0l1.06 1.148-.334.309-.726-.787-.728.787-.333-.309 1.06-1.148zm12.615 0l1.061 1.148-.333.31-.728-.788-.726.787-.334-.309 1.06-1.148zm-50.786 0l1.06 1.148-.333.31-.727-.788-.727.787-.334-.309 1.06-1.148zm63.853 0l1.06 1.148-.333.309-.727-.787-.727.787-.334-.309 1.061-1.148zm-61.678-2.15l1.06 1.149-.334.308-.726-.787-.728.787-.333-.309 1.06-1.148zm29.79 0l1.06 1.148-.333.31-.727-.788-.727.787-.334-.308 1.06-1.149zm34.062 0l1.061 1.148-.334.31-.727-.788-.727.787-.334-.309 1.061-1.148zm4.03 0l1.062 1.148-.334.31-.727-.788-.727.787-.334-.309 1.06-1.148zm-51.158 0l1.06 1.148-.333.31-.727-.788-.727.787-.334-.309 1.06-1.148zm-4.03 0l1.06 1.148-.333.31-.728-.788-.727.787-.334-.309 1.061-1.148zm21.126 0l1.061 1.148-.333.31-.728-.788-.727.787-.334-.309 1.061-1.148zm21.315 0l1.06 1.148-.333.31-.727-.788-.727.787-.334-.308 1.06-1.149zm-4.349 0l1.06 1.149-.333.308-.727-.787-.727.787-.334-.309 1.061-1.148zm-4.03 0l1.06 1.148-.333.31-.728-.788-.726.787-.335-.309 1.061-1.148zm-8.586 0l1.06 1.148-.333.31-.727-.788-.727.787-.334-.309 1.06-1.148zm-12.73 0l1.062 1.148-.334.31-.727-.788-.727.787-.334-.309 1.06-1.148zm-21.41 0l1.06 1.148-.333.31-.727-.788-.727.787-.334-.308 1.06-1.149zm38.376 0l1.061 1.148-.333.31-.728-.788-.727.787-.334-.309 1.061-1.148zm-34.061 0l1.06 1.149-.334.308-.726-.787-.728.787-.333-.309 1.06-1.148zm12.728 0l1.061 1.148-.334.31-.727-.788-.727.787-.334-.309 1.06-1.148zm38.43 0l1.06 1.148-.333.31-.727-.788-.727.787-.334-.309 1.06-1.148zm-90.585-86.53l1.061 1.148-.334.308-.727-.787-.727.788-.334-.31 1.061-1.147zm2.175-2.15l1.06 1.148-.333.309-.727-.787-.727.787-.334-.309 1.06-1.148zm2.193-2.127l1.06 1.148-.333.31-.727-.788-.727.787-.334-.309 1.06-1.148zm-4.368 0l1.061 1.148-.334.309-.727-.787-.727.787-.334-.31 1.061-1.147zm6.543-2.15l1.06 1.148-.333.31-.727-.788-.727.787-.334-.308 1.06-1.149zm-4.368 0l1.06 1.148-.333.31-.727-.788-.727.787-.334-.308 1.06-1.149zm-2.175-1.957l1.061 1.147-.334.31-.727-.787-.727.786-.334-.309 1.061-1.147zm4.368 0l1.06 1.147-.333.31-.727-.787-.727.786-.334-.309 1.06-1.147zm4.35 0l1.06 1.147-.334.31-.726-.787-.728.786-.334-.309 1.062-1.147zm-6.543-2.15l1.06 1.147-.333.31-.727-.788-.727.787-.334-.308 1.06-1.149zm4.368 0l1.06 1.147-.333.31-.727-.788-.727.787-.334-.308 1.06-1.149zm-2.175-2.127l1.06 1.148-.333.31-.727-.788-.727.787-.334-.309 1.06-1.148zm-4.368 0l1.061 1.148-.334.309-.727-.787-.727.787-.334-.31 1.061-1.147zm12.748 0l1.06 1.148-.333.31-.727-.788-.727.787-.334-.309 1.06-1.148zm-4.03 0l1.06 1.148-.334.309-.726-.787-.728.787-.334-.31 1.062-1.147zm-2.175-2.15l1.06 1.148-.333.309-.727-.787-.727.787-.334-.31 1.06-1.147zm8.38 0l1.06 1.148-.333.309-.728-.787-.727.787-.334-.31L97 179.194zm-12.748-.025l1.06 1.148-.333.31-.727-.788-.727.787-.334-.31 1.06-1.147zm8.717 0l1.06 1.148-.333.31-.727-.788-.727.787-.334-.31 1.06-1.147zm-6.524-1.958l1.06 1.148-.333.31-.727-.788-.727.787-.334-.308 1.06-1.149zm4.35 0l1.06 1.149-.334.308-.726-.787-.728.788-.334-.31 1.062-1.148zm-8.718 0l1.061 1.149-.334.308-.727-.787-.727.788-.334-.31 1.061-1.148zm12.748 0l1.06 1.148-.333.31-.727-.788-.727.787-.334-.308 1.06-1.149zm-1.856-2.15l1.06 1.148-.333.31-.727-.788-.727.787-.334-.308 1.06-1.149zm-8.717 0l1.06 1.148-.333.31-.727-.788-.727.787-.334-.308 1.06-1.149zm4.368 0l1.06 1.148-.333.31-.727-.788-.727.787-.334-.308 1.06-1.149zm8.38 0l1.06 1.148-.333.31-.728-.788-.727.788-.334-.31L97 175.06zm-10.555-2.126l1.06 1.148-.333.309-.727-.787-.727.786-.334-.308 1.06-1.148zm12.695 0l1.06 1.148-.334.308-.726-.786-.728.787-.333-.31 1.06-1.147zm-4.315 0l1.06 1.148-.333.309-.727-.787-.727.786-.334-.308 1.06-1.148zm-12.748 0l1.061 1.148-.334.308-.727-.786-.727.787-.334-.31 1.061-1.147zm8.718 0l1.06 1.148-.334.308-.726-.786-.728.787-.334-.31 1.062-1.147zm6.204-2.15l1.061 1.148-.333.309-.728-.787-.727.787-.334-.31L97 170.784zm-8.38 0l1.062 1.148-.334.309-.727-.787-.727.787-.334-.309 1.06-1.149zm-4.367 0l1.06 1.148-.333.309-.727-.787-.727.787-.334-.309 1.06-1.149zm8.717 0l1.06 1.148-.333.309-.727-.787-.727.787-.334-.309 1.06-1.149zm8.345 0l1.06 1.148-.333.309-.727-.787-.727.787-.334-.309 1.06-1.149zm2.174-1.958l1.061 1.148-.333.31-.728-.788-.727.787-.334-.309 1.061-1.148zm-17.043 0l1.06 1.148-.333.31-.727-.788-.727.787-.334-.309 1.06-1.148zm4.35 0l1.06 1.148-.334.31-.726-.788-.728.787-.334-.309 1.062-1.148zm8.345 0l1.06 1.148-.334.31-.726-.788-.728.787-.333-.309 1.06-1.148zm-17.063 0l1.061 1.148-.334.31-.727-.788-.727.787-.334-.309 1.061-1.148zm12.748 0l1.06 1.148-.333.31-.727-.788-.727.787-.334-.309 1.06-1.148zm6.489-2.15l1.06 1.148-.333.309-.727-.787-.727.787-.334-.309 1.06-1.148zm-12.694 0l1.06 1.148-.333.309-.727-.787-.727.787-.334-.309 1.06-1.148zm-4.368 0l1.06 1.148-.333.309-.727-.787-.727.787-.334-.309 1.06-1.148zm8.717 0l1.06 1.148-.333.309-.727-.787-.727.787-.334-.309 1.06-1.148zm12.694 0l1.06 1.148-.333.309-.727-.787-.727.787-.334-.309 1.061-1.148zm-8.664 0l1.061 1.148-.333.309-.728-.787-.727.787-.334-.309L97 166.676zm2.14-2.127l1.061 1.149-.334.308-.726-.786-.728.786-.333-.308 1.06-1.149zm-12.694 0l1.06 1.149-.333.308-.727-.786-.727.786-.334-.308 1.06-1.149zm4.35 0l1.06 1.149-.334.308-.726-.786-.728.786-.334-.308 1.062-1.149zm16.724 0l1.06 1.149-.333.308-.727-.786-.727.786-.334-.308 1.061-1.149zm-4.03 0l1.06 1.149-.333.308-.728-.786-.727.786-.334-.308 1.061-1.148zm-8.664 0l1.06 1.149-.333.308-.727-.786-.727.786-.334-.308 1.06-1.149zm-12.748 0l1.061 1.149-.334.308-.727-.786-.727.786-.334-.308 1.061-1.149zm19.237-2.15l1.06 1.149-.333.309-.727-.787-.727.787-.334-.31 1.06-1.148zm8.38 0l1.06 1.149-.333.309-.728-.787-.727.787-.333-.31 1.06-1.148zM97 162.4l1.061 1.149-.333.309-.728-.787-.727.787-.334-.31L97 162.4zm-8.38 0l1.062 1.149-.334.309-.727-.787-.727.787-.334-.31 1.06-1.148zm17.044-.025l1.06 1.149-.333.309-.727-.787-.727.787-.334-.31 1.061-1.148zm-21.411 0l1.06 1.149-.333.309-.727-.787-.727.787-.334-.31 1.06-1.148zm8.717 0l1.06 1.149-.333.309-.727-.787-.727.787-.334-.31 1.06-1.148zm18.899-1.957l1.06 1.148-.333.309-.727-.787-.727.787-.334-.309 1.06-1.148zm-12.728 0l1.06 1.148-.334.309-.726-.787-.728.787-.333-.309 1.06-1.148zm-17.063 0l1.061 1.148-.334.309-.727-.787-.727.787-.334-.309 1.061-1.148zm25.442 0l1.06 1.148-.333.309-.727-.787-.727.787-.334-.309 1.061-1.148zm-21.074 0l1.06 1.148-.333.309-.727-.787-.727.787-.334-.309 1.06-1.148zm4.35 0l1.06 1.148-.334.309-.726-.787-.728.787-.334-.309 1.062-1.148zm12.693 0l1.061 1.148-.333.309-.728-.787-.727.787-.334-.309 1.061-1.148zm-8.663 0l1.06 1.148-.333.309-.727-.787-.727.787-.334-.309 1.06-1.148zm10.838-2.15l1.06 1.148-.333.31-.727-.788-.727.787-.334-.309 1.061-1.148zm-4.35 0l1.062 1.148-.334.31-.727-.788-.727.787-.334-.309 1.06-1.148zm8.38 0l1.061 1.148-.333.31-.728-.788-.727.787-.333-.309 1.06-1.148zm4.35 0l1.06 1.148-.333.31-.727-.788-.727.787-.334-.309 1.06-1.148zm-29.791 0l1.06 1.148-.333.31-.727-.788-.727.787-.334-.309 1.06-1.148zm4.368 0l1.06 1.148-.333.31-.727-.788-.727.787-.334-.309 1.06-1.148zm4.349 0l1.06 1.148-.333.31-.727-.788-.727.787-.334-.309 1.06-1.148zm4.03 0l1.061 1.148-.333.31-.728-.788-.727.787-.334-.309L97 158.267zm19.237-2.127l1.06 1.148-.333.31-.727-.788-.727.787-.334-.309 1.061-1.148zm-4.368 0l1.06 1.148-.333.31-.727-.788-.727.787-.334-.309 1.06-1.148zm-12.728 0l1.06 1.148-.334.31-.726-.788-.728.787-.333-.309 1.06-1.148zm-17.063 0l1.061 1.148-.334.31-.727-.788-.727.787-.334-.309 1.061-1.148zm21.411 0l1.061 1.148-.333.31-.728-.788-.727.787-.334-.309 1.061-1.148zm4.031 0l1.06 1.148-.333.31-.727-.788-.727.787-.334-.309 1.061-1.148zm-21.074 0l1.06 1.148-.333.31-.727-.788-.727.787-.334-.309 1.06-1.148zm4.35 0l1.06 1.148-.334.31-.726-.788-.728.787-.334-.309 1.062-1.148zm4.03 0l1.06 1.148-.333.31-.727-.788-.727.787-.334-.309 1.06-1.148zm14.868-2.15l1.061 1.149-.333.308-.728-.786-.727.786-.333-.308 1.06-1.149zm4.35 0l1.06 1.149-.333.308-.727-.786-.727.786-.334-.308 1.06-1.149zm-12.73 0l1.062 1.149-.334.308-.727-.786-.727.786-.334-.308 1.06-1.149zm4.35 0l1.06 1.149-.333.308-.727-.786-.727.786-.334-.308 1.061-1.149zm-8.664 0l1.061 1.149-.333.308-.728-.786-.727.786-.334-.308L97 153.99zm-8.38 0l1.062 1.149-.334.308-.727-.786-.727.786-.334-.308 1.06-1.149zm-4.367 0l1.06 1.149-.333.308-.727-.786-.727.786-.334-.308 1.06-1.149zm8.717 0l1.06 1.149-.333.308-.727-.786-.727.786-.334-.308 1.06-1.149zm10.52-1.958l1.06 1.149-.333.309-.728-.787-.727.787-.334-.31 1.061-1.148zm-4.35 0l1.061 1.149-.334.309-.726-.787-.728.787-.333-.31 1.06-1.148zm-17.062 0l1.061 1.149-.334.309-.727-.787-.727.787-.334-.31 1.061-1.148zm4.368 0l1.06 1.149-.333.309-.727-.787-.727.787-.334-.31 1.06-1.148zm4.35 0l1.06 1.149-.334.309-.726-.787-.728.787-.334-.31 1.062-1.148zm4.03 0l1.06 1.149-.333.309-.727-.787-.727.787-.334-.31 1.06-1.148zm6.489-2.15l1.06 1.149-.333.309-.727-.787-.727.787-.334-.309 1.06-1.148zm-17.062 0l1.06 1.149-.333.309-.727-.787-.727.787-.334-.309 1.06-1.148zm4.368 0l1.06 1.149-.333.309-.727-.787-.727.787-.334-.309 1.06-1.148zm4.349 0l1.06 1.149-.333.309-.727-.787-.727.787-.334-.309 1.06-1.148zm4.03 0l1.061 1.149-.333.309-.728-.787-.727.787-.334-.309L97 149.883zm-10.554-2.116l1.06 1.149-.333.309-.727-.787-.727.787-.334-.31 1.06-1.148zm-4.368 0l1.061 1.149-.334.309-.727-.787-.727.787-.334-.31 1.061-1.148zm12.748 0l1.06 1.149-.333.309-.727-.787-.727.787-.334-.31 1.06-1.148zm-4.03 0l1.06 1.149-.334.309-.726-.787-.728.787-.334-.31 1.062-1.148zm2.174-2.15l1.06 1.149-.333.309-.727-.787-.727.787-.334-.31 1.06-1.148zm-4.35 0l1.062 1.149-.334.309-.727-.787-.727.787-.334-.31 1.06-1.148zm-4.367 0l1.06 1.149-.333.309-.727-.787-.727.787-.334-.31 1.06-1.148zm12.747 0l1.061 1.149-.333.309-.728-.787-.727.787-.334-.31L97 145.618zm-6.204-1.957l1.06 1.148-.334.309-.726-.787-.728.787-.334-.309 1.062-1.148zm-4.35 0l1.06 1.148-.333.309-.727-.787-.727.787-.334-.309 1.06-1.148zm-4.368 0l1.061 1.148-.334.309-.727-.787-.727.787-.334-.309 1.061-1.148zm12.748 0l1.06 1.148-.333.309-.727-.787-.727.787-.334-.309 1.06-1.148zm-6.205-2.15l1.06 1.148-.333.309-.727-.787-.727.787-.334-.309 1.06-1.148zm4.349 0l1.06 1.148-.333.309-.727-.787-.727.787-.334-.309 1.06-1.148zm4.03 0l-.727 1.457-.334-.309L97 141.51zm-12.747 0l1.06 1.148-.333.309-.727-.787-.727.787-.334-.309 1.06-1.148zm6.543-2.127l1.06 1.149-.334.308-.726-.786-.728.786-.334-.308 1.062-1.149zm-4.35 0l1.06 1.149-.333.308-.727-.786-.727.786-.334-.308 1.06-1.149zm8.38 0l1.06 1.149-.333.308-.727-.786-.727.786-.334-.308 1.06-1.149zm-12.748 0l1.061 1.149-.334.308-.727-.786-.727.786-.334-.308 1.061-1.149zm2.175-2.15l1.06 1.149-.333.309-.727-.787-.727.787-.334-.31 1.06-1.148zm8.717 0l1.06 1.149-.333.309-.727-.787-.727.787-.334-.31 1.06-1.148zm-4.35 0l1.062 1.149-.334.309-.727-.787-.727.787-.334-.31 1.06-1.148zm2.176-1.957l1.06 1.148-.334.309-.726-.787-.728.787-.334-.309 1.062-1.148zm4.03 0l1.06 1.148-.333.309-.727-.787-.727.787-.334-.309 1.06-1.148zm-8.38 0l1.06 1.148-.333.309-.727-.787-.727.787-.334-.309 1.06-1.148zm-4.368 0l1.061 1.148-.334.309-.727-.787-.727.787-.334-.309 1.061-1.148zm10.892-2.15l1.06 1.148-.333.309-.727-.787-.727.787-.334-.309 1.06-1.149zm-8.717 0l1.06 1.148-.333.309-.727-.787-.727.787-.334-.309 1.06-1.149zm4.368 0l1.06 1.148-.333.309-.727-.787-.727.787-.334-.309 1.06-1.149zm6.205-2.127l1.06 1.148-.333.31-.727-.788-.727.787-.334-.309 1.06-1.148zm-8.38 0l1.06 1.148-.333.31-.727-.788-.727.787-.334-.309 1.06-1.148zm4.35 0l1.06 1.148-.334.31-.726-.788-.728.787-.334-.309 1.062-1.148zm-8.718 0l1.061 1.148-.334.31-.727-.788-.727.787-.334-.309 1.061-1.148zm6.543-2.15l1.06 1.149-.333.308-.727-.786-.727.786-.334-.308 1.06-1.149zm-4.368-.025l1.06 1.149-.333.309-.727-.787-.727.787-.334-.31 1.06-1.148zm8.717 0l1.06 1.149-.333.309-.727-.787-.727.787-.334-.31 1.06-1.148zm-10.892-1.958l1.061 1.149-.334.309-.727-.787-.727.787-.334-.31 1.061-1.148zm4.368 0l1.06 1.149-.333.309-.727-.787-.727.787-.334-.31 1.06-1.148zm4.35 0l1.06 1.149-.334.309-.726-.787-.728.787-.334-.31 1.062-1.148zm4.03 0l1.06 1.149-.333.309-.727-.787-.727.787-.334-.31 1.06-1.148zm-1.856-2.15l1.06 1.149-.333.309-.727-.787-.727.787-.334-.31 1.06-1.148zm-8.717 0l1.06 1.149-.333.309-.727-.787-.727.787-.334-.31 1.06-1.148zm4.368 0l1.06 1.149-.333.309-.727-.787-.727.787-.334-.31 1.06-1.148zm2.175-2.126l1.06 1.148-.334.31-.726-.788-.728.787-.334-.309 1.062-1.148zm-8.718 0l1.061 1.148-.334.31-.727-.788-.727.787-.334-.309 1.061-1.148zm12.748 0l1.06 1.148-.333.31-.727-.788-.727.787-.334-.309 1.06-1.148zm-8.38 0l1.06 1.148-.333.31-.727-.788-.727.787-.334-.309 1.06-1.148zm6.524-2.15l1.06 1.148-.333.31-.727-.788-.727.787-.334-.309 1.06-1.148zm-4.35 0l1.062 1.148-.334.31-.727-.788-.727.787-.334-.309 1.06-1.148zm-4.367 0l1.06 1.148-.333.31-.727-.788-.727.787-.334-.309 1.06-1.148zm10.573-1.958l1.06 1.149-.333.309-.727-.787-.727.787-.334-.31 1.06-1.148zm-4.03 0l1.06 1.149-.334.309-.726-.787-.728.787-.334-.31 1.062-1.148zm-8.718 0l1.061 1.149-.334.309-.727-.787-.727.787-.334-.31 1.061-1.148zm4.368 0l1.06 1.149-.333.309-.727-.787-.727.787-.334-.31 1.06-1.148zm2.175-2.15l1.06 1.149-.333.308-.727-.786-.727.786-.334-.308 1.06-1.149zm4.349 0l1.06 1.149-.333.308-.727-.786-.727.786-.334-.308 1.06-1.149zm4.03 0l1.061 1.149-.333.308-.728-.786-.727.786-.334-.308L97 116.332zm-12.747 0l1.06 1.149-.333.308-.727-.786-.727.786-.334-.308 1.06-1.149zm-2.175-2.126l1.061 1.148-.334.309-.727-.787-.727.787-.334-.309 1.061-1.148zm4.368 0l1.06 1.148-.333.309-.727-.787-.727.787-.334-.309 1.06-1.148zm4.35 0l1.06 1.148-.334.309-.726-.787-.728.787-.334-.309 1.062-1.148zm4.03 0l1.06 1.148-.333.309-.727-.787-.727.787-.334-.309 1.06-1.148zm-6.205-2.15l1.06 1.148-.333.31-.727-.788-.727.787-.334-.309 1.06-1.148zm8.38 0l1.06 1.148-.333.31-.728-.788-.727.787-.334-.309L97 112.055zm-4.031-.025l1.06 1.148-.333.31-.727-.788-.727.787-.334-.309 1.06-1.148zm6.17-1.958l1.061 1.149-.334.308-.726-.786-.728.786-.333-.308 1.06-1.149zm-8.344 0l1.06 1.149-.334.308-.726-.786-.728.786-.334-.308 1.062-1.149zm4.03 0l1.06 1.149-.333.308-.727-.786-.727.786-.334-.308 1.06-1.149zm6.489-2.15l1.06 1.148-.333.31-.727-.788-.727.787-.334-.309 1.06-1.148z"/>
        <path fill="#FF4A00" d="M84.644 240.109c1.865 1.558 4.01 2.542 6.377 2.925a.728.728 0 0 1-.232 1.436c-2.628-.424-5.01-1.516-7.077-3.244a.728.728 0 0 1 .932-1.117zm22.712-2.23a.728.728 0 0 1-.072 1.026c-2.013 1.752-4.196 3.141-6.488 4.13a.723.723 0 0 1-.956-.382.728.728 0 0 1 .38-.956c2.155-.928 4.21-2.237 6.11-3.89a.726.726 0 0 1 1.026.071zm27.254-1.066c1.261 1.99 3.288 3.33 5.56 3.677a.728.728 0 0 1-.22 1.439c-2.688-.411-5.082-1.992-6.568-4.336a.728.728 0 0 1 1.228-.78zm18.428-6.239a.728.728 0 0 1 .105 1.024c-.906 1.114-1.47 2.225-2.016 3.298-.517 1.02-1.052 2.074-1.86 3.085a.726.726 0 0 1-1.023.113.728.728 0 0 1-.113-1.023c.715-.894 1.193-1.836 1.7-2.834.58-1.142 1.179-2.323 2.184-3.558a.727.727 0 0 1 1.023-.105zm12.344-9.35c4.656 0 8.444 3.79 8.444 8.449s-3.788 8.448-8.444 8.448c-4.656 0-8.444-3.79-8.444-8.448 0-4.659 3.788-8.449 8.444-8.449zm-87.657 4.071a23.635 23.635 0 0 0 1.19 5.795c.146.431.302.858.462 1.267a.728.728 0 0 1-1.354.532 29.48 29.48 0 0 1-.485-1.333 25.117 25.117 0 0 1-1.264-6.151.728.728 0 0 1 1.45-.11zm38.036-2.267a.728.728 0 0 1 .543.874 28.434 28.434 0 0 1-2.737 7.165.727.727 0 1 1-1.277-.697 26.972 26.972 0 0 0 2.597-6.798.73.73 0 0 1 .874-.544zm18.729-3.41c.395.077.65.46.572.855-.206 1.043-.431 2.088-.653 3.116-.32 1.486-.624 2.89-.855 4.216a.728.728 0 0 1-1.433-.25c.236-1.355.542-2.773.866-4.273.22-1.02.444-2.057.649-3.092a.728.728 0 0 1 .854-.572zm-52.385-11.213a.728.728 0 0 1 .193 1.01c-1.42 2.09-2.532 4.274-3.306 6.494a.729.729 0 0 1-.927.447.728.728 0 0 1-.447-.927c.816-2.34 1.986-4.638 3.477-6.831a.727.727 0 0 1 1.01-.193zm39.023-1.09a.728.728 0 0 1-.095 1.026c-1.845 1.534-3.22 3.654-3.774 5.816a.728.728 0 1 1-1.41-.361c.628-2.452 2.18-4.848 4.254-6.575a.727.727 0 0 1 1.025.095zm8.836-2.35c.71.2 1.424.478 2.124.828 1.793.897 2.966 2.447 3.489 4.608a.728.728 0 0 1-1.413.343c-.424-1.75-1.316-2.943-2.726-3.65a10.726 10.726 0 0 0-1.869-.728.728.728 0 0 1 .395-1.401zM95.05 197.07a.728.728 0 0 1-.263.996 42.26 42.26 0 0 0-6.018 4.24.726.726 0 0 1-1.025-.086.728.728 0 0 1 .085-1.025c1.905-1.613 4-3.089 6.226-4.387a.728.728 0 0 1 .995.262zm-.429-7.541l8.222 3.287a.726.726 0 0 1 .382.998l-3.921 7.943a.728.728 0 1 1-1.305-.645l3.573-7.237-7.49-2.995a.728.728 0 0 1 .54-1.351zm25.225-10.647c.36.178.508.614.33.975l-4.861 9.84 9.835 4.864a.728.728 0 0 1-.645 1.305l-9.835-4.864-4.86 9.84a.728.728 0 1 1-1.305-.644l4.86-9.841-9.834-4.863a.728.728 0 0 1 .644-1.305l9.835 4.863 4.862-9.84a.728.728 0 0 1 .974-.33zm-1.133-134.034l29.246 27.046-29.246 27.046V44.848zm61.533-1.999a.727.727 0 0 1-.418.94L151.687 54.6a.727.727 0 1 1-.521-1.36l28.14-10.808a.728.728 0 0 1 .94.418zm-121.3-2.94l27.663 11.977a.728.728 0 0 1-.577 1.336L58.367 41.244a.728.728 0 0 1 .578-1.336zm107.788-18.611a.729.729 0 0 1-.032 1.029l-21.973 20.645a.727.727 0 0 1-1.029-.032.729.729 0 0 1 .032-1.03l21.973-20.645a.727.727 0 0 1 1.029.033zM73.419 19.33L94.51 40.88a.728.728 0 0 1-1.039 1.02l-21.09-21.55a.728.728 0 0 1 1.04-1.018zm72.666-12.879a.728.728 0 0 1 .359.964L133.896 34.84a.728.728 0 1 1-1.323-.606L145.12 6.81a.728.728 0 0 1 .964-.358zm-51.494-.7l11.39 27.923a.728.728 0 0 1-1.347.55L93.244 6.301a.728.728 0 0 1 1.347-.55zM118.595.454c.402 0 .727.326.727.728v30.16a.727.727 0 1 1-1.455 0V1.182c0-.402.326-.728.728-.728z"/>
        <path fill="#000" d="M119.459 45.492l-.001 62.132H132.669c3.53 0 6.4 2.873 6.4 6.404a6.414 6.414 0 0 1-5.327 6.315 6.394 6.394 0 0 1 2.455 5.04c0 2.799-1.804 5.185-4.31 6.053a6.4 6.4 0 0 1 2.811 5.3 6.415 6.415 0 0 1-4.945 6.238 6.397 6.397 0 0 1 2.555 5.116c0 3.531-2.872 6.404-6.401 6.404h-6.45v1.849l87.466 94.683h-24.112c2.765 7.131 3.653 15.133 2.876 25.834-.864 11.895-6.754 24.86-15.756 34.682-7.79 8.498-21.57 18.628-42.989 18.628H90.151v.118H72.518c-5.868 0-10.642-4.777-10.642-10.648 0-3.955 2.167-7.413 5.374-9.25-5.358-.547-9.552-5.088-9.552-10.591 0-4.1 2.327-7.665 5.729-9.444-4.77-1.05-8.348-5.314-8.348-10.397 0-3.915 2.123-7.344 5.278-9.193H22.007c-5.868 0-10.642-4.776-10.642-10.647 0-5.872 4.774-10.648 10.642-10.648l9.969-.001 38.049-41.187c-1.03-1.007-10.714-10.698-15.019-22.68-7.246-20.168-2.403-36.574 2.936-46.786 6.172-11.805 16.354-21.748 27.239-26.596 9.24-4.117 18.945-6.21 27.326-5.892l-.001.036c.483.024.917.074 1.348.141 1.159.18 2.517.695 3.742 1.423.134-.043.27-.082.408-.116v-62.32h1.455zM30.632 250.924h-8.625c-5.066 0-9.187 4.124-9.187 9.194 0 5.068 4.12 9.192 9.187 9.192h54.19v1.456H65.72c-5.066 0-9.187 4.123-9.187 9.192s4.121 9.193 9.187 9.193h11.038v1.455h-8.419c-5.066 0-9.187 4.124-9.187 9.193s4.121 9.193 9.187 9.193h12.036v1.455h-7.858c-5.066 0-9.187 4.124-9.187 9.193s4.121 9.193 9.187 9.193l13.32-.001.001-.117h4.008c10.589 0 19.204-17.383 19.204-38.749 0-20.236-8.308-36.9-19.325-38.759l.03-.181H30.539l.094-.102zm73.894 11.477c3.855 7.352 5.979 17.141 5.979 27.565 0 10.657-2.101 20.687-5.916 28.242-2.566 5.08-5.713 8.658-9.166 10.508l31.52-.001c20.888 0 34.324-9.874 41.916-18.157 8.788-9.587 14.536-22.224 15.377-33.804.78-10.74-.142-18.676-2.99-25.728H93.86c4.087 1.965 7.783 5.88 10.665 11.375zM118.73 157.7l-84.774 91.769H74.2v.102h129.397L118.731 157.7zm-15.24-49.394l-.51.076c-5.617.87-11.499 2.623-17.209 5.167-10.594 4.72-20.516 14.417-26.541 25.942-5.204 9.953-9.924 25.948-2.856 45.62 4.168 11.6 13.544 21.029 14.637 22.101l46.992-50.87v-1.848h-10.37c-7.255 0-13.158-10.719-13.158-23.894 0-10.237 3.613-18.782 9.014-22.294zm5.533-.276a.721.721 0 0 1-.284-.018c-.337.041-.669.089-.99.14-6.738 1.094-11.82 10.745-11.82 22.448 0 12.373 5.25 22.439 11.704 22.439h6.437a6.396 6.396 0 0 1-2.343-4.95 6.41 6.41 0 0 1 3.194-5.54 6.412 6.412 0 0 1-3.716-5.813 6.414 6.414 0 0 1 5.28-6.307 6.434 6.434 0 0 1-1.073-1.063 6.363 6.363 0 0 1-1.647-2.26l-4.888-11.266-2.75 11.58a.727.727 0 1 1-1.416-.336l3.256-13.707a.726.726 0 0 1 1.375-.121l5.758 13.27a4.95 4.95 0 0 0 6.507 2.569 4.911 4.911 0 0 0 2.625-2.726 4.916 4.916 0 0 0-.058-3.785l-4.774-11.002c-.739-1.513-3.55-3.295-5.769-3.639-.927-.143-2.048-.255-4.608.087zm16.883 35.11h-7.778a4.953 4.953 0 0 0-4.946 4.95c0 2.729 2.219 4.949 4.946 4.949h7.778a4.953 4.953 0 0 0 4.946-4.95 4.953 4.953 0 0 0-4.946-4.948zm-5.532-11.354h-2.768a4.953 4.953 0 0 0-4.946 4.95c0 2.729 2.219 4.95 4.946 4.95h10.69a4.954 4.954 0 0 0 4.947-4.95 4.954 4.954 0 0 0-4.903-4.95H120.375zm9.421-11.353h-4.97l.684 1.572a6.36 6.36 0 0 1 .076 4.899 6.356 6.356 0 0 1-3.184 3.428h7.394a4.953 4.953 0 0 0 4.947-4.95 4.953 4.953 0 0 0-4.947-4.949zm2.873-11.354h-13.123c-.113 0-.226.004-.337.012.654.576 1.187 1.214 1.513 1.881l3.473 8.005h8.474a4.954 4.954 0 0 0 4.946-4.949c0-2.729-2.22-4.949-4.946-4.949zM118.73 36.26a4.54 4.54 0 0 1 4.533 4.536 4.54 4.54 0 0 1-4.533 4.536 4.54 4.54 0 0 1-4.533-4.536 4.54 4.54 0 0 1 4.533-4.535zm0 1.456a3.083 3.083 0 0 0-3.078 3.08 3.083 3.083 0 0 0 3.078 3.08 3.083 3.083 0 0 0 3.079-3.08 3.083 3.083 0 0 0-3.079-3.08z"/>
    </g>
</svg>
